SplineFontDB: 3.0
FontName: Telex-Regular
FullName: Telex-Regular
FamilyName: Telex Regular
Weight: Book
Copyright: Copyright (c) 2011 Andres Torresi (info@andrestorresi.com.ar), with Reserved Font Name "Telex"
Version: 1.001
ItalicAngle: 0
UnderlinePosition: -50
UnderlineWidth: 50
Ascent: 800
Descent: 200
sfntRevision: 0x00010042
LayerCount: 2
Layer: 0 1 "Back"  1
Layer: 1 1 "Fore"  0
XUID: [1021 506 1110686062 10966903]
FSType: 0
OS2Version: 3
OS2_WeightWidthSlopeOnly: 0
OS2_UseTypoMetrics: 1
CreationTime: 1323903240
ModificationTime: 1323896088
PfmFamily: 17
TTFWeight: 400
TTFWidth: 5
LineGap: 0
VLineGap: 0
Panose: 2 0 5 3 4 0 0 2 0 4
OS2TypoAscent: 145
OS2TypoAOffset: 1
OS2TypoDescent: -60
OS2TypoDOffset: 1
OS2TypoLinegap: 0
OS2WinAscent: 0
OS2WinAOffset: 1
OS2WinDescent: 0
OS2WinDOffset: 1
HheadAscent: 0
HheadAOffset: 1
HheadDescent: 0
HheadDOffset: 1
OS2SubXSize: 650
OS2SubYSize: 600
OS2SubXOff: 0
OS2SubYOff: 75
OS2SupXSize: 650
OS2SupYSize: 600
OS2SupXOff: 0
OS2SupYOff: 350
OS2StrikeYSize: 50
OS2StrikeYPos: 308
OS2CodePages: 20000001.00000000
OS2UnicodeRanges: 00000003.00000000.00000000.00000000
Lookup: 258 0 0 "'kern' Horizontal Kerning in Latin lookup 0"  {"'kern' Horizontal Kerning in Latin lookup 0 subtable"  } ['kern' ('latn' <'dflt' > ) ]
MarkAttachClasses: 1
DEI: 91125
TtTable: prep
PUSHW_2
 2048
 2048
MUL
DUP
PUSHB_1
 1
SWAP
WCVTP
DUP
PUSHB_1
 3
SWAP
WCVTF
PUSHB_1
 20
RCVT
DUP
DUP
PUSHB_1
 40
ADD
FLOOR
DUP
ROLL
NEQ
IF
PUSHB_1
 2
CINDEX
SUB
PUSHB_1
 1
RCVT
MUL
SWAP
DIV
PUSHB_1
 2
SWAP
WCVTP
PUSHB_4
 9
 10
 3
 2
CALL
PUSHB_4
 11
 16
 3
 2
CALL
PUSHB_4
 17
 22
 3
 2
CALL
EIF
PUSHB_3
 4
 40
 6
RCVT
GT
WCVTP
PUSHB_4
 11
 16
 4
 2
CALL
EndTTInstrs
TtTable: fpgm
PUSHB_1
 0
FDEF
DUP
ABS
PUSHB_1
 32
ADD
FLOOR
SWAP
PUSHB_1
 0
LT
IF
NEG
EIF
ENDF
PUSHB_1
 1
FDEF
DUP
ABS
DUP
PUSHB_1
 192
LT
PUSHB_1
 4
MINDEX
AND
PUSHB_1
 4
RCVT
OR
IF
POP
SWAP
POP
ELSE
ROLL
IF
DUP
PUSHB_1
 80
LT
IF
POP
PUSHB_1
 64
EIF
ELSE
DUP
PUSHB_1
 56
LT
IF
POP
PUSHB_1
 56
EIF
EIF
DUP
PUSHB_1

StartChar: exclam
Encoding: 33 33 4
Width: 269
GlyphClass: 2
Flags: W
LayerCount: 2
Fore
SplineSet
98 184 m 1,0,-1
 86 720 l 1,1,-1
 182 720 l 1,2,-1
 169 184 l 1,3,-1
 98 184 l 1,0,-1
88 0 m 1,4,-1
 88 92 l 1,5,-1
 181 92 l 1,6,-1
 181 0 l 1,7,-1
 88 0 l 1,4,-1
EndSplineSet
EndChar

StartChar: quotedbl
Encoding: 34 34 5
Width: 298
GlyphClass: 2
Flags: W
LayerCount: 2
Fore
SplineSet
186 542 m 1,0,-1
 186 759 l 1,1,-1
 258 759 l 1,2,-1
 258 542 l 1,3,-1
 186 542 l 1,0,-1
40 542 m 1,4,-1
 40 759 l 1,5,-1
 112 759 l 1,6,-1
 112 542 l 1,7,-1
 40 542 l 1,4,-1
EndSplineSet
EndChar

StartChar: numbersign
Encoding: 35 35 6
Width: 703
GlyphClass: 2
Flags: W
LayerCount: 2
Fore
SplineSet
65 440 m 1,0,-1
 77 512 l 1,1,-1
 216 512 l 1,2,-1
 250 708 l 1,3,-1
 328 708 l 1,4,-1
 294 512 l 1,5,-1
 463 512 l 1,6,-1
 497 708 l 1,7,-1
 576 708 l 1,8,-1
 542 512 l 1,9,-1
 681 512 l 1,10,-1
 669 440 l 1,11,-1
 530 440 l 1,12,-1
 499 259 l 1,13,-1
 636 259 l 1,14,-1
 624 187 l 1,15,-1
 487 187 l 1,16,-1
 456 0 l 1,17,-1
 376 0 l 1,18,-1
 408 187 l 1,19,-1
 239 187 l 1,20,-1
 208 0 l 1,21,-1
 129 0 l 1,22,-1
 161 187 l 1,23,-1
 21 187 l 1,24,-1
 32 259 l 1,25,-1
 173 259 l 1,26,-1
 204 440 l 1,27,-1
 65 440 l 1,0,-1
282 440 m 1,28,-1
 251 259 l 1,29,-1
 420 259 l 1,30,-1
 451 440 l 1,31,-1
 282 440 l 1,28,-1
EndSplineSet
EndChar

StartChar: dollar
Encoding: 36 36 7
Width: 548
GlyphClass: 2
Flags: W
LayerCount: 2
Fore
SplineSet
60 71 m 1,0,-1
 89 152 l 1,1,-1
 108 144 l 2,2,3
 191 109 191 109 252 109 c 128,-1,4
 313 109 313 109 346.5 134.5 c 128,-1,5
 380 160 380 160 380 206 c 0,6,7
 380 259 380 259 324 284 c 0,8,9
 296 297 296 297 252 309 c 128,-1,10
 208 321 208 321 186 329.5 c 128,-1,11
 164 338 164 338 134 358 c 1,12,13
 75 395 75 395 75 483 c 0,14,15
 75 550 75 550 116 596.5 c 128,-1,16
 157 643 157 643 239 656 c 1,17,-1
 239 774 l 1,18,-1
 323 774 l 1,19,-1
 323 659 l 1,20,21
 381 655 381 655 460 624 c 1,22,-1
 436 545 l 1,23,24
 360 576 360 576 299.5 576 c 128,-1,25
 239 576 239 576 207 553.5 c 128,-1,26
 175 531 175 531 175 493 c 0,27,28
 175 443 175 443 230 418 c 0,29,30
 259 405 259 405 297 393.5 c 128,-1,31
 335 382 335 382 353 375.5 c 128,-1,32
 371 369 371 369 399 354 c 128,-1,33
 427 339 427 339 442 322 c 1,34,35
 479 276 479 276 479 205 c 128,-1,36
 479 134 479 134 437.5 89.5 c 128,-1,37
 396 45 396 45 323 31 c 1,38,-1
 323 -84 l 1,39,-1
 239 -84 l 1,40,-1
 239 26 l 1,41,42
 163 30 163 30 73 66 c 1,43,-1
 60 71 l 1,0,-1
EndSplineSet
EndChar

StartChar: percent
Encoding: 37 37 8
Width: 899
GlyphClass: 2
Flags: W
LayerCount: 2
Fore
SplineSet
345 358 m 128,-1,1
 306 303 306 303 227.5 303 c 128,-1,2
 149 303 149 303 109.5 358.5 c 128,-1,3
 70 414 70 414 70 511 c 128,-1,4
 70 608 70 608 109.5 662.5 c 128,-1,5
 149 717 149 717 227.5 717 c 128,-1,6
 306 717 306 717 345 662.5 c 128,-1,7
 384 608 384 608 384 510.5 c 128,-1,0
 384 413 384 413 345 358 c 128,-1,1
227 375 m 128,-1,9
 304 375 304 375 304 510.5 c 128,-1,10
 304 646 304 646 227 646 c 128,-1,11
 150 646 150 646 150 510.5 c 128,-1,8
 150 375 150 375 227 375 c 128,-1,9
790 46 m 128,-1,13
 751 -9 751 -9 672.5 -9 c 128,-1,14
 594 -9 594 -9 554.5 46.5 c 128,-1,15
 515 102 515 102 515 199 c 128,-1,16
 515 296 515 296 554.5 350.5 c 128,-1,17
 594 405 594 405 672.5 405 c 128,-1,18
 751 405 751 405 790 350.5 c 128,-1,19
 829 296 829 296 829 198.5 c 128,-1,12
 829 101 829 101 790 46 c 128,-1,13
672 63 m 128,-1,21
 749 63 749 63 749 198.5 c 128,-1,22
 749 334 749 334 672 334 c 128,-1,23
 595 334 595 334 595 198.5 c 128,-1,20
 595 63 595 63 672 63 c 128,-1,21
266 -38 m 1,24,-1
 196 2 l 1,25,-1
 623 741 l 1,26,-1
 693 701 l 1,27,-1
 266 -38 l 1,24,-1
EndSplineSet
EndChar

StartChar: ampersand
Encoding: 38 38 9
Width: 715
GlyphClass: 2
Flags: W
LayerCount: 2
Fore
SplineSet
327 433 m 2,0,-1
 446 433 l 1,1,-1
 462 598 l 1,2,-1
 532 583 l 1,3,-1
 532 433 l 1,4,-1
 689 433 l 1,5,-1
 689 363 l 1,6,-1
 532 363 l 1,7,-1
 532 156 l 2,8,9
 532 69 532 69 607 69 c 0,10,11
 640 69 640 69 681 83 c 1,12,-1
 697 17 l 1,13,14
 642 -6 642 -6 581.5 -6 c 128,-1,15
 521 -6 521 -6 480 35 c 1,16,17
 393 -12 393 -12 287 -12 c 128,-1,18
 181 -12 181 -12 113.5 47 c 128,-1,19
 46 106 46 106 46 206 c 0,20,21
 46 349 46 349 178 399 c 1,22,23
 96 439 96 439 96 543 c 0,24,25
 96 618 96 618 153 667 c 128,-1,26
 210 716 210 716 296.5 716 c 128,-1,27
 383 716 383 716 447 681 c 1,28,-1
 417 611 l 1,29,30
 365 636 365 636 309.5 636 c 128,-1,31
 254 636 254 636 225 611.5 c 128,-1,32
 196 587 196 587 196 540 c 128,-1,33
 196 493 196 493 228 463 c 128,-1,34
 260 433 260 433 327 433 c 2,0,-1
438 151 m 2,35,-1
 438 363 l 1,36,-1
 318 363 l 2,37,38
 234 363 234 363 190 324 c 128,-1,39
 146 285 146 285 146 215 c 128,-1,40
 146 145 146 145 191 107 c 128,-1,41
 236 69 236 69 312.5 69 c 128,-1,42
 389 69 389 69 446 92 c 1,43,44
 438 119 438 119 438 151 c 2,35,-1
EndSplineSet
EndChar

StartChar: quotesingle
Encoding: 39 39 10
Width: 132
GlyphClass: 2
Flags: W
LayerCount: 2
Fore
SplineSet
30 542 m 1,0,-1
 30 759 l 1,1,-1
 102 759 l 1,2,-1
 102 542 l 1,3,-1
 30 542 l 1,0,-1
EndSplineSet
EndChar

StartChar: parenleft
Encoding: 40 40 11
Width: 295
GlyphClass: 2
Flags: W
LayerCount: 2
Fore
SplineSet
91.5 22.5 m 128,-1,1
 50 140 50 140 50 284.5 c 128,-1,2
 50 429 50 429 91.5 546 c 128,-1,3
 133 663 133 663 214 792 c 1,4,-1
 270 756 l 1,5,6
 205 637 205 637 172.5 529.5 c 128,-1,7
 140 422 140 422 140 286 c 128,-1,8
 140 150 140 150 172.5 43.5 c 128,-1,9
 205 -63 205 -63 270 -186 c 1,10,-1
 214 -222 l 1,11,0
 133 -95 133 -95 91.5 22.5 c 128,-1,1
EndSplineSet
EndChar

StartChar: parenright
Encoding: 41 41 12
Width: 295
GlyphClass: 2
Flags: W
LayerCount: 2
Fore
SplineSet
203.5 546 m 128,-1,1
 245 429 245 429 245 284.5 c 128,-1,2
 245 140 245 140 203.5 22.5 c 128,-1,3
 162 -95 162 -95 81 -222 c 1,4,-1
 25 -186 l 1,5,6
 90 -63 90 -63 122.5 43.5 c 128,-1,7
 155 150 155 150 155 286 c 128,-1,8
 155 422 155 422 122.5 529.5 c 128,-1,9
 90 637 90 637 25 756 c 1,10,-1
 81 792 l 1,11,0
 162 663 162 663 203.5 546 c 128,-1,1
EndSplineSet
EndChar

StartChar: asterisk
Encoding: 42 42 13
Width: 395
GlyphClass: 2
Flags: W
LayerCount: 2
Fore
SplineSet
125 396 m 1,0,-1
 64 439 l 1,1,-1
 168 545 l 1,2,-1
 30 573 l 1,3,-1
 51 644 l 1,4,-1
 178 580 l 1,5,-1
 160 720 l 1,6,-1
 235 720 l 1,7,-1
 214 581 l 1,8,-1
 343 641 l 1,9,-1
 365 573 l 1,10,-1
 225 547 l 1,11,-1
 325 440 l 1,12,-1
 264 396 l 1,13,-1
 195 528 l 1,14,-1
 125 396 l 1,0,-1
EndSplineSet
EndChar

StartChar: plus
Encoding: 43 43 14
Width: 640
GlyphClass: 2
Flags: W
LayerCount: 2
Fore
SplineSet
90 271 m 1,0,-1
 90 343 l 1,1,-1
 279 343 l 1,2,-1
 279 542 l 1,3,-1
 363 542 l 1,4,-1
 363 343 l 1,5,-1
 557 343 l 1,6,-1
 557 271 l 1,7,-1
 363 271 l 1,8,-1
 363 71 l 1,9,-1
 279 71 l 1,10,-1
 279 271 l 1,11,-1
 90 271 l 1,0,-1
EndSplineSet
EndChar

StartChar: comma
Encoding: 44 44 15
Width: 230
GlyphClass: 2
Flags: W
LayerCount: 2
Fore
SplineSet
65 0 m 1,0,-1
 65 100 l 1,1,-1
 165 100 l 1,2,-1
 165 20 l 1,3,-1
 146 -118 l 1,4,-1
 110 -118 l 1,5,-1
 110 0 l 1,6,-1
 65 0 l 1,0,-1
EndSplineSet
EndChar

StartChar: hyphen
Encoding: 45 45 16
Width: 467
GlyphClass: 2
Flags: W
LayerCount: 2
Fore
SplineSet
50 279 m 1,0,-1
 50 359 l 1,1,-1
 417 359 l 1,2,-1
 417 279 l 1,3,-1
 50 279 l 1,0,-1
EndSplineSet
EndChar

StartChar: period
Encoding: 46 46 17
Width: 230
GlyphClass: 2
Flags: W
LayerCount: 2
Fore
SplineSet
65 0 m 1,0,-1
 65 100 l 1,1,-1
 165 100 l 1,2,-1
 165 0 l 1,3,-1
 65 0 l 1,0,-1
EndSplineSet
EndChar

StartChar: slash
Encoding: 47 47 18
Width: 394
GlyphClass: 2
Flags: W
LayerCount: 2
Fore
SplineSet
22 -61 m 1,0,-1
 279 742 l 1,1,-1
 361 742 l 1,2,-1
 104 -61 l 1,3,-1
 22 -61 l 1,0,-1
EndSplineSet
EndChar

StartChar: zero
Encoding: 48 48 19
Width: 644
GlyphClass: 2
Flags: W
LayerCount: 2
Fore
SplineSet
320 -8 m 128,-1,1
 190 -8 190 -8 125.5 88 c 128,-1,2
 61 184 61 184 61 355 c 128,-1,3
 61 526 61 526 125 621 c 128,-1,4
 189 716 189 716 320 716 c 128,-1,5
 451 716 451 716 515 621 c 128,-1,6
 579 526 579 526 579 355 c 128,-1,7
 579 184 579 184 514.5 88 c 128,-1,0
 450 -8 450 -8 320 -8 c 128,-1,1
202.5 143.5 m 128,-1,9
 244 72 244 72 320.5 72 c 128,-1,10
 397 72 397 72 438 143.5 c 128,-1,11
 479 215 479 215 479 354.5 c 128,-1,12
 479 494 479 494 438 565 c 128,-1,13
 397 636 397 636 320.5 636 c 128,-1,14
 244 636 244 636 202.5 565 c 128,-1,15
 161 494 161 494 161 354.5 c 128,-1,8
 161 215 161 215 202.5 143.5 c 128,-1,9
EndSplineSet
EndChar

StartChar: one
Encoding: 49 49 20
Width: 523
GlyphClass: 2
Flags: W
LayerCount: 2
Fore
SplineSet
93 0 m 1,0,-1
 93 80 l 1,1,-1
 248 80 l 1,2,-1
 248 609 l 1,3,-1
 77 556 l 1,4,-1
 54 615 l 1,5,-1
 271 712 l 1,6,-1
 342 700 l 1,7,-1
 342 80 l 1,8,-1
 481 80 l 1,9,-1
 481 0 l 1,10,-1
 93 0 l 1,0,-1
EndSplineSet
EndChar

StartChar: two
Encoding: 50 50 21
Width: 587
GlyphClass: 2
Flags: W
LayerCount: 2
Fore
SplineSet
128 539 m 1,0,-1
 52 574 l 1,1,2
 78 641 78 641 140 678.5 c 128,-1,3
 202 716 202 716 288 716 c 0,4,5
 395 716 395 716 455 658 c 128,-1,6
 515 600 515 600 515 496 c 128,-1,7
 515 392 515 392 437.5 294 c 128,-1,8
 360 196 360 196 200 80 c 1,9,-1
 527 80 l 1,10,-1
 527 0 l 1,11,-1
 50 0 l 1,12,-1
 50 67 l 1,13,14
 247 207 247 207 331 302 c 128,-1,15
 415 397 415 397 415 492 c 0,16,17
 415 560 415 560 381 598 c 128,-1,18
 347 636 347 636 289 636 c 128,-1,19
 231 636 231 636 193 613 c 128,-1,20
 155 590 155 590 128 539 c 1,0,-1
EndSplineSet
EndChar

StartChar: three
Encoding: 51 51 22
Width: 577
GlyphClass: 2
Flags: W
LayerCount: 2
Fore
SplineSet
42 97 m 1,0,-1
 99 155 l 1,1,2
 143 107 143 107 180 88.5 c 128,-1,3
 217 70 217 70 278.5 70 c 128,-1,4
 340 70 340 70 379 104.5 c 128,-1,5
 418 139 418 139 418 203 c 0,6,7
 418 332 418 332 250 332 c 2,8,-1
 199 332 l 1,9,-1
 199 404 l 1,10,-1
 244 404 l 1,11,12
 321 405 321 405 362 438.5 c 128,-1,13
 403 472 403 472 403 535 c 0,14,15
 403 581 403 581 369 608.5 c 128,-1,16
 335 636 335 636 276.5 636 c 128,-1,17
 218 636 218 636 181.5 615 c 128,-1,18
 145 594 145 594 117 541 c 1,19,-1
 48 578 l 1,20,21
 73 637 73 637 133 676.5 c 128,-1,22
 193 716 193 716 287 716 c 128,-1,23
 381 716 381 716 442 667 c 128,-1,24
 503 618 503 618 503 535 c 0,25,26
 503 420 503 420 382 373 c 1,27,28
 518 332 518 332 518 194 c 0,29,30
 518 102 518 102 451.5 46 c 128,-1,31
 385 -10 385 -10 276 -10 c 0,32,33
 132 -10 132 -10 42 97 c 1,0,-1
EndSplineSet
EndChar

StartChar: four
Encoding: 52 52 23
Width: 624
GlyphClass: 2
Flags: W
LayerCount: 2
Fore
SplineSet
30 163 m 1,0,-1
 30 226 l 1,1,-1
 340 708 l 1,2,-1
 490 708 l 1,3,-1
 490 243 l 1,4,-1
 575 243 l 1,5,-1
 575 163 l 1,6,-1
 490 163 l 1,7,-1
 490 0 l 1,8,-1
 396 0 l 1,9,-1
 396 163 l 1,10,-1
 30 163 l 1,0,-1
146 243 m 1,11,-1
 396 243 l 1,12,-1
 396 644 l 1,13,-1
 146 243 l 1,11,-1
EndSplineSet
EndChar

StartChar: five
Encoding: 53 53 24
Width: 573
GlyphClass: 2
Flags: W
LayerCount: 2
Fore
SplineSet
138 341 m 1,0,-1
 83 367 l 1,1,-1
 117 708 l 1,2,-1
 481 708 l 1,3,-1
 471 628 l 1,4,-1
 199 628 l 1,5,-1
 178 418 l 1,6,7
 241 443 241 443 303 443 c 0,8,9
 399 443 399 443 462 384 c 128,-1,10
 525 325 525 325 525 220 c 128,-1,11
 525 115 525 115 450 53.5 c 128,-1,12
 375 -8 375 -8 272 -8 c 0,13,14
 207 -8 207 -8 147 16 c 128,-1,15
 87 40 87 40 46 86 c 1,16,-1
 106 148 l 1,17,18
 173 73 173 73 275 73 c 0,19,20
 338 73 338 73 381.5 112 c 128,-1,21
 425 151 425 151 425 224 c 128,-1,22
 425 297 425 297 381.5 332.5 c 128,-1,23
 338 368 338 368 272.5 368 c 128,-1,24
 207 368 207 368 138 341 c 1,0,-1
EndSplineSet
EndChar

StartChar: six
Encoding: 54 54 25
Width: 614
GlyphClass: 2
Flags: W
LayerCount: 2
Fore
SplineSet
531 675 m 1,0,-1
 492 608 l 1,1,2
 440 636 440 636 377 636 c 0,3,4
 277 636 277 636 226 571.5 c 128,-1,5
 175 507 175 507 169 374 c 1,6,7
 243 442 243 442 341.5 442 c 128,-1,8
 440 442 440 442 499.5 382 c 128,-1,9
 559 322 559 322 559 223 c 128,-1,10
 559 124 559 124 492.5 58 c 128,-1,11
 426 -8 426 -8 321 -8 c 0,12,13
 68 -8 68 -8 68 333 c 0,14,15
 68 521 68 521 146.5 618.5 c 128,-1,16
 225 716 225 716 376 716 c 0,17,18
 461 716 461 716 531 675 c 1,0,-1
327 362 m 0,19,20
 284 362 284 362 241.5 344.5 c 128,-1,21
 199 327 199 327 169 297 c 1,22,23
 173 180 173 180 209.5 127 c 128,-1,24
 246 74 246 74 322 74 c 0,25,26
 380 74 380 74 419.5 118 c 128,-1,27
 459 162 459 162 459 226 c 128,-1,28
 459 290 459 290 424 326 c 128,-1,29
 389 362 389 362 327 362 c 0,19,20
EndSplineSet
EndChar

StartChar: seven
Encoding: 55 55 26
Width: 517
GlyphClass: 2
Flags: W
LayerCount: 2
Fore
SplineSet
106 0 m 1,0,-1
 389 628 l 1,1,-1
 18 628 l 1,2,-1
 18 708 l 1,3,-1
 488 708 l 1,4,-1
 488 637 l 1,5,-1
 202 0 l 1,6,-1
 106 0 l 1,0,-1
EndSplineSet
EndChar

StartChar: eight
Encoding: 56 56 27
Width: 625
GlyphClass: 2
Flags: W
LayerCount: 2
Fore
SplineSet
62 194 m 0,0,1
 62 308 62 308 185 372 c 1,2,3
 88 426 88 426 88 535 c 0,4,5
 88 618 88 618 148.5 667 c 128,-1,6
 209 716 209 716 312 716 c 128,-1,7
 415 716 415 716 475.5 667 c 128,-1,8
 536 618 536 618 536 535 c 0,9,10
 536 439 536 439 423 374 c 1,11,12
 488 346 488 346 525 305 c 128,-1,13
 562 264 562 264 562 194 c 0,14,15
 562 103 562 103 494 46.5 c 128,-1,16
 426 -10 426 -10 312 -10 c 128,-1,17
 198 -10 198 -10 130 44.5 c 128,-1,18
 62 99 62 99 62 194 c 0,0,1
395 291 m 0,19,20
 363 306 363 306 316.5 321 c 128,-1,21
 270 336 270 336 256 341 c 1,22,23
 162 283 162 283 162 195 c 0,24,25
 162 136 162 136 204 100.5 c 128,-1,26
 246 65 246 65 314 65 c 128,-1,27
 382 65 382 65 422 100.5 c 128,-1,28
 462 136 462 136 462 197.5 c 128,-1,29
 462 259 462 259 395 291 c 0,19,20
304 418 m 0,30,31
 319 412 319 412 356 399 c 1,32,33
 399 430 399 430 417.5 462 c 128,-1,34
 436 494 436 494 436 539.5 c 128,-1,35
 436 585 436 585 403.5 613 c 128,-1,36
 371 641 371 641 312 641 c 128,-1,37
 253 641 253 641 220.5 613 c 128,-1,38
 188 585 188 585 188 539 c 128,-1,39
 188 493 188 493 216 466.5 c 128,-1,40
 244 440 244 440 304 418 c 0,30,31
EndSplineSet
EndChar

StartChar: nine
Encoding: 57 57 28
Width: 614
GlyphClass: 2
Flags: W
LayerCount: 2
Fore
SplineSet
83 33 m 1,0,-1
 122 100 l 1,1,2
 174 72 174 72 237 72 c 0,3,4
 336 72 336 72 387 136 c 128,-1,5
 438 200 438 200 445 333 c 1,6,7
 370 266 370 266 272 266 c 128,-1,8
 174 266 174 266 114.5 326 c 128,-1,9
 55 386 55 386 55 485 c 128,-1,10
 55 584 55 584 121.5 650 c 128,-1,11
 188 716 188 716 293 716 c 0,12,13
 546 716 546 716 546 375 c 0,14,15
 546 187 546 187 467.5 89.5 c 128,-1,16
 389 -8 389 -8 238 -8 c 0,17,18
 153 -8 153 -8 83 33 c 1,0,-1
287 346 m 0,19,20
 330 346 330 346 372.5 363 c 128,-1,21
 415 380 415 380 445 410 c 1,22,23
 441 527 441 527 404 580.5 c 128,-1,24
 367 634 367 634 292 634 c 0,25,26
 234 634 234 634 194.5 590 c 128,-1,27
 155 546 155 546 155 482 c 128,-1,28
 155 418 155 418 190 382 c 128,-1,29
 225 346 225 346 287 346 c 0,19,20
EndSplineSet
EndChar

StartChar: colon
Encoding: 58 58 29
Width: 250
GlyphClass: 2
Flags: W
LayerCount: 2
Fore
SplineSet
75 17 m 1,0,-1
 75 117 l 1,1,-1
 175 117 l 1,2,-1
 175 17 l 1,3,-1
 75 17 l 1,0,-1
75 361 m 1,4,-1
 75 461 l 1,5,-1
 175 461 l 1,6,-1
 175 361 l 1,7,-1
 75 361 l 1,4,-1
EndSplineSet
EndChar

StartChar: semicolon
Encoding: 59 59 30
Width: 241
GlyphClass: 2
Flags: W
LayerCount: 2
Fore
SplineSet
70 0 m 1,0,-1
 70 100 l 1,1,-1
 170 100 l 1,2,-1
 170 20 l 1,3,-1
 151 -118 l 1,4,-1
 115 -118 l 1,5,-1
 115 0 l 1,6,-1
 70 0 l 1,0,-1
71 320 m 1,7,-1
 71 420 l 1,8,-1
 171 420 l 1,9,-1
 171 320 l 1,10,-1
 71 320 l 1,7,-1
EndSplineSet
EndChar

StartChar: less
Encoding: 60 60 31
Width: 640
GlyphClass: 2
Flags: W
LayerCount: 2
Fore
SplineSet
60 275 m 1,0,-1
 60 330 l 1,1,-1
 554 546 l 1,2,-1
 554 460 l 1,3,-1
 194 302 l 1,4,-1
 554 145 l 1,5,-1
 554 59 l 1,6,-1
 60 275 l 1,0,-1
EndSplineSet
EndChar

StartChar: equal
Encoding: 61 61 32
Width: 640
GlyphClass: 2
Flags: W
LayerCount: 2
Fore
SplineSet
91 363 m 1,0,-1
 91 435 l 1,1,-1
 549 435 l 1,2,-1
 549 363 l 1,3,-1
 91 363 l 1,0,-1
91 149 m 1,4,-1
 91 221 l 1,5,-1
 549 221 l 1,6,-1
 549 149 l 1,7,-1
 91 149 l 1,4,-1
EndSplineSet
EndChar

StartChar: greater
Encoding: 62 62 33
Width: 640
GlyphClass: 2
Flags: W
LayerCount: 2
Fore
SplineSet
580 330 m 1,0,-1
 580 275 l 1,1,-1
 86 59 l 1,2,-1
 86 145 l 1,3,-1
 446 302 l 1,4,-1
 86 460 l 1,5,-1
 86 546 l 1,6,-1
 580 330 l 1,0,-1
EndSplineSet
EndChar

StartChar: question
Encoding: 63 63 34
Width: 480
GlyphClass: 2
Flags: W
LayerCount: 2
Fore
SplineSet
139 154 m 1,0,1
 139 274 139 274 178 336 c 0,2,3
 208 384 208 384 258 417 c 0,4,5
 279 431 279 431 296 446 c 0,6,7
 335 480 335 480 335 538 c 0,8,9
 335 578 335 578 305.5 606.5 c 128,-1,10
 276 635 276 635 217 635 c 128,-1,11
 158 635 158 635 78 609 c 1,12,-1
 65 695 l 1,13,14
 141 722 141 722 220 722 c 0,15,16
 322 722 322 722 377 667.5 c 128,-1,17
 432 613 432 613 432 538 c 0,18,19
 432 489 432 489 417 454 c 128,-1,20
 402 419 402 419 380 401.5 c 128,-1,21
 358 384 358 384 331.5 362.5 c 128,-1,22
 305 341 305 341 283 320 c 128,-1,23
 261 299 261 299 246 256.5 c 128,-1,24
 231 214 231 214 231 154 c 1,25,-1
 139 154 l 1,0,1
139 0 m 1,26,-1
 139 89 l 1,27,-1
 231 89 l 1,28,-1
 231 0 l 1,29,-1
 139 0 l 1,26,-1
EndSplineSet
EndChar

StartChar: at
Encoding: 64 64 35
Width: 1001
GlyphClass: 2
Flags: W
LayerCount: 2
Fore
SplineSet
673 -118 m 1,0,-1
 697 -190 l 1,1,2
 614 -224 614 -224 505 -224 c 0,3,4
 292 -224 292 -224 170.5 -104 c 128,-1,5
 49 16 49 16 49 226.5 c 128,-1,6
 49 437 49 437 185.5 575.5 c 128,-1,7
 322 714 322 714 524 714 c 128,-1,8
 726 714 726 714 840.5 606 c 128,-1,9
 955 498 955 498 955 318 c 0,10,11
 955 184 955 184 897.5 105.5 c 128,-1,12
 840 27 840 27 743 27 c 0,13,14
 694 27 694 27 656.5 53 c 128,-1,15
 619 79 619 79 605 121 c 1,16,17
 553 27 553 27 449 27 c 0,18,19
 380 27 380 27 338 73 c 128,-1,20
 296 119 296 119 296 197 c 0,21,22
 296 320 296 320 370 392.5 c 128,-1,23
 444 465 444 465 558 465 c 0,24,25
 620 465 620 465 686 441 c 1,26,-1
 665 283 l 2,27,28
 662 263 662 263 662 228 c 0,29,30
 662 105 662 105 748 105 c 0,31,32
 794 105 794 105 825.5 155 c 128,-1,33
 857 205 857 205 857 315 c 0,34,35
 857 463 857 463 775.5 549.5 c 128,-1,36
 694 636 694 636 530 636 c 128,-1,37
 366 636 366 636 256.5 515 c 128,-1,38
 147 394 147 394 147 225.5 c 128,-1,39
 147 57 147 57 244.5 -44.5 c 128,-1,40
 342 -146 342 -146 505 -146 c 0,41,42
 598 -146 598 -146 673 -118 c 1,0,-1
386 212 m 1,43,44
 386 161 386 161 406.5 133 c 128,-1,45
 427 105 427 105 467.5 105 c 128,-1,46
 508 105 508 105 540.5 145.5 c 128,-1,47
 573 186 573 186 583 252 c 2,48,-1
 602 383 l 1,49,50
 575 390 575 390 546 390 c 0,51,52
 476 390 476 390 433 342.5 c 128,-1,53
 390 295 390 295 386 212 c 1,43,44
EndSplineSet
EndChar

StartChar: A
Encoding: 65 65 36
Width: 639
GlyphClass: 2
Flags: W
LayerCount: 2
Fore
SplineSet
12 0 m 1,0,-1
 256 708 l 1,1,-1
 374 708 l 1,2,-1
 627 0 l 1,3,-1
 534 0 l 1,4,-1
 460 208 l 1,5,-1
 179 208 l 1,6,-1
 108 0 l 1,7,-1
 12 0 l 1,0,-1
317 609 m 1,8,-1
 207 288 l 1,9,-1
 431 288 l 1,10,-1
 317 609 l 1,8,-1
EndSplineSet
EndChar

StartChar: B
Encoding: 66 66 37
Width: 612
GlyphClass: 2
Flags: W
LayerCount: 2
Fore
SplineSet
85 0 m 1,0,-1
 85 708 l 1,1,-1
 294 708 l 2,2,3
 415 708 415 708 476 659 c 128,-1,4
 537 610 537 610 537 520 c 0,5,6
 537 413 537 413 429 372 c 1,7,8
 566 335 566 335 566 209 c 0,9,10
 566 111 566 111 503.5 55.5 c 128,-1,11
 441 0 441 0 323 0 c 2,12,-1
 85 0 l 1,0,-1
308 326 m 2,13,-1
 180 326 l 1,14,-1
 180 80 l 1,15,-1
 323 80 l 2,16,17
 392 80 392 80 429 113 c 128,-1,18
 466 146 466 146 466 209 c 0,19,20
 466 326 466 326 308 326 c 2,13,-1
180 628 m 1,21,-1
 180 406 l 1,22,-1
 294 406 l 2,23,24
 437 406 437 406 437 520 c 0,25,26
 437 628 437 628 294 628 c 2,27,-1
 180 628 l 1,21,-1
EndSplineSet
EndChar

StartChar: C
Encoding: 67 67 38
Width: 636
GlyphClass: 2
Flags: W
LayerCount: 2
Fore
SplineSet
50 355 m 128,-1,1
 50 531 50 531 132.5 623.5 c 128,-1,2
 215 716 215 716 366.5 716 c 128,-1,3
 518 716 518 716 596 613 c 1,4,-1
 530 559 l 1,5,6
 473 634 473 634 369 634 c 128,-1,7
 265 634 265 634 208.5 562.5 c 128,-1,8
 152 491 152 491 152 353 c 128,-1,9
 152 215 152 215 210.5 143 c 128,-1,10
 269 71 269 71 383 71 c 0,11,12
 461 71 461 71 552 118 c 1,13,-1
 580 43 l 1,14,15
 499 -9 499 -9 369 -9 c 0,16,17
 215 -9 215 -9 132.5 85 c 128,-1,0
 50 179 50 179 50 355 c 128,-1,1
EndSplineSet
EndChar

StartChar: D
Encoding: 68 68 39
Width: 684
GlyphClass: 2
Flags: W
LayerCount: 2
Fore
SplineSet
85 0 m 1,0,-1
 85 708 l 1,1,-1
 314 708 l 2,2,3
 471 708 471 708 555 615.5 c 128,-1,4
 639 523 639 523 639 355.5 c 128,-1,5
 639 188 639 188 554.5 94 c 128,-1,6
 470 0 470 0 314 0 c 2,7,-1
 85 0 l 1,0,-1
314 628 m 2,8,-1
 181 628 l 1,9,-1
 181 80 l 1,10,-1
 314 80 l 2,11,12
 422 80 422 80 480.5 149 c 128,-1,13
 539 218 539 218 539 355.5 c 128,-1,14
 539 493 539 493 480.5 560.5 c 128,-1,15
 422 628 422 628 314 628 c 2,8,-1
EndSplineSet
EndChar

StartChar: E
Encoding: 69 69 40
Width: 566
GlyphClass: 2
Flags: W
LayerCount: 2
Fore
SplineSet
85 0 m 1,0,-1
 85 708 l 1,1,-1
 506 708 l 1,2,-1
 506 627 l 1,3,-1
 180 627 l 1,4,-1
 180 412 l 1,5,-1
 473 412 l 1,6,-1
 473 330 l 1,7,-1
 180 330 l 1,8,-1
 180 83 l 1,9,-1
 517 83 l 1,10,-1
 517 0 l 1,11,-1
 85 0 l 1,0,-1
EndSplineSet
EndChar

StartChar: F
Encoding: 70 70 41
Width: 528
GlyphClass: 2
Flags: W
LayerCount: 2
Fore
SplineSet
85 0 m 1,0,-1
 85 708 l 1,1,-1
 506 708 l 1,2,-1
 506 627 l 1,3,-1
 180 627 l 1,4,-1
 180 412 l 1,5,-1
 470 412 l 1,6,-1
 470 330 l 1,7,-1
 180 330 l 1,8,-1
 180 0 l 1,9,-1
 85 0 l 1,0,-1
EndSplineSet
EndChar

StartChar: G
Encoding: 71 71 42
Width: 694
GlyphClass: 2
Flags: W
LayerCount: 2
Fore
SplineSet
50 355 m 128,-1,1
 50 531 50 531 132.5 623.5 c 128,-1,2
 215 716 215 716 373.5 716 c 128,-1,3
 532 716 532 716 616 613 c 1,4,-1
 551 559 l 1,5,6
 484 636 484 636 374.5 636 c 128,-1,7
 265 636 265 636 208.5 564 c 128,-1,8
 152 492 152 492 152 353.5 c 128,-1,9
 152 215 152 215 210.5 143 c 128,-1,10
 269 71 269 71 383 71 c 0,11,12
 456 71 456 71 523 94 c 1,13,-1
 523 347 l 1,14,-1
 619 347 l 1,15,-1
 619 48 l 1,16,17
 518 -9 518 -9 366.5 -9 c 128,-1,18
 215 -9 215 -9 132.5 85 c 128,-1,0
 50 179 50 179 50 355 c 128,-1,1
EndSplineSet
EndChar

StartChar: H
Encoding: 72 72 43
Width: 724
GlyphClass: 2
Flags: W
LayerCount: 2
Fore
SplineSet
85 0 m 1,0,-1
 85 708 l 1,1,-1
 181 708 l 1,2,-1
 181 407 l 1,3,-1
 543 407 l 1,4,-1
 543 708 l 1,5,-1
 639 708 l 1,6,-1
 639 0 l 1,7,-1
 543 0 l 1,8,-1
 543 327 l 1,9,-1
 181 327 l 1,10,-1
 181 0 l 1,11,-1
 85 0 l 1,0,-1
EndSplineSet
EndChar

StartChar: I
Encoding: 73 73 44
Width: 271
GlyphClass: 2
Flags: W
LayerCount: 2
Fore
SplineSet
88 0 m 1,0,-1
 88 711 l 1,1,-1
 183 711 l 1,2,-1
 183 0 l 1,3,-1
 88 0 l 1,0,-1
EndSplineSet
EndChar

StartChar: J
Encoding: 74 74 45
Width: 360
GlyphClass: 2
Flags: W
LayerCount: 2
Fore
SplineSet
22 -64 m 1,0,1
 28 -61 28 -61 39 -56 c 128,-1,2
 50 -51 50 -51 77 -33.5 c 128,-1,3
 104 -16 104 -16 125 3.5 c 128,-1,4
 146 23 146 23 163 55 c 128,-1,5
 180 87 180 87 180 121 c 2,6,-1
 180 627 l 1,7,-1
 41 627 l 1,8,-1
 41 708 l 1,9,-1
 274 708 l 1,10,-1
 274 121 l 2,11,12
 274 70 274 70 252.5 24.5 c 128,-1,13
 231 -21 231 -21 200 -50 c 0,14,15
 136 -108 136 -108 84 -130 c 2,16,-1
 63 -139 l 1,17,-1
 22 -64 l 1,0,1
EndSplineSet
EndChar

StartChar: K
Encoding: 75 75 46
Width: 637
GlyphClass: 2
Flags: W
LayerCount: 2
Fore
SplineSet
202 382 m 1,0,-1
 478 708 l 1,1,-1
 608 708 l 1,2,-1
 328 386 l 1,3,-1
 630 0 l 1,4,-1
 504 0 l 1,5,-1
 202 382 l 1,0,-1
85 0 m 1,6,-1
 85 708 l 1,7,-1
 180 708 l 1,8,-1
 180 0 l 1,9,-1
 85 0 l 1,6,-1
EndSplineSet
EndChar

StartChar: L
Encoding: 76 76 47
Width: 532
GlyphClass: 2
Flags: W
LayerCount: 2
Fore
SplineSet
85 0 m 1,0,-1
 85 708 l 1,1,-1
 180 708 l 1,2,-1
 180 83 l 1,3,-1
 504 83 l 1,4,-1
 504 0 l 1,5,-1
 85 0 l 1,0,-1
EndSplineSet
EndChar

StartChar: M
Encoding: 77 77 48
Width: 939
GlyphClass: 2
Flags: W
LayerCount: 2
Fore
SplineSet
156 0 m 1,0,-1
 65 0 l 1,1,-1
 155 708 l 1,2,-1
 274 708 l 1,3,-1
 469 138 l 1,4,-1
 665 708 l 1,5,-1
 784 708 l 1,6,-1
 874 0 l 1,7,-1
 783 0 l 1,8,-1
 709 579 l 1,9,-1
 518 0 l 1,10,-1
 421 0 l 1,11,-1
 229 579 l 1,12,-1
 156 0 l 1,0,-1
EndSplineSet
EndChar

StartChar: N
Encoding: 78 78 49
Width: 703
GlyphClass: 2
Flags: W
LayerCount: 2
Fore
SplineSet
83 0 m 1,0,-1
 83 708 l 1,1,-1
 195 708 l 1,2,-1
 427 333 l 1,3,4
 444 308 444 308 472 256.5 c 128,-1,5
 500 205 500 205 513 182 c 128,-1,6
 526 159 526 159 526 158 c 2,7,-1
 526 708 l 1,8,-1
 620 708 l 1,9,-1
 620 0 l 1,10,-1
 523 0 l 1,11,-1
 274 410 l 1,12,-1
 175 585 l 1,13,-1
 175 0 l 1,14,-1
 83 0 l 1,0,-1
EndSplineSet
EndChar

StartChar: O
Encoding: 79 79 50
Width: 750
GlyphClass: 2
Flags: W
LayerCount: 2
Fore
SplineSet
134.5 86 m 128,-1,1
 50 183 50 183 50 354.5 c 128,-1,2
 50 526 50 526 134 621 c 128,-1,3
 218 716 218 716 375 716 c 128,-1,4
 532 716 532 716 616 621 c 128,-1,5
 700 526 700 526 700 355 c 128,-1,6
 700 184 700 184 615 86.5 c 128,-1,7
 530 -11 530 -11 374.5 -11 c 128,-1,0
 219 -11 219 -11 134.5 86 c 128,-1,1
375 69 m 128,-1,9
 483 69 483 69 541.5 141.5 c 128,-1,10
 600 214 600 214 600 354.5 c 128,-1,11
 600 495 600 495 541.5 565.5 c 128,-1,12
 483 636 483 636 375 636 c 128,-1,13
 267 636 267 636 208.5 566 c 128,-1,14
 150 496 150 496 150 354.5 c 128,-1,15
 150 213 150 213 208.5 141 c 128,-1,8
 267 69 267 69 375 69 c 128,-1,9
EndSplineSet
EndChar

StartChar: P
Encoding: 80 80 51
Width: 584
GlyphClass: 2
Flags: W
LayerCount: 2
Fore
SplineSet
85 0 m 1,0,-1
 85 708 l 1,1,-1
 294 708 l 2,2,3
 415 708 415 708 476 653.5 c 128,-1,4
 537 599 537 599 537 500.5 c 128,-1,5
 537 402 537 402 474.5 346.5 c 128,-1,6
 412 291 412 291 294 291 c 2,7,-1
 181 291 l 1,8,-1
 181 0 l 1,9,-1
 85 0 l 1,0,-1
181 628 m 1,10,-1
 181 371 l 1,11,-1
 294 371 l 2,12,13
 363 371 363 371 400 404 c 128,-1,14
 437 437 437 437 437 500 c 128,-1,15
 437 563 437 563 400.5 595.5 c 128,-1,16
 364 628 364 628 294 628 c 2,17,-1
 181 628 l 1,10,-1
EndSplineSet
EndChar

StartChar: Q
Encoding: 81 81 52
Width: 750
GlyphClass: 2
Flags: W
LayerCount: 2
Fore
SplineSet
119 105 m 128,-1,1
 50 200 50 200 50 363 c 128,-1,2
 50 526 50 526 134 621 c 128,-1,3
 218 716 218 716 375 716 c 128,-1,4
 532 716 532 716 616 621 c 128,-1,5
 700 526 700 526 700 358 c 128,-1,6
 700 190 700 190 621.5 93.5 c 128,-1,7
 543 -3 543 -3 399 -10 c 1,8,9
 409 -65 409 -65 446.5 -96 c 128,-1,10
 484 -127 484 -127 528.5 -127 c 128,-1,11
 573 -127 573 -127 611 -114 c 1,12,-1
 639 -196 l 1,13,14
 584 -214 584 -214 532 -214 c 0,15,16
 444 -214 444 -214 386 -161 c 128,-1,17
 328 -108 328 -108 318 -7 c 1,18,0
 188 10 188 10 119 105 c 128,-1,1
375 69 m 128,-1,20
 483 69 483 69 541.5 141.5 c 128,-1,21
 600 214 600 214 600 354.5 c 128,-1,22
 600 495 600 495 541.5 565.5 c 128,-1,23
 483 636 483 636 375 636 c 128,-1,24
 267 636 267 636 208.5 566 c 128,-1,25
 150 496 150 496 150 354.5 c 128,-1,26
 150 213 150 213 208.5 141 c 128,-1,19
 267 69 267 69 375 69 c 128,-1,20
EndSplineSet
EndChar

StartChar: R
Encoding: 82 82 53
Width: 596
GlyphClass: 2
Flags: W
LayerCount: 2
Fore
SplineSet
572 0 m 1,0,-1
 467 0 l 1,1,-1
 295 291 l 1,2,-1
 181 291 l 1,3,-1
 181 0 l 1,4,-1
 85 0 l 1,5,-1
 85 708 l 1,6,-1
 294 708 l 2,7,8
 415 708 415 708 476 653.5 c 128,-1,9
 537 599 537 599 537 500 c 0,10,11
 537 425 537 425 500.5 374.5 c 128,-1,12
 464 324 464 324 393 304 c 1,13,-1
 572 0 l 1,0,-1
181 628 m 1,14,-1
 181 371 l 1,15,-1
 294 371 l 2,16,17
 363 371 363 371 400 404 c 128,-1,18
 437 437 437 437 437 500 c 128,-1,19
 437 563 437 563 400.5 595.5 c 128,-1,20
 364 628 364 628 294 628 c 2,21,-1
 181 628 l 1,14,-1
EndSplineSet
EndChar

StartChar: S
Encoding: 83 83 54
Width: 548
GlyphClass: 2
Flags: W
LayerCount: 2
Fore
SplineSet
47 31 m 1,0,-1
 74 110 l 1,1,2
 91 101 91 101 123 89.5 c 128,-1,3
 155 78 155 78 166.5 75 c 128,-1,4
 178 72 178 72 194 68 c 0,5,6
 222 62 222 62 257 62 c 0,7,8
 324 62 324 62 363 94.5 c 128,-1,9
 402 127 402 127 402 184 c 0,10,11
 402 242 402 242 358 269 c 0,12,13
 323 291 323 291 277 304.5 c 128,-1,14
 231 318 231 318 220 321.5 c 128,-1,15
 209 325 209 325 182 335.5 c 128,-1,16
 155 346 155 346 143 354 c 128,-1,17
 131 362 131 362 112 378 c 128,-1,18
 93 394 93 394 84 411 c 0,19,20
 62 456 62 456 62 507 c 0,21,22
 62 596 62 596 122.5 651 c 128,-1,23
 183 706 183 706 303 706 c 0,24,25
 385 706 385 706 478 667 c 1,26,-1
 455 590 l 1,27,28
 370 625 370 625 303.5 625 c 128,-1,29
 237 625 237 625 199.5 597 c 128,-1,30
 162 569 162 569 162 519 c 0,31,32
 162 463 162 463 204 436 c 0,33,34
 235 415 235 415 279.5 401.5 c 128,-1,35
 324 388 324 388 333.5 384.5 c 128,-1,36
 343 381 343 381 368 372 c 128,-1,37
 393 363 393 363 404 356 c 128,-1,38
 415 349 415 349 434 336.5 c 128,-1,39
 453 324 453 324 462 310 c 128,-1,40
 471 296 471 296 482 278 c 0,41,42
 501 246 501 246 501 184 c 0,43,44
 501 86 501 86 435.5 33.5 c 128,-1,45
 370 -19 370 -19 267.5 -19 c 128,-1,46
 165 -19 165 -19 47 31 c 1,0,-1
EndSplineSet
EndChar

StartChar: T
Encoding: 84 84 55
Width: 522
GlyphClass: 2
Flags: W
LayerCount: 2
Fore
SplineSet
219 0 m 1,0,-1
 219 628 l 1,1,-1
 0 628 l 1,2,-1
 0 708 l 1,3,-1
 522 708 l 1,4,-1
 522 628 l 1,5,-1
 315 628 l 1,6,-1
 315 0 l 1,7,-1
 219 0 l 1,0,-1
EndSplineSet
EndChar

StartChar: U
Encoding: 85 85 56
Width: 709
GlyphClass: 2
Flags: W
LayerCount: 2
Fore
SplineSet
78 225 m 2,0,-1
 78 708 l 1,1,-1
 174 708 l 1,2,-1
 174 230 l 2,3,4
 174 75 174 75 354.5 75 c 128,-1,5
 535 75 535 75 535 225 c 2,6,-1
 535 708 l 1,7,-1
 631 708 l 1,8,-1
 631 225 l 2,9,10
 631 114 631 114 562 53 c 128,-1,11
 493 -8 493 -8 354 -8 c 128,-1,12
 215 -8 215 -8 146.5 53 c 128,-1,13
 78 114 78 114 78 225 c 2,0,-1
EndSplineSet
EndChar

StartChar: V
Encoding: 86 86 57
Width: 631
GlyphClass: 2
Flags: W
LayerCount: 2
Fore
SplineSet
252 0 m 1,0,-1
 20 708 l 1,1,-1
 116 708 l 1,2,-1
 313 103 l 1,3,-1
 518 708 l 1,4,-1
 611 708 l 1,5,-1
 370 0 l 1,6,-1
 252 0 l 1,0,-1
EndSplineSet
EndChar

StartChar: W
Encoding: 87 87 58
Width: 1033
GlyphClass: 2
Flags: W
LayerCount: 2
Fore
SplineSet
362 0 m 1,0,-1
 217 0 l 1,1,-1
 28 707 l 1,2,-1
 125 707 l 1,3,-1
 291 88 l 1,4,-1
 454 707 l 1,5,-1
 579 707 l 1,6,-1
 742 86 l 1,7,-1
 909 707 l 1,8,-1
 1005 707 l 1,9,-1
 816 0 l 1,10,-1
 671 0 l 1,11,-1
 516 590 l 1,12,-1
 362 0 l 1,0,-1
EndSplineSet
EndChar

StartChar: X
Encoding: 88 88 59
Width: 646
GlyphClass: 2
Flags: W
LayerCount: 2
Fore
SplineSet
642 0 m 1,0,-1
 532 0 l 1,1,-1
 322 293 l 1,2,-1
 113 0 l 1,3,-1
 4 0 l 1,4,-1
 266 370 l 1,5,-1
 24 708 l 1,6,-1
 134 708 l 1,7,-1
 326 440 l 1,8,-1
 518 708 l 1,9,-1
 627 708 l 1,10,-1
 381 363 l 1,11,-1
 642 0 l 1,0,-1
EndSplineSet
EndChar

StartChar: Y
Encoding: 89 89 60
Width: 568
GlyphClass: 2
Flags: W
LayerCount: 2
Fore
SplineSet
236 0 m 1,0,-1
 236 298 l 1,1,-1
 2 708 l 1,2,-1
 107 708 l 1,3,-1
 284 391 l 1,4,-1
 462 708 l 1,5,-1
 566 708 l 1,6,-1
 331 298 l 1,7,-1
 331 0 l 1,8,-1
 236 0 l 1,0,-1
EndSplineSet
EndChar

StartChar: Z
Encoding: 90 90 61
Width: 563
GlyphClass: 2
Flags: W
LayerCount: 2
Fore
SplineSet
43 0 m 1,0,-1
 43 75 l 1,1,-1
 400 627 l 1,2,-1
 55 627 l 1,3,-1
 55 708 l 1,4,-1
 520 708 l 1,5,-1
 520 637 l 1,6,-1
 161 83 l 1,7,-1
 515 83 l 1,8,-1
 515 0 l 1,9,-1
 43 0 l 1,0,-1
EndSplineSet
EndChar

StartChar: bracketleft
Encoding: 91 91 62
Width: 318
GlyphClass: 2
Flags: W
LayerCount: 2
Fore
SplineSet
85 -193 m 1,0,-1
 85 774 l 1,1,-1
 298 774 l 1,2,-1
 298 702 l 1,3,-1
 169 702 l 1,4,-1
 169 -121 l 1,5,-1
 298 -121 l 1,6,-1
 298 -193 l 1,7,-1
 85 -193 l 1,0,-1
EndSplineSet
EndChar

StartChar: backslash
Encoding: 92 92 63
Width: 425
GlyphClass: 2
Flags: W
LayerCount: 2
Fore
SplineSet
356 -193 m 1,0,-1
 -20 803 l 1,1,-1
 71 803 l 1,2,-1
 445 -193 l 1,3,-1
 356 -193 l 1,0,-1
EndSplineSet
EndChar

StartChar: bracketright
Encoding: 93 93 64
Width: 318
GlyphClass: 2
Flags: W
LayerCount: 2
Fore
SplineSet
233 774 m 1,0,-1
 233 -193 l 1,1,-1
 20 -193 l 1,2,-1
 20 -121 l 1,3,-1
 149 -121 l 1,4,-1
 149 702 l 1,5,-1
 20 702 l 1,6,-1
 20 774 l 1,7,-1
 233 774 l 1,0,-1
EndSplineSet
EndChar

StartChar: asciicircum
Encoding: 94 94 65
Width: 673
GlyphClass: 2
Flags: W
LayerCount: 2
Fore
SplineSet
309 707 m 1,0,-1
 363 707 l 1,1,-1
 585 364 l 1,2,-1
 500 364 l 1,3,-1
 336 631 l 1,4,-1
 172 363 l 1,5,-1
 88 363 l 1,6,-1
 309 707 l 1,0,-1
EndSplineSet
EndChar

StartChar: underscore
Encoding: 95 95 66
Width: 510
GlyphClass: 2
Flags: W
LayerCount: 2
Fore
SplineSet
0 -50 m 1,0,-1
 510 -50 l 1,1,-1
 510 -132 l 1,2,-1
 0 -132 l 1,3,-1
 0 -50 l 1,0,-1
EndSplineSet
EndChar

StartChar: grave
Encoding: 96 96 67
Width: 233
GlyphClass: 2
Flags: W
LayerCount: 2
Fore
SplineSet
20 703 m 1,0,-1
 80 765 l 1,1,-1
 213 601 l 1,2,-1
 176 567 l 1,3,-1
 20 703 l 1,0,-1
EndSplineSet
EndChar

StartChar: a
Encoding: 97 97 68
Width: 544
GlyphClass: 2
Flags: W
LayerCount: 2
Fore
SplineSet
90 29 m 128,-1,1
 44 70 44 70 44 145.5 c 128,-1,2
 44 221 44 221 110 266 c 128,-1,3
 176 311 176 311 297 311 c 2,4,-1
 373 311 l 1,5,-1
 373 331 l 2,6,7
 373 395 373 395 346.5 422 c 128,-1,8
 320 449 320 449 253 449 c 128,-1,9
 186 449 186 449 101 412 c 1,10,-1
 73 477 l 1,11,12
 167 523 167 523 267 523 c 128,-1,13
 367 523 367 523 417 476.5 c 128,-1,14
 467 430 467 430 467 329 c 2,15,-1
 467 0 l 1,16,-1
 394 0 l 1,17,18
 390 24 390 24 381 60 c 1,19,20
 309 -12 309 -12 213 -12 c 0,21,0
 136 -12 136 -12 90 29 c 128,-1,1
138 141 m 0,22,23
 138 62 138 62 231 62 c 0,24,25
 271 62 271 62 309 80.5 c 128,-1,26
 347 99 347 99 373 131 c 1,27,-1
 373 241 l 1,28,-1
 303 241 l 2,29,30
 138 241 138 241 138 141 c 0,22,23
EndSplineSet
EndChar

StartChar: b
Encoding: 98 98 69
Width: 597
GlyphClass: 2
Flags: W
LayerCount: 2
Fore
SplineSet
85 33 m 1,0,-1
 85 759 l 1,1,-1
 179 759 l 1,2,-1
 179 458 l 1,3,4
 233 523 233 523 332.5 523 c 128,-1,5
 432 523 432 523 491.5 456.5 c 128,-1,6
 551 390 551 390 551 263.5 c 128,-1,7
 551 137 551 137 480.5 64.5 c 128,-1,8
 410 -8 410 -8 287 -8 c 0,9,10
 208 -8 208 -8 133 21 c 1,11,-1
 85 33 l 1,0,-1
419.5 401.5 m 128,-1,13
 384 449 384 449 325.5 449 c 128,-1,14
 267 449 267 449 230 421 c 128,-1,15
 193 393 193 393 179 343 c 1,16,-1
 179 81 l 1,17,18
 230 66 230 66 286 66 c 0,19,20
 365 66 365 66 410 118.5 c 128,-1,21
 455 171 455 171 455 262.5 c 128,-1,12
 455 354 455 354 419.5 401.5 c 128,-1,13
EndSplineSet
EndChar

StartChar: c
Encoding: 99 99 70
Width: 494
GlyphClass: 2
Flags: W
LayerCount: 2
Fore
SplineSet
46 258 m 128,-1,1
 46 382 46 382 108 452.5 c 128,-1,2
 170 523 170 523 289.5 523 c 128,-1,3
 409 523 409 523 470 438 c 1,4,-1
 407 391 l 1,5,6
 360 449 360 449 290.5 449 c 128,-1,7
 221 449 221 449 181.5 400.5 c 128,-1,8
 142 352 142 352 142 257.5 c 128,-1,9
 142 163 142 163 182.5 114.5 c 128,-1,10
 223 66 223 66 293.5 66 c 128,-1,11
 364 66 364 66 434 101 c 1,12,-1
 460 37 l 1,13,14
 386 -6 386 -6 291 -6 c 0,15,16
 170 -6 170 -6 108 64 c 128,-1,0
 46 134 46 134 46 258 c 128,-1,1
EndSplineSet
EndChar

StartChar: d
Encoding: 100 100 71
Width: 593
GlyphClass: 2
Flags: W
LayerCount: 2
Fore
SplineSet
105.5 58.5 m 128,-1,1
 46 125 46 125 46 251.5 c 128,-1,2
 46 378 46 378 116.5 450.5 c 128,-1,3
 187 523 187 523 310 523 c 0,4,5
 363 523 363 523 419 509 c 1,6,-1
 419 759 l 1,7,-1
 513 759 l 1,8,-1
 513 1 l 1,9,-1
 437 1 l 1,10,-1
 424 64 l 1,11,12
 368 -8 368 -8 266.5 -8 c 128,-1,0
 165 -8 165 -8 105.5 58.5 c 128,-1,1
177.5 113.5 m 128,-1,14
 213 66 213 66 271.5 66 c 128,-1,15
 330 66 330 66 367.5 95 c 128,-1,16
 405 124 405 124 419 175 c 1,17,-1
 419 434 l 1,18,19
 368 449 368 449 311 449 c 0,20,21
 232 449 232 449 187 396.5 c 128,-1,22
 142 344 142 344 142 252.5 c 128,-1,13
 142 161 142 161 177.5 113.5 c 128,-1,14
EndSplineSet
EndChar

StartChar: e
Encoding: 101 101 72
Width: 539
GlyphClass: 2
Flags: W
LayerCount: 2
Fore
SplineSet
46 258 m 128,-1,1
 46 384 46 384 109 453.5 c 128,-1,2
 172 523 172 523 287 523 c 0,3,4
 501 523 501 523 501 261 c 2,5,-1
 501 245 l 1,6,-1
 142 245 l 1,7,8
 144 158 144 158 183 112 c 128,-1,9
 222 66 222 66 294.5 66 c 128,-1,10
 367 66 367 66 454 105 c 1,11,-1
 481 41 l 1,12,13
 386 -8 386 -8 290 -8 c 0,14,15
 174 -8 174 -8 110 62 c 128,-1,0
 46 132 46 132 46 258 c 128,-1,1
287 449 m 0,16,17
 168 449 168 449 146 315 c 1,18,-1
 402 315 l 1,19,20
 395 384 395 384 367 416.5 c 128,-1,21
 339 449 339 449 287 449 c 0,16,17
EndSplineSet
EndChar

StartChar: f
Encoding: 102 102 73
Width: 377
GlyphClass: 2
Flags: W
LayerCount: 2
Fore
SplineSet
116 -156 m 1,0,-1
 116 442 l 1,1,-1
 26 442 l 1,2,-1
 26 514 l 1,3,-1
 116 514 l 1,4,-1
 116 590 l 2,5,6
 116 678 116 678 162 719 c 128,-1,7
 208 760 208 760 273.5 760 c 128,-1,8
 339 760 339 760 403 733 c 1,9,-1
 375 667 l 1,10,11
 329 685 329 685 290.5 685 c 128,-1,12
 252 685 252 685 231 662 c 128,-1,13
 210 639 210 639 210 597 c 2,14,-1
 210 514 l 1,15,-1
 368 514 l 1,16,-1
 368 442 l 1,17,-1
 210 442 l 1,18,-1
 210 -156 l 1,19,-1
 116 -156 l 1,0,-1
EndSplineSet
EndChar

StartChar: g
Encoding: 103 103 74
Width: 596
GlyphClass: 2
Flags: W
LayerCount: 2
Fore
SplineSet
105.5 58.5 m 128,-1,1
 46 125 46 125 46 251.5 c 128,-1,2
 46 378 46 378 116.5 450.5 c 128,-1,3
 187 523 187 523 310 523 c 0,4,5
 375 523 375 523 435 504 c 1,6,-1
 438 515 l 1,7,-1
 513 515 l 1,8,-1
 513 -30 l 2,9,10
 513 -251 513 -251 279 -251 c 0,11,12
 166 -251 166 -251 65 -199 c 1,13,-1
 97 -130 l 1,14,15
 151 -157 151 -157 190 -167 c 128,-1,16
 229 -177 229 -177 279 -177 c 0,17,18
 354 -177 354 -177 386.5 -143.5 c 128,-1,19
 419 -110 419 -110 419 -32 c 2,20,-1
 419 58 l 1,21,22
 364 -8 364 -8 264.5 -8 c 128,-1,0
 165 -8 165 -8 105.5 58.5 c 128,-1,1
177.5 113.5 m 128,-1,24
 213 66 213 66 271.5 66 c 128,-1,25
 330 66 330 66 367.5 95 c 128,-1,26
 405 124 405 124 419 175 c 1,27,-1
 419 434 l 1,28,29
 368 449 368 449 311 449 c 0,30,31
 232 449 232 449 187 396.5 c 128,-1,32
 142 344 142 344 142 252.5 c 128,-1,23
 142 161 142 161 177.5 113.5 c 128,-1,24
EndSplineSet
EndChar

StartChar: h
Encoding: 104 104 75
Width: 599
GlyphClass: 2
Flags: W
LayerCount: 2
Fore
SplineSet
85 0 m 1,0,-1
 85 759 l 1,1,-1
 179 759 l 1,2,-1
 179 449 l 1,3,4
 247 523 247 523 353 523 c 0,5,6
 435 523 435 523 478.5 476 c 128,-1,7
 522 429 522 429 522 340 c 2,8,-1
 522 0 l 1,9,-1
 428 0 l 1,10,-1
 428 333 l 2,11,12
 428 394 428 394 404.5 421.5 c 128,-1,13
 381 449 381 449 329 449 c 0,14,15
 231 449 231 449 179 368 c 1,16,-1
 179 0 l 1,17,-1
 85 0 l 1,0,-1
EndSplineSet
EndChar

StartChar: i
Encoding: 105 105 76
Width: 264
GlyphClass: 2
Flags: W
LayerCount: 2
Fore
SplineSet
86 621 m 1,0,-1
 86 708 l 1,1,-1
 178 708 l 1,2,-1
 178 621 l 1,3,-1
 86 621 l 1,0,-1
86 0 m 1,4,-1
 86 514 l 1,5,-1
 178 514 l 1,6,-1
 178 0 l 1,7,-1
 86 0 l 1,4,-1
EndSplineSet
EndChar

StartChar: j
Encoding: 106 106 77
Width: 266
GlyphClass: 2
Flags: W
LayerCount: 2
Fore
SplineSet
89 621 m 1,0,-1
 89 708 l 1,1,-1
 181 708 l 1,2,-1
 181 621 l 1,3,-1
 89 621 l 1,0,-1
89 85 m 2,4,-1
 89 514 l 1,5,-1
 181 514 l 1,6,-1
 181 85 l 2,7,8
 181 14 181 14 147.5 -50 c 128,-1,9
 114 -114 114 -114 38 -187 c 1,10,-1
 -12 -145 l 1,11,12
 89 -16 89 -16 89 85 c 2,4,-1
EndSplineSet
EndChar

StartChar: k
Encoding: 107 107 78
Width: 525
GlyphClass: 2
Flags: W
LayerCount: 2
Fore
SplineSet
85 0 m 1,0,-1
 85 759 l 1,1,-1
 179 759 l 1,2,-1
 179 0 l 1,3,-1
 85 0 l 1,0,-1
195 292 m 1,4,-1
 380 514 l 1,5,-1
 486 514 l 1,6,-1
 303 297 l 1,7,-1
 523 0 l 1,8,-1
 412 0 l 1,9,-1
 195 292 l 1,4,-1
EndSplineSet
EndChar

StartChar: l
Encoding: 108 108 79
Width: 264
GlyphClass: 2
Flags: W
LayerCount: 2
Fore
SplineSet
86 0 m 1,0,-1
 86 759 l 1,1,-1
 178 759 l 1,2,-1
 178 0 l 1,3,-1
 86 0 l 1,0,-1
EndSplineSet
EndChar

StartChar: m
Encoding: 109 109 80
Width: 928
GlyphClass: 2
Flags: W
LayerCount: 2
Fore
SplineSet
82 0 m 1,0,-1
 82 514 l 1,1,-1
 159 514 l 1,2,-1
 169 444 l 1,3,4
 236 523 236 523 339 523 c 0,5,6
 459 523 459 523 497 433 c 1,7,8
 566 523 566 523 676 523 c 0,9,10
 763 523 763 523 807 476.5 c 128,-1,11
 851 430 851 430 851 340 c 2,12,-1
 851 0 l 1,13,-1
 757 0 l 1,14,-1
 757 333 l 2,15,16
 757 394 757 394 733.5 421.5 c 128,-1,17
 710 449 710 449 658 449 c 0,18,19
 564 449 564 449 512 368 c 1,20,21
 514 350 514 350 514 340 c 2,22,-1
 514 0 l 1,23,-1
 420 0 l 1,24,-1
 420 333 l 2,25,26
 420 394 420 394 396.5 421.5 c 128,-1,27
 373 449 373 449 321 449 c 0,28,29
 227 449 227 449 176 369 c 1,30,-1
 176 0 l 1,31,-1
 82 0 l 1,0,-1
EndSplineSet
EndChar

StartChar: n
Encoding: 110 110 81
Width: 596
GlyphClass: 2
Flags: W
LayerCount: 2
Fore
SplineSet
82 0 m 1,0,-1
 82 514 l 1,1,-1
 159 514 l 1,2,-1
 169 442 l 1,3,4
 240 523 240 523 350 523 c 0,5,6
 432 523 432 523 475.5 476 c 128,-1,7
 519 429 519 429 519 340 c 2,8,-1
 519 0 l 1,9,-1
 425 0 l 1,10,-1
 425 333 l 2,11,12
 425 394 425 394 401.5 421.5 c 128,-1,13
 378 449 378 449 326 449 c 0,14,15
 228 449 228 449 176 368 c 1,16,-1
 176 0 l 1,17,-1
 82 0 l 1,0,-1
EndSplineSet
EndChar

StartChar: o
Encoding: 111 111 82
Width: 580
GlyphClass: 2
Flags: W
LayerCount: 2
Fore
SplineSet
46 258 m 128,-1,1
 46 383 46 383 109.5 453 c 128,-1,2
 173 523 173 523 290 523 c 128,-1,3
 407 523 407 523 470.5 453 c 128,-1,4
 534 383 534 383 534 258 c 128,-1,5
 534 133 534 133 470.5 62.5 c 128,-1,6
 407 -8 407 -8 290 -8 c 128,-1,7
 173 -8 173 -8 109.5 62.5 c 128,-1,0
 46 133 46 133 46 258 c 128,-1,1
142 258 m 128,-1,9
 142 164 142 164 180.5 115 c 128,-1,10
 219 66 219 66 290 66 c 128,-1,11
 361 66 361 66 399.5 115 c 128,-1,12
 438 164 438 164 438 258 c 128,-1,13
 438 352 438 352 399.5 400.5 c 128,-1,14
 361 449 361 449 290 449 c 128,-1,15
 219 449 219 449 180.5 400.5 c 128,-1,8
 142 352 142 352 142 258 c 128,-1,9
EndSplineSet
EndChar

StartChar: p
Encoding: 112 112 83
Width: 592
GlyphClass: 2
Flags: W
LayerCount: 2
Fore
SplineSet
487.5 456.5 m 128,-1,1
 547 390 547 390 547 263.5 c 128,-1,2
 547 137 547 137 476.5 64.5 c 128,-1,3
 406 -8 406 -8 283 -8 c 0,4,5
 227 -8 227 -8 176 5 c 1,6,-1
 176 -245 l 1,7,-1
 82 -245 l 1,8,-1
 82 514 l 1,9,-1
 158 514 l 1,10,-1
 170 451 l 1,11,12
 225 523 225 523 326.5 523 c 128,-1,0
 428 523 428 523 487.5 456.5 c 128,-1,1
415.5 401.5 m 128,-1,14
 380 449 380 449 322 449 c 128,-1,15
 264 449 264 449 227.5 422 c 128,-1,16
 191 395 191 395 176 347 c 1,17,-1
 176 80 l 1,18,19
 227 66 227 66 282 66 c 0,20,21
 361 66 361 66 406 118.5 c 128,-1,22
 451 171 451 171 451 262.5 c 128,-1,13
 451 354 451 354 415.5 401.5 c 128,-1,14
EndSplineSet
EndChar

StartChar: q
Encoding: 113 113 84
Width: 593
GlyphClass: 2
Flags: W
LayerCount: 2
Fore
SplineSet
48 243 m 128,-1,1
 48 369 48 369 119 446 c 128,-1,2
 190 523 190 523 306 523 c 128,-1,3
 422 523 422 523 508 485 c 1,4,-1
 508 -245 l 1,5,-1
 414 -245 l 1,6,-1
 414 53 l 1,7,8
 359 -8 359 -8 266 -8 c 128,-1,9
 173 -8 173 -8 110.5 54.5 c 128,-1,0
 48 117 48 117 48 243 c 128,-1,1
190 396 m 128,-1,11
 141 341 141 341 141 252 c 128,-1,12
 141 163 141 163 179 113.5 c 128,-1,13
 217 64 217 64 274 64 c 0,14,15
 370 64 370 64 414 166 c 1,16,-1
 414 436 l 1,17,18
 369 451 369 451 315 451 c 0,19,10
 239 451 239 451 190 396 c 128,-1,11
EndSplineSet
EndChar

StartChar: r
Encoding: 114 114 85
Width: 395
GlyphClass: 2
Flags: W
LayerCount: 2
Fore
SplineSet
85 0 m 1,0,-1
 85 514 l 1,1,-1
 161 514 l 1,2,-1
 172 443 l 1,3,4
 226 523 226 523 314 523 c 0,5,6
 342 523 342 523 380 513 c 1,7,-1
 365 429 l 1,8,9
 322 439 322 439 289 439 c 0,10,11
 220 439 220 439 179 367 c 1,12,-1
 179 0 l 1,13,-1
 85 0 l 1,0,-1
EndSplineSet
EndChar

StartChar: s
Encoding: 115 115 86
Width: 467
GlyphClass: 2
Flags: W
LayerCount: 2
Fore
SplineSet
50 30 m 1,0,-1
 79 106 l 1,1,2
 166 69 166 69 218 69 c 0,3,4
 320 69 320 69 320 144 c 0,5,6
 320 174 320 174 298 188 c 0,7,8
 273 204 273 204 247.5 213 c 128,-1,9
 222 222 222 222 215 225 c 128,-1,10
 208 228 208 228 189.5 234.5 c 128,-1,11
 171 241 171 241 162.5 244.5 c 128,-1,12
 154 248 154 248 138.5 256 c 128,-1,13
 123 264 123 264 115 270.5 c 128,-1,14
 107 277 107 277 96 288 c 128,-1,15
 85 299 85 299 80 311 c 0,16,17
 67 342 67 342 67 377 c 0,18,19
 67 439 67 439 115 481 c 128,-1,20
 163 523 163 523 256 523 c 0,21,22
 318 523 318 523 402 490 c 1,23,-1
 377 416 l 1,24,25
 303 445 303 445 256 445 c 128,-1,26
 209 445 209 445 185 426.5 c 128,-1,27
 161 408 161 408 161 378 c 0,28,29
 161 357 161 357 169.5 348 c 128,-1,30
 178 339 178 339 183 334.5 c 128,-1,31
 188 330 188 330 199.5 325 c 128,-1,32
 211 320 211 320 218 317 c 0,33,34
 238 308 238 308 253 303 c 128,-1,35
 268 298 268 298 289.5 290.5 c 128,-1,36
 311 283 311 283 320.5 279 c 128,-1,37
 330 275 330 275 348 266 c 128,-1,38
 366 257 366 257 375 247 c 128,-1,39
 384 237 384 237 394 223 c 0,40,41
 414 197 414 197 414 146 c 0,42,43
 414 72 414 72 361.5 31.5 c 128,-1,44
 309 -9 309 -9 225.5 -9 c 128,-1,45
 142 -9 142 -9 50 30 c 1,0,-1
EndSplineSet
EndChar

StartChar: t
Encoding: 116 116 87
Width: 403
GlyphClass: 2
Flags: W
LayerCount: 2
Fore
SplineSet
119 153 m 2,0,-1
 119 442 l 1,1,-1
 29 442 l 1,2,-1
 29 514 l 1,3,-1
 127 514 l 1,4,-1
 143 664 l 1,5,-1
 213 664 l 1,6,-1
 213 514 l 1,7,-1
 370 514 l 1,8,-1
 370 442 l 1,9,-1
 213 442 l 1,10,-1
 213 158 l 2,11,12
 213 69 213 69 288 69 c 0,13,14
 318 69 318 69 362 83 c 1,15,-1
 378 17 l 1,16,17
 323 -6 323 -6 263.5 -6 c 128,-1,18
 204 -6 204 -6 161.5 34 c 128,-1,19
 119 74 119 74 119 153 c 2,0,-1
EndSplineSet
EndChar

StartChar: u
Encoding: 117 117 88
Width: 596
GlyphClass: 2
Flags: W
LayerCount: 2
Fore
SplineSet
77 174 m 2,0,-1
 77 514 l 1,1,-1
 171 514 l 1,2,-1
 171 181 l 2,3,4
 171 120 171 120 194.5 92.5 c 128,-1,5
 218 65 218 65 270 65 c 0,6,7
 366 65 366 65 420 145 c 1,8,-1
 420 514 l 1,9,-1
 514 514 l 1,10,-1
 514 0 l 1,11,-1
 437 0 l 1,12,-1
 426 71 l 1,13,14
 359 -9 359 -9 252 -9 c 0,15,16
 165 -9 165 -9 121 37.5 c 128,-1,17
 77 84 77 84 77 174 c 2,0,-1
EndSplineSet
EndChar

StartChar: v
Encoding: 118 118 89
Width: 502
GlyphClass: 2
Flags: W
LayerCount: 2
Fore
SplineSet
193 0 m 1,0,-1
 11 514 l 1,1,-1
 108 514 l 1,2,-1
 255 84 l 1,3,-1
 401 514 l 1,4,-1
 492 514 l 1,5,-1
 312 0 l 1,6,-1
 193 0 l 1,0,-1
EndSplineSet
EndChar

StartChar: w
Encoding: 119 119 90
Width: 796
GlyphClass: 2
Flags: W
LayerCount: 2
Fore
SplineSet
172 0 m 1,0,-1
 28 514 l 1,1,-1
 122 514 l 1,2,-1
 237 90 l 1,3,-1
 349 514 l 1,4,-1
 443 514 l 1,5,-1
 558 90 l 1,6,-1
 674 514 l 1,7,-1
 768 514 l 1,8,-1
 624 0 l 1,9,-1
 498 0 l 1,10,-1
 396 385 l 1,11,-1
 296 0 l 1,12,-1
 172 0 l 1,0,-1
EndSplineSet
EndChar

StartChar: x
Encoding: 120 120 91
Width: 503
GlyphClass: 2
Flags: W
LayerCount: 2
Fore
SplineSet
9 0 m 1,0,-1
 196 266 l 1,1,-1
 22 514 l 1,2,-1
 131 514 l 1,3,-1
 255 339 l 1,4,-1
 378 514 l 1,5,-1
 479 514 l 1,6,-1
 305 267 l 1,7,-1
 494 0 l 1,8,-1
 384 0 l 1,9,-1
 247 194 l 1,10,-1
 111 0 l 1,11,-1
 9 0 l 1,0,-1
EndSplineSet
EndChar

StartChar: y
Encoding: 121 121 92
Width: 508
GlyphClass: 2
Flags: W
LayerCount: 2
Fore
SplineSet
193 0 m 1,0,-1
 11 514 l 1,1,-1
 108 514 l 1,2,-1
 258 78 l 1,3,-1
 407 514 l 1,4,-1
 498 514 l 1,5,-1
 233 -246 l 1,6,-1
 148 -246 l 1,7,-1
 232 0 l 1,8,-1
 193 0 l 1,0,-1
EndSplineSet
EndChar

StartChar: z
Encoding: 122 122 93
Width: 472
GlyphClass: 2
Flags: W
LayerCount: 2
Fore
SplineSet
56 440 m 1,0,-1
 56 514 l 1,1,-1
 426 514 l 1,2,-1
 426 457 l 1,3,-1
 154 74 l 1,4,-1
 437 74 l 1,5,-1
 437 0 l 1,6,-1
 42 0 l 1,7,-1
 42 60 l 1,8,-1
 312 440 l 1,9,-1
 56 440 l 1,0,-1
EndSplineSet
EndChar

StartChar: braceleft
Encoding: 123 123 94
Width: 344
GlyphClass: 2
Flags: W
LayerCount: 2
Fore
SplineSet
121 -21 m 2,0,-1
 121 115 l 2,1,2
 121 174 121 174 98.5 219 c 128,-1,3
 76 264 76 264 40 277 c 1,4,-1
 40 322 l 1,5,6
 121 355 121 355 121 477 c 2,7,-1
 121 602 l 2,8,9
 121 692 121 692 161.5 733 c 128,-1,10
 202 774 202 774 292 774 c 2,11,-1
 334 774 l 1,12,-1
 334 708 l 1,13,-1
 289 708 l 2,14,15
 245 708 245 708 225 688 c 128,-1,16
 205 668 205 668 205 623 c 2,17,-1
 205 449 l 2,18,19
 205 369 205 369 129 299 c 1,20,-1
 129 292 l 1,21,22
 205 217 205 217 205 145 c 2,23,-1
 205 -40 l 2,24,25
 205 -86 205 -86 225 -106.5 c 128,-1,26
 245 -127 245 -127 289 -127 c 2,27,-1
 334 -127 l 1,28,-1
 334 -193 l 1,29,-1
 288 -193 l 2,30,31
 197 -193 197 -193 159 -154 c 128,-1,32
 121 -115 121 -115 121 -21 c 2,0,-1
EndSplineSet
EndChar

StartChar: bar
Encoding: 124 124 95
Width: 254
GlyphClass: 2
Flags: W
LayerCount: 2
Fore
SplineSet
85 -193 m 1,0,-1
 85 774 l 1,1,-1
 169 774 l 1,2,-1
 169 -193 l 1,3,-1
 85 -193 l 1,0,-1
EndSplineSet
EndChar

StartChar: braceright
Encoding: 125 125 96
Width: 344
GlyphClass: 2
Flags: W
LayerCount: 2
Fore
SplineSet
223 115 m 2,0,-1
 223 -21 l 2,1,2
 223 -115 223 -115 185 -154 c 128,-1,3
 147 -193 147 -193 56 -193 c 2,4,-1
 10 -193 l 1,5,-1
 10 -127 l 1,6,-1
 55 -127 l 2,7,8
 99 -127 99 -127 119 -106.5 c 128,-1,9
 139 -86 139 -86 139 -40 c 2,10,-1
 139 145 l 2,11,12
 139 217 139 217 215 292 c 1,13,-1
 215 299 l 1,14,15
 139 369 139 369 139 449 c 2,16,-1
 139 623 l 2,17,18
 139 668 139 668 119 688 c 128,-1,19
 99 708 99 708 55 708 c 2,20,-1
 10 708 l 1,21,-1
 10 774 l 1,22,-1
 52 774 l 2,23,24
 142 774 142 774 182.5 733 c 128,-1,25
 223 692 223 692 223 602 c 2,26,-1
 223 477 l 2,27,28
 223 355 223 355 304 322 c 1,29,-1
 304 277 l 1,30,31
 268 264 268 264 245.5 219 c 128,-1,32
 223 174 223 174 223 115 c 2,0,-1
EndSplineSet
EndChar

StartChar: asciitilde
Encoding: 126 126 97
Width: 544
GlyphClass: 2
Flags: W
LayerCount: 2
Fore
SplineSet
268 416 m 0,0,1
 285 400 285 400 300 384 c 0,2,3
 335 345 335 345 368.5 345 c 128,-1,4
 402 345 402 345 420 369 c 128,-1,5
 438 393 438 393 438 434 c 1,6,-1
 519 434 l 1,7,8
 519 360 519 360 479.5 315.5 c 128,-1,9
 440 271 440 271 373 271 c 0,10,11
 334 271 334 271 303 288 c 128,-1,12
 272 305 272 305 255 326 c 0,13,14
 210 381 210 381 173 381 c 0,15,16
 99 381 99 381 99 292 c 1,17,-1
 18 292 l 1,18,19
 18 366 18 366 57.5 410.5 c 128,-1,20
 97 455 97 455 162 455 c 128,-1,21
 227 455 227 455 268 416 c 0,0,1
EndSplineSet
EndChar

StartChar: exclamdown
Encoding: 161 161 99
Width: 269
GlyphClass: 2
Flags: W
LayerCount: 2
Fore
SplineSet
86 -244 m 1,0,-1
 98 292 l 1,1,-1
 169 292 l 1,2,-1
 182 -244 l 1,3,-1
 86 -244 l 1,0,-1
88 384 m 1,4,-1
 88 476 l 1,5,-1
 181 476 l 1,6,-1
 181 384 l 1,7,-1
 88 384 l 1,4,-1
EndSplineSet
EndChar

StartChar: cent
Encoding: 162 162 100
Width: 494
GlyphClass: 2
Flags: W
LayerCount: 2
Fore
SplineSet
447 534 m 1,0,-1
 407 481 l 1,1,2
 357 516 357 516 289.5 516 c 128,-1,3
 222 516 222 516 185.5 471 c 128,-1,4
 149 426 149 426 149 342.5 c 128,-1,5
 149 259 149 259 186.5 215 c 128,-1,6
 224 171 224 171 291.5 171 c 128,-1,7
 359 171 359 171 423 204 c 1,8,-1
 447 137 l 1,9,10
 395 107 395 107 324 99 c 1,11,-1
 324 0 l 1,12,-1
 240 0 l 1,13,-1
 240 100 l 1,14,15
 149 113 149 113 101 176 c 128,-1,16
 53 239 53 239 53 343.5 c 128,-1,17
 53 448 53 448 101 510 c 128,-1,18
 149 572 149 572 240 586 c 1,19,-1
 240 707 l 1,20,-1
 324 707 l 1,21,-1
 324 588 l 1,22,23
 402 579 402 579 447 534 c 1,0,-1
EndSplineSet
EndChar

StartChar: sterling
Encoding: 163 163 101
Width: 543
GlyphClass: 2
Flags: W
LayerCount: 2
Fore
SplineSet
517 610 m 1,0,-1
 446 575 l 1,1,2
 425 636 425 636 340 636 c 0,3,4
 282 636 282 636 248.5 604.5 c 128,-1,5
 215 573 215 573 215 519 c 0,6,7
 215 482 215 482 229.5 441.5 c 128,-1,8
 244 401 244 401 248 389 c 1,9,-1
 407 389 l 1,10,-1
 407 317 l 1,11,-1
 259 317 l 1,12,13
 260 310 260 310 260 297 c 0,14,15
 260 234 260 234 231 172.5 c 128,-1,16
 202 111 202 111 163 80 c 1,17,-1
 512 80 l 1,18,-1
 512 0 l 1,19,-1
 73 0 l 1,20,-1
 73 74 l 1,21,22
 160 162 160 162 160 297 c 0,23,24
 160 310 160 310 159 317 c 1,25,-1
 61 317 l 1,26,-1
 61 389 l 1,27,-1
 149 389 l 1,28,29
 147 397 147 397 138 426 c 0,30,31
 121 478 121 478 121 523 c 0,32,33
 121 612 121 612 180.5 664 c 128,-1,34
 240 716 240 716 340 716 c 0,35,36
 406 716 406 716 452 688 c 128,-1,37
 498 660 498 660 517 610 c 1,0,-1
EndSplineSet
EndChar

StartChar: currency
Encoding: 164 164 102
Width: 739
GlyphClass: 2
Flags: W
LayerCount: 2
Fore
SplineSet
88 102 m 1,0,-1
 215 229 l 1,1,2
 189 271 189 271 189 321 c 128,-1,3
 189 371 189 371 217 413 c 1,4,-1
 88 542 l 1,5,-1
 150 603 l 1,6,-1
 278 474 l 1,7,8
 322 502 322 502 370 502 c 128,-1,9
 418 502 418 502 462 475 c 1,10,-1
 590 603 l 1,11,-1
 651 544 l 1,12,-1
 523 414 l 1,13,14
 551 365 551 365 551 319.5 c 128,-1,15
 551 274 551 274 523 229 c 1,16,-1
 651 101 l 1,17,-1
 591 41 l 1,18,-1
 462 169 l 1,19,20
 417 141 417 141 371 141 c 128,-1,21
 325 141 325 141 276 169 c 1,22,-1
 148 39 l 1,23,-1
 88 102 l 1,0,-1
301 394 m 128,-1,25
 272 363 272 363 272 321.5 c 128,-1,26
 272 280 272 280 300.5 249 c 128,-1,27
 329 218 329 218 369 218 c 128,-1,28
 409 218 409 218 438.5 249 c 128,-1,29
 468 280 468 280 468 321 c 128,-1,30
 468 362 468 362 438 393.5 c 128,-1,31
 408 425 408 425 369 425 c 128,-1,24
 330 425 330 425 301 394 c 128,-1,25
EndSplineSet
EndChar

StartChar: yen
Encoding: 165 165 103
Width: 574
GlyphClass: 2
Flags: W
LayerCount: 2
Fore
SplineSet
62 296 m 1,0,-1
 62 368 l 1,1,-1
 213 368 l 1,2,-1
 35 708 l 1,3,-1
 143 708 l 1,4,-1
 290 411 l 1,5,-1
 438 708 l 1,6,-1
 539 708 l 1,7,-1
 360 368 l 1,8,-1
 509 368 l 1,9,-1
 509 296 l 1,10,-1
 334 296 l 1,11,-1
 334 202 l 1,12,-1
 509 202 l 1,13,-1
 509 130 l 1,14,-1
 334 130 l 1,15,-1
 334 0 l 1,16,-1
 239 0 l 1,17,-1
 239 130 l 1,18,-1
 62 130 l 1,19,-1
 62 202 l 1,20,-1
 239 202 l 1,21,-1
 239 296 l 1,22,-1
 62 296 l 1,0,-1
EndSplineSet
EndChar

StartChar: brokenbar
Encoding: 166 166 104
Width: 254
GlyphClass: 2
Flags: W
LayerCount: 2
Fore
SplineSet
169 397 m 1,0,-1
 85 397 l 1,1,-1
 85 774 l 1,2,-1
 169 774 l 1,3,-1
 169 397 l 1,0,-1
85 200 m 1,4,-1
 169 200 l 1,5,-1
 169 -193 l 1,6,-1
 85 -193 l 1,7,-1
 85 200 l 1,4,-1
EndSplineSet
EndChar

StartChar: section
Encoding: 167 167 105
Width: 457
GlyphClass: 2
Flags: W
LayerCount: 2
Fore
SplineSet
95 -177 m 1,0,-1
 105 -106 l 1,1,2
 138 -115 138 -115 178 -115 c 0,3,4
 267 -115 267 -115 267 -30 c 0,5,6
 267 23 267 23 190 90 c 0,7,8
 158 117 158 117 126.5 147 c 128,-1,9
 95 177 95 177 72.5 218 c 128,-1,10
 50 259 50 259 50 306 c 0,11,12
 50 416 50 416 144 476 c 1,13,14
 89 540 89 540 89 609 c 128,-1,15
 89 678 89 678 133 725 c 128,-1,16
 177 772 177 772 266 772 c 0,17,18
 313 772 313 772 362 758 c 1,19,20
 358 722 358 722 352 688 c 1,21,22
 314 697 314 697 279 697 c 0,23,24
 189 697 189 697 189 612 c 0,25,26
 189 561 189 561 266 492 c 0,27,28
 298 464 298 464 330 433 c 128,-1,29
 362 402 362 402 384.5 360.5 c 128,-1,30
 407 319 407 319 407 274 c 0,31,32
 407 165 407 165 313 105 c 1,33,34
 367 41 367 41 367 -28.5 c 128,-1,35
 367 -98 367 -98 323 -144.5 c 128,-1,36
 279 -191 279 -191 191 -191 c 0,37,38
 149 -191 149 -191 95 -177 c 1,0,-1
176 444 m 1,39,40
 134 389 134 389 134 331 c 0,41,42
 134 285 134 285 175 239 c 0,43,44
 209 201 209 201 281 137 c 1,45,46
 323 191 323 191 323 242.5 c 128,-1,47
 323 294 323 294 290.5 333 c 128,-1,48
 258 372 258 372 176 444 c 1,39,40
EndSplineSet
EndChar

StartChar: dieresis
Encoding: 168 168 106
Width: 314
GlyphClass: 2
Flags: W
LayerCount: 2
Fore
SplineSet
20 716 m 1,0,-1
 113 716 l 1,1,-1
 113 623 l 1,2,-1
 20 623 l 1,3,-1
 20 716 l 1,0,-1
202 716 m 1,4,-1
 294 716 l 1,5,-1
 294 623 l 1,6,-1
 202 623 l 1,7,-1
 202 716 l 1,4,-1
EndSplineSet
EndChar

StartChar: copyright
Encoding: 169 169 107
Width: 611
GlyphClass: 2
Flags: W
LayerCount: 2
Fore
SplineSet
113.5 144.5 m 128,-1,1
 35 223 35 223 35 335.5 c 128,-1,2
 35 448 35 448 114 526.5 c 128,-1,3
 193 605 193 605 306 605 c 128,-1,4
 419 605 419 605 497.5 527.5 c 128,-1,5
 576 450 576 450 576 337.5 c 128,-1,6
 576 225 576 225 497 145.5 c 128,-1,7
 418 66 418 66 305 66 c 128,-1,0
 192 66 192 66 113.5 144.5 c 128,-1,1
159.5 485.5 m 128,-1,9
 99 424 99 424 99 337.5 c 128,-1,10
 99 251 99 251 159.5 188.5 c 128,-1,11
 220 126 220 126 306 126 c 128,-1,12
 392 126 392 126 452.5 187.5 c 128,-1,13
 513 249 513 249 513 336 c 128,-1,14
 513 423 513 423 452.5 485 c 128,-1,15
 392 547 392 547 306 547 c 128,-1,8
 220 547 220 547 159.5 485.5 c 128,-1,9
177 337 m 128,-1,17
 177 401 177 401 214 436.5 c 128,-1,18
 251 472 251 472 311.5 472 c 128,-1,19
 372 472 372 472 407 427 c 1,20,-1
 371 391 l 1,21,22
 347 421 347 421 313 421 c 128,-1,23
 279 421 279 421 260 399.5 c 128,-1,24
 241 378 241 378 241 337 c 0,25,26
 241 252 241 252 316 252 c 0,27,28
 348 252 348 252 384 271 c 1,29,-1
 400 224 l 1,30,31
 364 201 364 201 307.5 201 c 128,-1,32
 251 201 251 201 214 237 c 128,-1,16
 177 273 177 273 177 337 c 128,-1,17
EndSplineSet
EndChar

StartChar: ordfeminine
Encoding: 170 170 108
Width: 358
GlyphClass: 2
Flags: W
LayerCount: 2
Fore
SplineSet
59 397.5 m 128,-1,1
 28 425 28 425 28 476.5 c 128,-1,2
 28 528 28 528 71.5 558 c 128,-1,3
 115 588 115 588 195 588 c 2,4,-1
 233 588 l 1,5,-1
 233 593 l 2,6,7
 233 630 233 630 218.5 645 c 128,-1,8
 204 660 204 660 166.5 660 c 128,-1,9
 129 660 129 660 67 634 c 1,10,-1
 44 688 l 1,11,12
 110 721 110 721 176.5 721 c 128,-1,13
 243 721 243 721 276.5 690 c 128,-1,14
 310 659 310 659 310 592 c 2,15,-1
 310 378 l 1,16,-1
 252 378 l 1,17,-1
 242 407 l 1,18,19
 199 370 199 370 144.5 370 c 128,-1,0
 90 370 90 370 59 397.5 c 128,-1,1
104 474 m 0,20,21
 104 431 104 431 152 431 c 128,-1,22
 200 431 200 431 233 470 c 1,23,-1
 233 534 l 1,24,-1
 198 534 l 2,25,26
 104 534 104 534 104 474 c 0,20,21
EndSplineSet
EndChar

StartChar: guillemotleft
Encoding: 171 171 109
Width: 611
GlyphClass: 2
Flags: W
LayerCount: 2
Fore
SplineSet
305 261 m 1,0,-1
 458 499 l 1,1,-1
 527 448 l 1,2,-1
 403 261 l 1,3,-1
 526 77 l 1,4,-1
 457 24 l 1,5,-1
 305 261 l 1,0,-1
221 24 m 1,6,-1
 69 261 l 1,7,-1
 222 499 l 1,8,-1
 292 448 l 1,9,-1
 168 261 l 1,10,-1
 290 77 l 1,11,-1
 221 24 l 1,6,-1
EndSplineSet
EndChar

StartChar: logicalnot
Encoding: 172 172 110
Width: 640
GlyphClass: 2
Flags: W
LayerCount: 2
Fore
SplineSet
89 363 m 1,0,-1
 89 435 l 1,1,-1
 547 435 l 1,2,-1
 547 190 l 1,3,-1
 469 190 l 1,4,-1
 469 363 l 1,5,-1
 89 363 l 1,0,-1
EndSplineSet
EndChar

StartChar: uni00AD
Encoding: 173 173 111
Width: 467
GlyphClass: 2
Flags: W
LayerCount: 2
Fore
SplineSet
50 279 m 1,0,-1
 50 359 l 1,1,-1
 417 359 l 1,2,-1
 417 279 l 1,3,-1
 50 279 l 1,0,-1
EndSplineSet
EndChar

StartChar: registered
Encoding: 174 174 112
Width: 611
GlyphClass: 2
Flags: W
LayerCount: 2
Fore
SplineSet
419 333 m 1,0,-1
 375 309 l 1,1,-1
 307 423 l 1,2,-1
 268 423 l 1,3,-1
 268 315 l 1,4,-1
 217 315 l 1,5,-1
 217 594 l 1,6,-1
 310 594 l 2,7,8
 360 594 360 594 385 571.5 c 128,-1,9
 410 549 410 549 410 509 c 0,10,11
 410 450 410 450 359 431 c 1,12,-1
 419 333 l 1,0,-1
268 549 m 1,13,-1
 268 468 l 1,14,-1
 310 468 l 2,15,16
 357 468 357 468 357 508.5 c 128,-1,17
 357 549 357 549 310 549 c 2,18,-1
 268 549 l 1,13,-1
113.5 256.5 m 128,-1,20
 35 335 35 335 35 447.5 c 128,-1,21
 35 560 35 560 114 638.5 c 128,-1,22
 193 717 193 717 306 717 c 128,-1,23
 419 717 419 717 497.5 639.5 c 128,-1,24
 576 562 576 562 576 449.5 c 128,-1,25
 576 337 576 337 497 257.5 c 128,-1,26
 418 178 418 178 305 178 c 128,-1,19
 192 178 192 178 113.5 256.5 c 128,-1,20
159.5 597.5 m 128,-1,28
 99 536 99 536 99 449.5 c 128,-1,29
 99 363 99 363 159.5 300.5 c 128,-1,30
 220 238 220 238 306 238 c 128,-1,31
 392 238 392 238 452.5 299.5 c 128,-1,32
 513 361 513 361 513 448 c 128,-1,33
 513 535 513 535 452.5 597 c 128,-1,34
 392 659 392 659 306 659 c 128,-1,27
 220 659 220 659 159.5 597.5 c 128,-1,28
EndSplineSet
EndChar

StartChar: macron
Encoding: 175 175 113
Width: 344
GlyphClass: 2
Flags: W
LayerCount: 2
Fore
SplineSet
20 684 m 1,0,-1
 324 684 l 1,1,-1
 324 614 l 1,2,-1
 20 614 l 1,3,-1
 20 684 l 1,0,-1
EndSplineSet
EndChar

StartChar: degree
Encoding: 176 176 114
Width: 482
GlyphClass: 2
Flags: W
LayerCount: 2
Fore
SplineSet
254 378 m 128,-1,1
 185 378 185 378 136.5 426.5 c 128,-1,2
 88 475 88 475 88 544 c 128,-1,3
 88 613 88 613 136.5 660.5 c 128,-1,4
 185 708 185 708 254 708 c 128,-1,5
 323 708 323 708 370.5 660.5 c 128,-1,6
 418 613 418 613 418 544 c 128,-1,7
 418 475 418 475 370.5 426.5 c 128,-1,0
 323 378 323 378 254 378 c 128,-1,1
254 457 m 128,-1,9
 287 457 287 457 310.5 482.5 c 128,-1,10
 334 508 334 508 334 544 c 128,-1,11
 334 580 334 580 310.5 605 c 128,-1,12
 287 630 287 630 254 630 c 128,-1,13
 221 630 221 630 197 605 c 128,-1,14
 173 580 173 580 173 544 c 128,-1,15
 173 508 173 508 197 482.5 c 128,-1,8
 221 457 221 457 254 457 c 128,-1,9
EndSplineSet
EndChar

StartChar: plusminus
Encoding: 177 177 115
Width: 640
GlyphClass: 2
Flags: W
LayerCount: 2
Fore
SplineSet
86 320 m 1,0,-1
 86 392 l 1,1,-1
 275 392 l 1,2,-1
 275 581 l 1,3,-1
 359 581 l 1,4,-1
 359 392 l 1,5,-1
 553 392 l 1,6,-1
 553 320 l 1,7,-1
 359 320 l 1,8,-1
 359 130 l 1,9,-1
 275 130 l 1,10,-1
 275 320 l 1,11,-1
 86 320 l 1,0,-1
86 0 m 1,12,-1
 86 72 l 1,13,-1
 553 72 l 1,14,-1
 553 0 l 1,15,-1
 86 0 l 1,12,-1
EndSplineSet
EndChar

StartChar: twosuperior
Encoding: 178 178 116
Width: 368
GlyphClass: 2
Flags: W
LayerCount: 2
Fore
SplineSet
98 687 m 1,0,-1
 36 716 l 1,1,2
 53 762 53 762 92.5 787 c 128,-1,3
 132 812 132 812 192 812 c 128,-1,4
 252 812 252 812 289.5 776 c 128,-1,5
 327 740 327 740 327 678 c 128,-1,6
 327 616 327 616 287 560.5 c 128,-1,7
 247 505 247 505 164 443 c 1,8,-1
 337 443 l 1,9,-1
 337 378 l 1,10,-1
 37 378 l 1,11,-1
 37 430 l 1,12,13
 151 512 151 512 199 566 c 128,-1,14
 247 620 247 620 247 673 c 0,15,16
 247 708 247 708 230.5 727.5 c 128,-1,17
 214 747 214 747 185 747 c 0,18,19
 131 747 131 747 98 687 c 1,0,-1
EndSplineSet
EndChar

StartChar: threesuperior
Encoding: 179 179 117
Width: 370
GlyphClass: 2
Flags: W
LayerCount: 2
Fore
SplineSet
32 444 m 1,0,-1
 79 492 l 1,1,2
 107 461 107 461 128.5 449 c 128,-1,3
 150 437 150 437 181 437 c 128,-1,4
 212 437 212 437 232 454.5 c 128,-1,5
 252 472 252 472 252 504 c 0,6,7
 252 571 252 571 166 571 c 2,8,-1
 125 571 l 1,9,-1
 125 631 l 1,10,-1
 162 631 l 1,11,12
 200 632 200 632 221.5 649.5 c 128,-1,13
 243 667 243 667 243 693.5 c 128,-1,14
 243 720 243 720 226.5 733.5 c 128,-1,15
 210 747 210 747 180.5 747 c 128,-1,16
 151 747 151 747 131.5 734 c 128,-1,17
 112 721 112 721 94 688 c 1,18,-1
 36 719 l 1,19,20
 53 759 53 759 91.5 785.5 c 128,-1,21
 130 812 130 812 188.5 812 c 128,-1,22
 247 812 247 812 285 781 c 128,-1,23
 323 750 323 750 323 693 c 128,-1,24
 323 636 323 636 267 605 c 1,25,26
 331 577 331 577 331 500 c 0,27,28
 331 442 331 442 290 407 c 128,-1,29
 249 372 249 372 181 372 c 0,30,31
 93 372 93 372 32 444 c 1,0,-1
EndSplineSet
EndChar

StartChar: acute
Encoding: 180 180 118
Width: 233
GlyphClass: 2
Flags: W
LayerCount: 2
Fore
SplineSet
20 601 m 1,0,-1
 153 765 l 1,1,-1
 213 703 l 1,2,-1
 57 567 l 1,3,-1
 20 601 l 1,0,-1
EndSplineSet
EndChar

StartChar: paragraph
Encoding: 182 182 119
Width: 517
GlyphClass: 2
Flags: W
LayerCount: 2
Fore
SplineSet
240 -192 m 1,0,-1
 240 337 l 1,1,2
 152 337 152 337 98.5 388 c 128,-1,3
 45 439 45 439 45 524.5 c 128,-1,4
 45 610 45 610 96.5 659 c 128,-1,5
 148 708 148 708 240 708 c 2,6,-1
 432 708 l 1,7,-1
 432 -192 l 1,8,-1
 367 -192 l 1,9,-1
 367 653 l 1,10,-1
 305 653 l 1,11,-1
 305 -192 l 1,12,-1
 240 -192 l 1,0,-1
EndSplineSet
EndChar

StartChar: periodcentered
Encoding: 183 183 120
Width: 276
GlyphClass: 2
Flags: W
LayerCount: 2
Fore
SplineSet
88 251 m 1,0,-1
 88 351 l 1,1,-1
 188 351 l 1,2,-1
 188 251 l 1,3,-1
 88 251 l 1,0,-1
EndSplineSet
EndChar

StartChar: cedilla
Encoding: 184 184 121
Width: 232
GlyphClass: 2
Flags: W
LayerCount: 2
Fore
SplineSet
86 0 m 1,0,-1
 128 0 l 1,1,-1
 112 -52 l 1,2,3
 154 -57 154 -57 178 -79.5 c 128,-1,4
 202 -102 202 -102 202 -137.5 c 128,-1,5
 202 -173 202 -173 174.5 -196 c 128,-1,6
 147 -219 147 -219 101 -219 c 0,7,8
 65 -219 65 -219 39 -199 c 0,9,10
 30 -192 30 -192 17 -178 c 1,11,-1
 43 -147 l 1,12,13
 68 -175 68 -175 93 -175 c 0,14,15
 142 -175 142 -175 142 -135 c 0,16,17
 142 -114 142 -114 127.5 -102.5 c 128,-1,18
 113 -91 113 -91 87 -91 c 2,19,-1
 65 -91 l 1,20,-1
 53 -71 l 1,21,-1
 86 0 l 1,0,-1
EndSplineSet
EndChar

StartChar: onesuperior
Encoding: 185 185 122
Width: 369
GlyphClass: 2
Flags: W
LayerCount: 2
Fore
SplineSet
247 378 m 1,0,-1
 171 378 l 1,1,-1
 171 728 l 1,2,-1
 76 698 l 1,3,-1
 57 749 l 1,4,-1
 193 811 l 1,5,-1
 247 801 l 1,6,-1
 247 378 l 1,0,-1
EndSplineSet
EndChar

StartChar: ordmasculine
Encoding: 186 186 123
Width: 380
GlyphClass: 2
Flags: W
LayerCount: 2
Fore
SplineSet
29 548 m 128,-1,1
 29 630 29 630 71 676 c 128,-1,2
 113 722 113 722 190.5 722 c 128,-1,3
 268 722 268 722 309.5 676.5 c 128,-1,4
 351 631 351 631 351 548.5 c 128,-1,5
 351 466 351 466 309 420 c 128,-1,6
 267 374 267 374 190 374 c 128,-1,7
 113 374 113 374 71 420 c 128,-1,0
 29 466 29 466 29 548 c 128,-1,1
106 548 m 128,-1,9
 106 493 106 493 128 464 c 128,-1,10
 150 435 150 435 190 435 c 0,11,12
 274 435 274 435 274 548 c 128,-1,13
 274 661 274 661 190 661 c 0,14,15
 150 661 150 661 128 632 c 128,-1,8
 106 603 106 603 106 548 c 128,-1,9
EndSplineSet
EndChar

StartChar: guillemotright
Encoding: 187 187 124
Width: 610
GlyphClass: 2
Flags: W
LayerCount: 2
Fore
SplineSet
319 77 m 1,0,-1
 442 261 l 1,1,-1
 318 448 l 1,2,-1
 388 499 l 1,3,-1
 541 261 l 1,4,-1
 389 24 l 1,5,-1
 319 77 l 1,0,-1
85 77 m 1,6,-1
 206 261 l 1,7,-1
 84 448 l 1,8,-1
 152 499 l 1,9,-1
 305 261 l 1,10,-1
 153 24 l 1,11,-1
 85 77 l 1,6,-1
EndSplineSet
EndChar

StartChar: onequarter
Encoding: 188 188 125
Width: 600
GlyphClass: 2
Flags: W
LayerCount: 2
Fore
SplineSet
124 -132 m 1,0,-1
 124 -84 l 1,1,-1
 313 203 l 1,2,-1
 414 203 l 1,3,-1
 414 -68 l 1,4,-1
 462 -68 l 1,5,-1
 462 -132 l 1,6,-1
 414 -132 l 1,7,-1
 414 -227 l 1,8,-1
 341 -227 l 1,9,-1
 341 -132 l 1,10,-1
 124 -132 l 1,0,-1
213 -68 m 1,11,-1
 341 -68 l 1,12,-1
 341 131 l 1,13,-1
 213 -68 l 1,11,-1
372 378 m 1,14,-1
 296 378 l 1,15,-1
 296 728 l 1,16,-1
 201 698 l 1,17,-1
 182 749 l 1,18,-1
 318 811 l 1,19,-1
 372 801 l 1,20,-1
 372 378 l 1,14,-1
81 257 m 1,21,-1
 81 329 l 1,22,-1
 548 329 l 1,23,-1
 548 257 l 1,24,-1
 81 257 l 1,21,-1
EndSplineSet
EndChar

StartChar: onehalf
Encoding: 189 189 126
Width: 600
GlyphClass: 2
Flags: W
LayerCount: 2
Fore
SplineSet
373 378 m 1,0,-1
 297 378 l 1,1,-1
 297 728 l 1,2,-1
 202 698 l 1,3,-1
 183 749 l 1,4,-1
 319 811 l 1,5,-1
 373 801 l 1,6,-1
 373 378 l 1,0,-1
228 81 m 1,7,-1
 166 110 l 1,8,9
 183 156 183 156 222.5 181 c 128,-1,10
 262 206 262 206 322 206 c 128,-1,11
 382 206 382 206 419.5 170 c 128,-1,12
 457 134 457 134 457 72 c 128,-1,13
 457 10 457 10 417 -45.5 c 128,-1,14
 377 -101 377 -101 294 -163 c 1,15,-1
 467 -163 l 1,16,-1
 467 -228 l 1,17,-1
 167 -228 l 1,18,-1
 167 -176 l 1,19,20
 281 -94 281 -94 329 -40 c 128,-1,21
 377 14 377 14 377 67 c 0,22,23
 377 102 377 102 360.5 121.5 c 128,-1,24
 344 141 344 141 315 141 c 0,25,26
 261 141 261 141 228 81 c 1,7,-1
78 257 m 1,27,-1
 78 329 l 1,28,-1
 545 329 l 1,29,-1
 545 257 l 1,30,-1
 78 257 l 1,27,-1
EndSplineSet
EndChar

StartChar: threequarters
Encoding: 190 190 127
Width: 600
GlyphClass: 2
Flags: W
LayerCount: 2
Fore
SplineSet
117 -134 m 1,0,-1
 117 -86 l 1,1,-1
 306 201 l 1,2,-1
 407 201 l 1,3,-1
 407 -70 l 1,4,-1
 455 -70 l 1,5,-1
 455 -134 l 1,6,-1
 407 -134 l 1,7,-1
 407 -229 l 1,8,-1
 334 -229 l 1,9,-1
 334 -134 l 1,10,-1
 117 -134 l 1,0,-1
206 -70 m 1,11,-1
 334 -70 l 1,12,-1
 334 129 l 1,13,-1
 206 -70 l 1,11,-1
165 444 m 1,14,-1
 212 492 l 1,15,16
 240 461 240 461 261.5 449 c 128,-1,17
 283 437 283 437 314 437 c 128,-1,18
 345 437 345 437 365 454.5 c 128,-1,19
 385 472 385 472 385 504 c 0,20,21
 385 571 385 571 299 571 c 2,22,-1
 258 571 l 1,23,-1
 258 631 l 1,24,-1
 295 631 l 1,25,26
 333 632 333 632 354.5 649.5 c 128,-1,27
 376 667 376 667 376 693.5 c 128,-1,28
 376 720 376 720 359.5 733.5 c 128,-1,29
 343 747 343 747 313.5 747 c 128,-1,30
 284 747 284 747 264.5 734 c 128,-1,31
 245 721 245 721 227 688 c 1,32,-1
 169 719 l 1,33,34
 186 759 186 759 224.5 785.5 c 128,-1,35
 263 812 263 812 321.5 812 c 128,-1,36
 380 812 380 812 418 781 c 128,-1,37
 456 750 456 750 456 693 c 128,-1,38
 456 636 456 636 400 605 c 1,39,40
 464 577 464 577 464 500 c 0,41,42
 464 442 464 442 423 407 c 128,-1,43
 382 372 382 372 314 372 c 0,44,45
 226 372 226 372 165 444 c 1,14,-1
76 257 m 1,46,-1
 76 329 l 1,47,-1
 543 329 l 1,48,-1
 543 257 l 1,49,-1
 76 257 l 1,46,-1
EndSplineSet
EndChar

StartChar: questiondown
Encoding: 191 191 128
Width: 467
GlyphClass: 2
Flags: W
LayerCount: 2
Fore
SplineSet
249 424 m 1,0,-1
 249 513 l 1,1,-1
 342 513 l 1,2,-1
 342 424 l 1,3,-1
 249 424 l 1,0,-1
88 99 m 0,4,5
 106 118 106 118 127 134 c 128,-1,6
 148 150 148 150 169.5 167.5 c 128,-1,7
 191 185 191 185 209 208 c 0,8,9
 249 258 249 258 249 358 c 1,10,-1
 342 358 l 1,11,12
 342 239 342 239 303 177 c 0,13,14
 273 129 273 129 223 96 c 0,15,16
 202 82 202 82 185 67 c 0,17,18
 146 33 146 33 146 -25 c 0,19,20
 146 -65 146 -65 175 -93 c 128,-1,21
 204 -121 204 -121 266 -121 c 128,-1,22
 328 -121 328 -121 401 -96 c 1,23,-1
 415 -182 l 1,24,25
 343 -208 343 -208 250 -208 c 128,-1,26
 157 -208 157 -208 102.5 -153.5 c 128,-1,27
 48 -99 48 -99 48 -21 c 128,-1,28
 48 57 48 57 88 99 c 0,4,5
EndSplineSet
EndChar

StartChar: Agrave
Encoding: 192 192 129
Width: 639
GlyphClass: 2
Flags: W
LayerCount: 2
Fore
SplineSet
12 0 m 1,0,-1
 256 708 l 1,1,-1
 374 708 l 1,2,-1
 627 0 l 1,3,-1
 534 0 l 1,4,-1
 460 208 l 1,5,-1
 179 208 l 1,6,-1
 108 0 l 1,7,-1
 12 0 l 1,0,-1
317 609 m 1,8,-1
 207 288 l 1,9,-1
 431 288 l 1,10,-1
 317 609 l 1,8,-1
197 883 m 1,11,-1
 257 945 l 1,12,-1
 390 781 l 1,13,-1
 353 747 l 1,14,-1
 197 883 l 1,11,-1
EndSplineSet
EndChar

StartChar: Aacute
Encoding: 193 193 130
Width: 639
GlyphClass: 2
Flags: W
LayerCount: 2
Fore
SplineSet
12 0 m 1,0,-1
 256 708 l 1,1,-1
 374 708 l 1,2,-1
 627 0 l 1,3,-1
 534 0 l 1,4,-1
 460 208 l 1,5,-1
 179 208 l 1,6,-1
 108 0 l 1,7,-1
 12 0 l 1,0,-1
317 609 m 1,8,-1
 207 288 l 1,9,-1
 431 288 l 1,10,-1
 317 609 l 1,8,-1
223 781 m 1,11,-1
 356 945 l 1,12,-1
 416 883 l 1,13,-1
 260 747 l 1,14,-1
 223 781 l 1,11,-1
EndSplineSet
EndChar

StartChar: Acircumflex
Encoding: 194 194 131
Width: 639
GlyphClass: 2
Flags: W
LayerCount: 2
Fore
SplineSet
12 0 m 1,0,-1
 256 708 l 1,1,-1
 374 708 l 1,2,-1
 627 0 l 1,3,-1
 534 0 l 1,4,-1
 460 208 l 1,5,-1
 179 208 l 1,6,-1
 108 0 l 1,7,-1
 12 0 l 1,0,-1
317 609 m 1,8,-1
 207 288 l 1,9,-1
 431 288 l 1,10,-1
 317 609 l 1,8,-1
307 922 m 1,11,-1
 329 922 l 1,12,-1
 482 795 l 1,13,-1
 452 754 l 1,14,-1
 318 846 l 1,15,-1
 181 754 l 1,16,-1
 154 795 l 1,17,-1
 307 922 l 1,11,-1
EndSplineSet
EndChar

StartChar: Atilde
Encoding: 195 195 132
Width: 639
GlyphClass: 2
Flags: W
LayerCount: 2
Fore
SplineSet
12 0 m 1,0,-1
 256 708 l 1,1,-1
 374 708 l 1,2,-1
 627 0 l 1,3,-1
 534 0 l 1,4,-1
 460 208 l 1,5,-1
 179 208 l 1,6,-1
 108 0 l 1,7,-1
 12 0 l 1,0,-1
317 609 m 1,8,-1
 207 288 l 1,9,-1
 431 288 l 1,10,-1
 317 609 l 1,8,-1
135 779 m 1,11,12
 135 833 135 833 165.5 865.5 c 128,-1,13
 196 898 196 898 248 898 c 0,14,15
 296 898 296 898 327.5 866.5 c 128,-1,16
 359 835 359 835 385 835 c 0,17,18
 436 835 436 835 436 889 c 1,19,-1
 495 889 l 1,20,21
 495 835 495 835 465.5 802.5 c 128,-1,22
 436 770 436 770 387 770 c 0,23,24
 355 770 355 770 331 786 c 128,-1,25
 307 802 307 802 287.5 818 c 128,-1,26
 268 834 268 834 245.5 834 c 128,-1,27
 223 834 223 834 208.5 819 c 128,-1,28
 194 804 194 804 194 779 c 1,29,-1
 135 779 l 1,11,12
EndSplineSet
EndChar

StartChar: Adieresis
Encoding: 196 196 133
Width: 639
GlyphClass: 2
Flags: W
LayerCount: 2
Fore
SplineSet
12 0 m 1,0,-1
 256 708 l 1,1,-1
 374 708 l 1,2,-1
 627 0 l 1,3,-1
 534 0 l 1,4,-1
 460 208 l 1,5,-1
 179 208 l 1,6,-1
 108 0 l 1,7,-1
 12 0 l 1,0,-1
317 609 m 1,8,-1
 207 288 l 1,9,-1
 431 288 l 1,10,-1
 317 609 l 1,8,-1
181 896 m 1,11,-1
 274 896 l 1,12,-1
 274 803 l 1,13,-1
 181 803 l 1,14,-1
 181 896 l 1,11,-1
363 896 m 1,15,-1
 455 896 l 1,16,-1
 455 803 l 1,17,-1
 363 803 l 1,18,-1
 363 896 l 1,15,-1
EndSplineSet
EndChar

StartChar: Aring
Encoding: 197 197 134
Width: 639
GlyphClass: 2
Flags: W
LayerCount: 2
Fore
SplineSet
12 0 m 1,0,-1
 256 708 l 1,1,-1
 374 708 l 1,2,-1
 627 0 l 1,3,-1
 534 0 l 1,4,-1
 460 208 l 1,5,-1
 179 208 l 1,6,-1
 108 0 l 1,7,-1
 12 0 l 1,0,-1
317 609 m 1,8,-1
 207 288 l 1,9,-1
 431 288 l 1,10,-1
 317 609 l 1,8,-1
220 836 m 128,-1,12
 220 877 220 877 249 906 c 128,-1,13
 278 935 278 935 319 935 c 128,-1,14
 360 935 360 935 389 906 c 128,-1,15
 418 877 418 877 418 836 c 128,-1,16
 418 795 418 795 389 766 c 128,-1,17
 360 737 360 737 319 737 c 128,-1,18
 278 737 278 737 249 766 c 128,-1,11
 220 795 220 795 220 836 c 128,-1,12
369 836 m 128,-1,20
 369 859 369 859 355 875 c 128,-1,21
 341 891 341 891 319 891 c 128,-1,22
 297 891 297 891 283.5 875.5 c 128,-1,23
 270 860 270 860 270 836.5 c 128,-1,24
 270 813 270 813 283.5 797.5 c 128,-1,25
 297 782 297 782 319 782 c 128,-1,26
 341 782 341 782 355 797.5 c 128,-1,19
 369 813 369 813 369 836 c 128,-1,20
EndSplineSet
EndChar

StartChar: AE
Encoding: 198 198 135
Width: 960
GlyphClass: 2
Flags: W
LayerCount: 2
Fore
SplineSet
477 0 m 1,0,-1
 477 208 l 1,1,-1
 222 208 l 1,2,-1
 102 0 l 1,3,-1
 0 0 l 1,4,-1
 409 708 l 1,5,-1
 898 708 l 1,6,-1
 898 627 l 1,7,-1
 572 627 l 1,8,-1
 572 412 l 1,9,-1
 865 412 l 1,10,-1
 865 330 l 1,11,-1
 572 330 l 1,12,-1
 572 83 l 1,13,-1
 909 83 l 1,14,-1
 909 0 l 1,15,-1
 477 0 l 1,0,-1
268 288 m 1,16,-1
 477 288 l 1,17,-1
 477 650 l 1,18,-1
 268 288 l 1,16,-1
EndSplineSet
EndChar

StartChar: Ccedilla
Encoding: 199 199 136
Width: 638
GlyphClass: 2
Flags: W
LayerCount: 2
Fore
SplineSet
340 -91 m 2,0,-1
 318 -91 l 1,1,-1
 306 -71 l 1,2,-1
 335 -8 l 1,3,4
 196 2 196 2 123 95 c 128,-1,5
 50 188 50 188 50 359.5 c 128,-1,6
 50 531 50 531 132.5 623.5 c 128,-1,7
 215 716 215 716 366.5 716 c 128,-1,8
 518 716 518 716 596 613 c 1,9,-1
 530 559 l 1,10,11
 473 634 473 634 369 634 c 128,-1,12
 265 634 265 634 208.5 562.5 c 128,-1,13
 152 491 152 491 152 353 c 128,-1,14
 152 215 152 215 210.5 143 c 128,-1,15
 269 71 269 71 383 71 c 0,16,17
 461 71 461 71 552 118 c 1,18,-1
 580 43 l 1,19,20
 505 -6 505 -6 378 -9 c 1,21,-1
 365 -52 l 1,22,23
 407 -57 407 -57 431 -79.5 c 128,-1,24
 455 -102 455 -102 455 -137.5 c 128,-1,25
 455 -173 455 -173 427.5 -196 c 128,-1,26
 400 -219 400 -219 354 -219 c 0,27,28
 318 -219 318 -219 292 -199 c 0,29,30
 283 -192 283 -192 270 -178 c 1,31,-1
 296 -147 l 1,32,33
 320 -175 320 -175 346 -175 c 0,34,35
 395 -175 395 -175 395 -135 c 0,36,37
 395 -114 395 -114 380.5 -102.5 c 128,-1,38
 366 -91 366 -91 340 -91 c 2,0,-1
EndSplineSet
EndChar

StartChar: Egrave
Encoding: 200 200 137
Width: 568
GlyphClass: 2
Flags: W
LayerCount: 2
Fore
SplineSet
85 0 m 1,0,-1
 85 708 l 1,1,-1
 506 708 l 1,2,-1
 506 627 l 1,3,-1
 180 627 l 1,4,-1
 180 412 l 1,5,-1
 473 412 l 1,6,-1
 473 330 l 1,7,-1
 180 330 l 1,8,-1
 180 83 l 1,9,-1
 517 83 l 1,10,-1
 517 0 l 1,11,-1
 85 0 l 1,0,-1
181 883 m 1,12,-1
 241 945 l 1,13,-1
 374 781 l 1,14,-1
 337 747 l 1,15,-1
 181 883 l 1,12,-1
EndSplineSet
EndChar

StartChar: Eacute
Encoding: 201 201 138
Width: 568
GlyphClass: 2
Flags: W
LayerCount: 2
Fore
SplineSet
85 0 m 1,0,-1
 85 708 l 1,1,-1
 506 708 l 1,2,-1
 506 627 l 1,3,-1
 180 627 l 1,4,-1
 180 412 l 1,5,-1
 473 412 l 1,6,-1
 473 330 l 1,7,-1
 180 330 l 1,8,-1
 180 83 l 1,9,-1
 517 83 l 1,10,-1
 517 0 l 1,11,-1
 85 0 l 1,0,-1
207 781 m 1,12,-1
 340 945 l 1,13,-1
 400 883 l 1,14,-1
 244 747 l 1,15,-1
 207 781 l 1,12,-1
EndSplineSet
EndChar

StartChar: Ecircumflex
Encoding: 202 202 139
Width: 568
GlyphClass: 2
Flags: W
LayerCount: 2
Fore
SplineSet
85 0 m 1,0,-1
 85 708 l 1,1,-1
 506 708 l 1,2,-1
 506 627 l 1,3,-1
 180 627 l 1,4,-1
 180 412 l 1,5,-1
 473 412 l 1,6,-1
 473 330 l 1,7,-1
 180 330 l 1,8,-1
 180 83 l 1,9,-1
 517 83 l 1,10,-1
 517 0 l 1,11,-1
 85 0 l 1,0,-1
291 922 m 1,12,-1
 313 922 l 1,13,-1
 466 795 l 1,14,-1
 436 754 l 1,15,-1
 302 846 l 1,16,-1
 165 754 l 1,17,-1
 138 795 l 1,18,-1
 291 922 l 1,12,-1
EndSplineSet
EndChar

StartChar: Edieresis
Encoding: 203 203 140
Width: 568
GlyphClass: 2
Flags: W
LayerCount: 2
Fore
SplineSet
85 0 m 1,0,-1
 85 708 l 1,1,-1
 506 708 l 1,2,-1
 506 627 l 1,3,-1
 180 627 l 1,4,-1
 180 412 l 1,5,-1
 473 412 l 1,6,-1
 473 330 l 1,7,-1
 180 330 l 1,8,-1
 180 83 l 1,9,-1
 517 83 l 1,10,-1
 517 0 l 1,11,-1
 85 0 l 1,0,-1
165 896 m 1,12,-1
 258 896 l 1,13,-1
 258 803 l 1,14,-1
 165 803 l 1,15,-1
 165 896 l 1,12,-1
347 896 m 1,16,-1
 439 896 l 1,17,-1
 439 803 l 1,18,-1
 347 803 l 1,19,-1
 347 896 l 1,16,-1
EndSplineSet
EndChar

StartChar: Igrave
Encoding: 204 204 141
Width: 271
GlyphClass: 2
Flags: W
LayerCount: 2
Fore
SplineSet
88 0 m 1,0,-1
 88 711 l 1,1,-1
 183 711 l 1,2,-1
 183 0 l 1,3,-1
 88 0 l 1,0,-1
15 883 m 1,4,-1
 75 945 l 1,5,-1
 208 781 l 1,6,-1
 171 747 l 1,7,-1
 15 883 l 1,4,-1
EndSplineSet
EndChar

StartChar: Iacute
Encoding: 205 205 142
Width: 271
GlyphClass: 2
Flags: W
LayerCount: 2
Fore
SplineSet
88 0 m 1,0,-1
 88 711 l 1,1,-1
 183 711 l 1,2,-1
 183 0 l 1,3,-1
 88 0 l 1,0,-1
41 781 m 1,4,-1
 174 945 l 1,5,-1
 234 883 l 1,6,-1
 78 747 l 1,7,-1
 41 781 l 1,4,-1
EndSplineSet
EndChar

StartChar: Icircumflex
Encoding: 206 206 143
Width: 271
GlyphClass: 2
Flags: W
LayerCount: 2
Fore
SplineSet
88 0 m 1,0,-1
 88 711 l 1,1,-1
 183 711 l 1,2,-1
 183 0 l 1,3,-1
 88 0 l 1,0,-1
125 922 m 1,4,-1
 147 922 l 1,5,-1
 300 795 l 1,6,-1
 270 754 l 1,7,-1
 136 846 l 1,8,-1
 -1 754 l 1,9,-1
 -28 795 l 1,10,-1
 125 922 l 1,4,-1
EndSplineSet
EndChar

StartChar: Idieresis
Encoding: 207 207 144
Width: 271
GlyphClass: 2
Flags: W
LayerCount: 2
Fore
SplineSet
88 0 m 1,0,-1
 88 711 l 1,1,-1
 183 711 l 1,2,-1
 183 0 l 1,3,-1
 88 0 l 1,0,-1
-1 896 m 1,4,-1
 92 896 l 1,5,-1
 92 803 l 1,6,-1
 -1 803 l 1,7,-1
 -1 896 l 1,4,-1
181 896 m 1,8,-1
 273 896 l 1,9,-1
 273 803 l 1,10,-1
 181 803 l 1,11,-1
 181 896 l 1,8,-1
EndSplineSet
EndChar

StartChar: Eth
Encoding: 208 208 145
Width: 684
GlyphClass: 2
Flags: W
LayerCount: 2
Fore
SplineSet
0 321 m 1,0,-1
 0 401 l 1,1,-1
 85 401 l 1,2,-1
 85 708 l 1,3,-1
 314 708 l 2,4,5
 471 708 471 708 555 615.5 c 128,-1,6
 639 523 639 523 639 355.5 c 128,-1,7
 639 188 639 188 554.5 94 c 128,-1,8
 470 0 470 0 314 0 c 2,9,-1
 85 0 l 1,10,-1
 85 321 l 1,11,-1
 0 321 l 1,0,-1
335 321 m 1,12,-1
 181 321 l 1,13,-1
 181 80 l 1,14,-1
 314 80 l 2,15,16
 422 80 422 80 480.5 149 c 128,-1,17
 539 218 539 218 539 355.5 c 128,-1,18
 539 493 539 493 480.5 560.5 c 128,-1,19
 422 628 422 628 314 628 c 2,20,-1
 181 628 l 1,21,-1
 181 401 l 1,22,-1
 335 401 l 1,23,-1
 335 321 l 1,12,-1
EndSplineSet
EndChar

StartChar: Ntilde
Encoding: 209 209 146
Width: 703
GlyphClass: 2
Flags: W
LayerCount: 2
Fore
SplineSet
83 0 m 1,0,-1
 83 708 l 1,1,-1
 195 708 l 1,2,-1
 427 333 l 1,3,4
 444 308 444 308 472 256.5 c 128,-1,5
 500 205 500 205 513 182 c 128,-1,6
 526 159 526 159 526 158 c 2,7,-1
 526 708 l 1,8,-1
 620 708 l 1,9,-1
 620 0 l 1,10,-1
 523 0 l 1,11,-1
 274 410 l 1,12,-1
 175 585 l 1,13,-1
 175 0 l 1,14,-1
 83 0 l 1,0,-1
173 779 m 1,15,16
 173 833 173 833 203.5 865.5 c 128,-1,17
 234 898 234 898 286 898 c 0,18,19
 334 898 334 898 365.5 866.5 c 128,-1,20
 397 835 397 835 423 835 c 0,21,22
 474 835 474 835 474 889 c 1,23,-1
 533 889 l 1,24,25
 533 835 533 835 503.5 802.5 c 128,-1,26
 474 770 474 770 425 770 c 0,27,28
 393 770 393 770 369 786 c 128,-1,29
 345 802 345 802 325.5 818 c 128,-1,30
 306 834 306 834 283.5 834 c 128,-1,31
 261 834 261 834 246.5 819 c 128,-1,32
 232 804 232 804 232 779 c 1,33,-1
 173 779 l 1,15,16
EndSplineSet
EndChar

StartChar: Ograve
Encoding: 210 210 147
Width: 750
GlyphClass: 2
Flags: W
LayerCount: 2
Fore
SplineSet
134.5 86 m 128,-1,1
 50 183 50 183 50 354.5 c 128,-1,2
 50 526 50 526 134 621 c 128,-1,3
 218 716 218 716 375 716 c 128,-1,4
 532 716 532 716 616 621 c 128,-1,5
 700 526 700 526 700 355 c 128,-1,6
 700 184 700 184 615 86.5 c 128,-1,7
 530 -11 530 -11 374.5 -11 c 128,-1,0
 219 -11 219 -11 134.5 86 c 128,-1,1
375 69 m 128,-1,9
 483 69 483 69 541.5 141.5 c 128,-1,10
 600 214 600 214 600 354.5 c 128,-1,11
 600 495 600 495 541.5 565.5 c 128,-1,12
 483 636 483 636 375 636 c 128,-1,13
 267 636 267 636 208.5 566 c 128,-1,14
 150 496 150 496 150 354.5 c 128,-1,15
 150 213 150 213 208.5 141 c 128,-1,8
 267 69 267 69 375 69 c 128,-1,9
251 883 m 1,16,-1
 311 945 l 1,17,-1
 444 781 l 1,18,-1
 407 747 l 1,19,-1
 251 883 l 1,16,-1
EndSplineSet
EndChar

StartChar: Oacute
Encoding: 211 211 148
Width: 750
GlyphClass: 2
Flags: W
LayerCount: 2
Fore
SplineSet
134.5 86 m 128,-1,1
 50 183 50 183 50 354.5 c 128,-1,2
 50 526 50 526 134 621 c 128,-1,3
 218 716 218 716 375 716 c 128,-1,4
 532 716 532 716 616 621 c 128,-1,5
 700 526 700 526 700 355 c 128,-1,6
 700 184 700 184 615 86.5 c 128,-1,7
 530 -11 530 -11 374.5 -11 c 128,-1,0
 219 -11 219 -11 134.5 86 c 128,-1,1
375 69 m 128,-1,9
 483 69 483 69 541.5 141.5 c 128,-1,10
 600 214 600 214 600 354.5 c 128,-1,11
 600 495 600 495 541.5 565.5 c 128,-1,12
 483 636 483 636 375 636 c 128,-1,13
 267 636 267 636 208.5 566 c 128,-1,14
 150 496 150 496 150 354.5 c 128,-1,15
 150 213 150 213 208.5 141 c 128,-1,8
 267 69 267 69 375 69 c 128,-1,9
277 781 m 1,16,-1
 410 945 l 1,17,-1
 470 883 l 1,18,-1
 314 747 l 1,19,-1
 277 781 l 1,16,-1
EndSplineSet
EndChar

StartChar: Ocircumflex
Encoding: 212 212 149
Width: 750
GlyphClass: 2
Flags: W
LayerCount: 2
Fore
SplineSet
134.5 86 m 128,-1,1
 50 183 50 183 50 354.5 c 128,-1,2
 50 526 50 526 134 621 c 128,-1,3
 218 716 218 716 375 716 c 128,-1,4
 532 716 532 716 616 621 c 128,-1,5
 700 526 700 526 700 355 c 128,-1,6
 700 184 700 184 615 86.5 c 128,-1,7
 530 -11 530 -11 374.5 -11 c 128,-1,0
 219 -11 219 -11 134.5 86 c 128,-1,1
375 69 m 128,-1,9
 483 69 483 69 541.5 141.5 c 128,-1,10
 600 214 600 214 600 354.5 c 128,-1,11
 600 495 600 495 541.5 565.5 c 128,-1,12
 483 636 483 636 375 636 c 128,-1,13
 267 636 267 636 208.5 566 c 128,-1,14
 150 496 150 496 150 354.5 c 128,-1,15
 150 213 150 213 208.5 141 c 128,-1,8
 267 69 267 69 375 69 c 128,-1,9
361 922 m 1,16,-1
 383 922 l 1,17,-1
 536 795 l 1,18,-1
 506 754 l 1,19,-1
 372 846 l 1,20,-1
 235 754 l 1,21,-1
 208 795 l 1,22,-1
 361 922 l 1,16,-1
EndSplineSet
EndChar

StartChar: Otilde
Encoding: 213 213 150
Width: 750
GlyphClass: 2
Flags: W
LayerCount: 2
Fore
SplineSet
134.5 86 m 128,-1,1
 50 183 50 183 50 354.5 c 128,-1,2
 50 526 50 526 134 621 c 128,-1,3
 218 716 218 716 375 716 c 128,-1,4
 532 716 532 716 616 621 c 128,-1,5
 700 526 700 526 700 355 c 128,-1,6
 700 184 700 184 615 86.5 c 128,-1,7
 530 -11 530 -11 374.5 -11 c 128,-1,0
 219 -11 219 -11 134.5 86 c 128,-1,1
375 69 m 128,-1,9
 483 69 483 69 541.5 141.5 c 128,-1,10
 600 214 600 214 600 354.5 c 128,-1,11
 600 495 600 495 541.5 565.5 c 128,-1,12
 483 636 483 636 375 636 c 128,-1,13
 267 636 267 636 208.5 566 c 128,-1,14
 150 496 150 496 150 354.5 c 128,-1,15
 150 213 150 213 208.5 141 c 128,-1,8
 267 69 267 69 375 69 c 128,-1,9
189 779 m 1,16,17
 189 833 189 833 219.5 865.5 c 128,-1,18
 250 898 250 898 302 898 c 0,19,20
 350 898 350 898 381.5 866.5 c 128,-1,21
 413 835 413 835 439 835 c 0,22,23
 490 835 490 835 490 889 c 1,24,-1
 549 889 l 1,25,26
 549 835 549 835 519.5 802.5 c 128,-1,27
 490 770 490 770 441 770 c 0,28,29
 409 770 409 770 385 786 c 128,-1,30
 361 802 361 802 341.5 818 c 128,-1,31
 322 834 322 834 299.5 834 c 128,-1,32
 277 834 277 834 262.5 819 c 128,-1,33
 248 804 248 804 248 779 c 1,34,-1
 189 779 l 1,16,17
EndSplineSet
EndChar

StartChar: Odieresis
Encoding: 214 214 151
Width: 750
GlyphClass: 2
Flags: W
LayerCount: 2
Fore
SplineSet
134.5 86 m 128,-1,1
 50 183 50 183 50 354.5 c 128,-1,2
 50 526 50 526 134 621 c 128,-1,3
 218 716 218 716 375 716 c 128,-1,4
 532 716 532 716 616 621 c 128,-1,5
 700 526 700 526 700 355 c 128,-1,6
 700 184 700 184 615 86.5 c 128,-1,7
 530 -11 530 -11 374.5 -11 c 128,-1,0
 219 -11 219 -11 134.5 86 c 128,-1,1
375 69 m 128,-1,9
 483 69 483 69 541.5 141.5 c 128,-1,10
 600 214 600 214 600 354.5 c 128,-1,11
 600 495 600 495 541.5 565.5 c 128,-1,12
 483 636 483 636 375 636 c 128,-1,13
 267 636 267 636 208.5 566 c 128,-1,14
 150 496 150 496 150 354.5 c 128,-1,15
 150 213 150 213 208.5 141 c 128,-1,8
 267 69 267 69 375 69 c 128,-1,9
235 896 m 1,16,-1
 328 896 l 1,17,-1
 328 803 l 1,18,-1
 235 803 l 1,19,-1
 235 896 l 1,16,-1
417 896 m 1,20,-1
 509 896 l 1,21,-1
 509 803 l 1,22,-1
 417 803 l 1,23,-1
 417 896 l 1,20,-1
EndSplineSet
EndChar

StartChar: multiply
Encoding: 215 215 152
Width: 640
GlyphClass: 2
Flags: W
LayerCount: 2
Fore
SplineSet
479 513 m 1,0,-1
 535 457 l 1,1,-1
 375 297 l 1,2,-1
 535 138 l 1,3,-1
 479 82 l 1,4,-1
 319 241 l 1,5,-1
 160 82 l 1,6,-1
 104 138 l 1,7,-1
 263 297 l 1,8,-1
 104 457 l 1,9,-1
 160 513 l 1,10,-1
 319 353 l 1,11,-1
 479 513 l 1,0,-1
EndSplineSet
EndChar

StartChar: Oslash
Encoding: 216 216 153
Width: 750
GlyphClass: 2
Flags: W
LayerCount: 2
Fore
SplineSet
205 -61 m 1,0,-1
 230 17 l 1,1,2
 142 55 142 55 96 142 c 128,-1,3
 50 229 50 229 50 356 c 0,4,5
 50 526 50 526 134 621 c 128,-1,6
 218 716 218 716 375 716 c 0,7,8
 409 716 409 716 451 709 c 1,9,-1
 462 742 l 1,10,-1
 544 742 l 1,11,-1
 526 686 l 1,12,13
 611 648 611 648 655.5 563.5 c 128,-1,14
 700 479 700 479 700 356 c 0,15,16
 700 184 700 184 615 86.5 c 128,-1,17
 530 -11 530 -11 375 -11 c 0,18,19
 349 -11 349 -11 305 -5 c 1,20,-1
 287 -61 l 1,21,-1
 205 -61 l 1,0,-1
150 356 m 0,22,23
 150 162 150 162 256 99 c 1,24,-1
 426 631 l 1,25,26
 399 636 399 636 375 636 c 0,27,28
 267 636 267 636 208.5 566 c 128,-1,29
 150 496 150 496 150 356 c 0,22,23
375 69 m 0,30,31
 483 69 483 69 541.5 141.5 c 128,-1,32
 600 214 600 214 600 356 c 0,33,34
 600 539 600 539 499 603 c 1,35,-1
 330 72 l 1,36,37
 351 69 351 69 375 69 c 0,30,31
EndSplineSet
EndChar

StartChar: Ugrave
Encoding: 217 217 154
Width: 709
GlyphClass: 2
Flags: W
LayerCount: 2
Fore
SplineSet
78 225 m 2,0,-1
 78 708 l 1,1,-1
 174 708 l 1,2,-1
 174 230 l 2,3,4
 174 75 174 75 354.5 75 c 128,-1,5
 535 75 535 75 535 225 c 2,6,-1
 535 708 l 1,7,-1
 631 708 l 1,8,-1
 631 225 l 2,9,10
 631 114 631 114 562 53 c 128,-1,11
 493 -8 493 -8 354 -8 c 128,-1,12
 215 -8 215 -8 146.5 53 c 128,-1,13
 78 114 78 114 78 225 c 2,0,-1
233 883 m 1,14,-1
 293 945 l 1,15,-1
 426 781 l 1,16,-1
 389 747 l 1,17,-1
 233 883 l 1,14,-1
EndSplineSet
EndChar

StartChar: Uacute
Encoding: 218 218 155
Width: 709
GlyphClass: 2
Flags: W
LayerCount: 2
Fore
SplineSet
78 225 m 2,0,-1
 78 708 l 1,1,-1
 174 708 l 1,2,-1
 174 230 l 2,3,4
 174 75 174 75 354.5 75 c 128,-1,5
 535 75 535 75 535 225 c 2,6,-1
 535 708 l 1,7,-1
 631 708 l 1,8,-1
 631 225 l 2,9,10
 631 114 631 114 562 53 c 128,-1,11
 493 -8 493 -8 354 -8 c 128,-1,12
 215 -8 215 -8 146.5 53 c 128,-1,13
 78 114 78 114 78 225 c 2,0,-1
259 781 m 1,14,-1
 392 945 l 1,15,-1
 452 883 l 1,16,-1
 296 747 l 1,17,-1
 259 781 l 1,14,-1
EndSplineSet
EndChar

StartChar: Ucircumflex
Encoding: 219 219 156
Width: 709
GlyphClass: 2
Flags: W
LayerCount: 2
Fore
SplineSet
78 225 m 2,0,-1
 78 708 l 1,1,-1
 174 708 l 1,2,-1
 174 230 l 2,3,4
 174 75 174 75 354.5 75 c 128,-1,5
 535 75 535 75 535 225 c 2,6,-1
 535 708 l 1,7,-1
 631 708 l 1,8,-1
 631 225 l 2,9,10
 631 114 631 114 562 53 c 128,-1,11
 493 -8 493 -8 354 -8 c 128,-1,12
 215 -8 215 -8 146.5 53 c 128,-1,13
 78 114 78 114 78 225 c 2,0,-1
343 922 m 1,14,-1
 365 922 l 1,15,-1
 518 795 l 1,16,-1
 488 754 l 1,17,-1
 354 846 l 1,18,-1
 217 754 l 1,19,-1
 190 795 l 1,20,-1
 343 922 l 1,14,-1
EndSplineSet
EndChar

StartChar: Udieresis
Encoding: 220 220 157
Width: 709
GlyphClass: 2
Flags: W
LayerCount: 2
Fore
SplineSet
78 225 m 2,0,-1
 78 708 l 1,1,-1
 174 708 l 1,2,-1
 174 230 l 2,3,4
 174 75 174 75 354.5 75 c 128,-1,5
 535 75 535 75 535 225 c 2,6,-1
 535 708 l 1,7,-1
 631 708 l 1,8,-1
 631 225 l 2,9,10
 631 114 631 114 562 53 c 128,-1,11
 493 -8 493 -8 354 -8 c 128,-1,12
 215 -8 215 -8 146.5 53 c 128,-1,13
 78 114 78 114 78 225 c 2,0,-1
217 896 m 1,14,-1
 310 896 l 1,15,-1
 310 803 l 1,16,-1
 217 803 l 1,17,-1
 217 896 l 1,14,-1
399 896 m 1,18,-1
 491 896 l 1,19,-1
 491 803 l 1,20,-1
 399 803 l 1,21,-1
 399 896 l 1,18,-1
EndSplineSet
EndChar

StartChar: Yacute
Encoding: 221 221 158
Width: 568
GlyphClass: 2
Flags: W
LayerCount: 2
Fore
SplineSet
236 0 m 1,0,-1
 236 298 l 1,1,-1
 2 708 l 1,2,-1
 107 708 l 1,3,-1
 284 391 l 1,4,-1
 462 708 l 1,5,-1
 566 708 l 1,6,-1
 331 298 l 1,7,-1
 331 0 l 1,8,-1
 236 0 l 1,0,-1
187 781 m 1,9,-1
 320 945 l 1,10,-1
 380 883 l 1,11,-1
 224 747 l 1,12,-1
 187 781 l 1,9,-1
EndSplineSet
EndChar

StartChar: Thorn
Encoding: 222 222 159
Width: 584
GlyphClass: 2
Flags: W
LayerCount: 2
Fore
SplineSet
181 708 m 1,0,-1
 181 582 l 1,1,-1
 294 582 l 2,2,3
 415 582 415 582 476 527.5 c 128,-1,4
 537 473 537 473 537 374.5 c 128,-1,5
 537 276 537 276 474.5 220.5 c 128,-1,6
 412 165 412 165 294 165 c 2,7,-1
 181 165 l 1,8,-1
 181 0 l 1,9,-1
 85 0 l 1,10,-1
 85 708 l 1,11,-1
 181 708 l 1,0,-1
294 502 m 2,12,-1
 181 502 l 1,13,-1
 181 245 l 1,14,-1
 294 245 l 2,15,16
 363 245 363 245 400 278 c 128,-1,17
 437 311 437 311 437 374 c 128,-1,18
 437 437 437 437 400.5 469.5 c 128,-1,19
 364 502 364 502 294 502 c 2,12,-1
EndSplineSet
EndChar

StartChar: germandbls
Encoding: 223 223 160
Width: 583
GlyphClass: 2
Flags: W
LayerCount: 2
Fore
SplineSet
85 0 m 1,0,-1
 85 553 l 2,1,2
 85 639 85 639 138 684.5 c 128,-1,3
 191 730 191 730 282 730 c 128,-1,4
 373 730 373 730 424 687.5 c 128,-1,5
 475 645 475 645 475 575 c 0,6,7
 475 539 475 539 458.5 508 c 128,-1,8
 442 477 442 477 422 460 c 1,9,10
 370 412 370 412 370 382 c 0,11,12
 370 351 370 351 459 308 c 0,13,14
 492 292 492 292 520 255.5 c 128,-1,15
 548 219 548 219 548 168 c 0,16,17
 548 88 548 88 489 44 c 128,-1,18
 430 0 430 0 327 0 c 2,19,-1
 250 0 l 1,20,-1
 250 80 l 1,21,-1
 336 80 l 2,22,23
 390 80 390 80 420 102.5 c 128,-1,24
 450 125 450 125 450 162 c 128,-1,25
 450 199 450 199 431.5 218.5 c 128,-1,26
 413 238 413 238 386.5 250 c 128,-1,27
 360 262 360 262 333.5 275 c 128,-1,28
 307 288 307 288 288.5 313.5 c 128,-1,29
 270 339 270 339 270 373.5 c 128,-1,30
 270 408 270 408 286.5 435 c 128,-1,31
 303 462 303 462 323.5 478.5 c 128,-1,32
 344 495 344 495 360.5 519 c 128,-1,33
 377 543 377 543 377 569 c 0,34,35
 377 655 377 655 285 655 c 0,36,37
 235 655 235 655 207 631.5 c 128,-1,38
 179 608 179 608 179 567 c 2,39,-1
 179 0 l 1,40,-1
 85 0 l 1,0,-1
EndSplineSet
EndChar

StartChar: agrave
Encoding: 224 224 161
Width: 544
GlyphClass: 2
Flags: W
LayerCount: 2
Fore
SplineSet
90 29 m 128,-1,1
 44 70 44 70 44 145.5 c 128,-1,2
 44 221 44 221 110 266 c 128,-1,3
 176 311 176 311 297 311 c 2,4,-1
 373 311 l 1,5,-1
 373 331 l 2,6,7
 373 395 373 395 346.5 422 c 128,-1,8
 320 449 320 449 253 449 c 128,-1,9
 186 449 186 449 101 412 c 1,10,-1
 73 477 l 1,11,12
 167 523 167 523 267 523 c 128,-1,13
 367 523 367 523 417 476.5 c 128,-1,14
 467 430 467 430 467 329 c 2,15,-1
 467 0 l 1,16,-1
 394 0 l 1,17,18
 390 24 390 24 381 60 c 1,19,20
 309 -12 309 -12 213 -12 c 0,21,0
 136 -12 136 -12 90 29 c 128,-1,1
138 141 m 0,22,23
 138 62 138 62 231 62 c 0,24,25
 271 62 271 62 309 80.5 c 128,-1,26
 347 99 347 99 373 131 c 1,27,-1
 373 241 l 1,28,-1
 303 241 l 2,29,30
 138 241 138 241 138 141 c 0,22,23
150 703 m 1,31,-1
 210 765 l 1,32,-1
 343 601 l 1,33,-1
 306 567 l 1,34,-1
 150 703 l 1,31,-1
EndSplineSet
EndChar

StartChar: aacute
Encoding: 225 225 162
Width: 544
GlyphClass: 2
Flags: W
LayerCount: 2
Fore
SplineSet
90 29 m 128,-1,1
 44 70 44 70 44 145.5 c 128,-1,2
 44 221 44 221 110 266 c 128,-1,3
 176 311 176 311 297 311 c 2,4,-1
 373 311 l 1,5,-1
 373 331 l 2,6,7
 373 395 373 395 346.5 422 c 128,-1,8
 320 449 320 449 253 449 c 128,-1,9
 186 449 186 449 101 412 c 1,10,-1
 73 477 l 1,11,12
 167 523 167 523 267 523 c 128,-1,13
 367 523 367 523 417 476.5 c 128,-1,14
 467 430 467 430 467 329 c 2,15,-1
 467 0 l 1,16,-1
 394 0 l 1,17,18
 390 24 390 24 381 60 c 1,19,20
 309 -12 309 -12 213 -12 c 0,21,0
 136 -12 136 -12 90 29 c 128,-1,1
138 141 m 0,22,23
 138 62 138 62 231 62 c 0,24,25
 271 62 271 62 309 80.5 c 128,-1,26
 347 99 347 99 373 131 c 1,27,-1
 373 241 l 1,28,-1
 303 241 l 2,29,30
 138 241 138 241 138 141 c 0,22,23
176 601 m 1,31,-1
 309 765 l 1,32,-1
 369 703 l 1,33,-1
 213 567 l 1,34,-1
 176 601 l 1,31,-1
EndSplineSet
EndChar

StartChar: acircumflex
Encoding: 226 226 163
Width: 544
GlyphClass: 2
Flags: W
LayerCount: 2
Fore
SplineSet
90 29 m 128,-1,1
 44 70 44 70 44 145.5 c 128,-1,2
 44 221 44 221 110 266 c 128,-1,3
 176 311 176 311 297 311 c 2,4,-1
 373 311 l 1,5,-1
 373 331 l 2,6,7
 373 395 373 395 346.5 422 c 128,-1,8
 320 449 320 449 253 449 c 128,-1,9
 186 449 186 449 101 412 c 1,10,-1
 73 477 l 1,11,12
 167 523 167 523 267 523 c 128,-1,13
 367 523 367 523 417 476.5 c 128,-1,14
 467 430 467 430 467 329 c 2,15,-1
 467 0 l 1,16,-1
 394 0 l 1,17,18
 390 24 390 24 381 60 c 1,19,20
 309 -12 309 -12 213 -12 c 0,21,0
 136 -12 136 -12 90 29 c 128,-1,1
138 141 m 0,22,23
 138 62 138 62 231 62 c 0,24,25
 271 62 271 62 309 80.5 c 128,-1,26
 347 99 347 99 373 131 c 1,27,-1
 373 241 l 1,28,-1
 303 241 l 2,29,30
 138 241 138 241 138 141 c 0,22,23
260 742 m 1,31,-1
 282 742 l 1,32,-1
 435 615 l 1,33,-1
 405 574 l 1,34,-1
 271 666 l 1,35,-1
 134 574 l 1,36,-1
 107 615 l 1,37,-1
 260 742 l 1,31,-1
EndSplineSet
EndChar

StartChar: atilde
Encoding: 227 227 164
Width: 544
GlyphClass: 2
Flags: W
LayerCount: 2
Fore
SplineSet
90 29 m 128,-1,1
 44 70 44 70 44 145.5 c 128,-1,2
 44 221 44 221 110 266 c 128,-1,3
 176 311 176 311 297 311 c 2,4,-1
 373 311 l 1,5,-1
 373 331 l 2,6,7
 373 395 373 395 346.5 422 c 128,-1,8
 320 449 320 449 253 449 c 128,-1,9
 186 449 186 449 101 412 c 1,10,-1
 73 477 l 1,11,12
 167 523 167 523 267 523 c 128,-1,13
 367 523 367 523 417 476.5 c 128,-1,14
 467 430 467 430 467 329 c 2,15,-1
 467 0 l 1,16,-1
 394 0 l 1,17,18
 390 24 390 24 381 60 c 1,19,20
 309 -12 309 -12 213 -12 c 0,21,0
 136 -12 136 -12 90 29 c 128,-1,1
138 141 m 0,22,23
 138 62 138 62 231 62 c 0,24,25
 271 62 271 62 309 80.5 c 128,-1,26
 347 99 347 99 373 131 c 1,27,-1
 373 241 l 1,28,-1
 303 241 l 2,29,30
 138 241 138 241 138 141 c 0,22,23
88 599 m 1,31,32
 88 653 88 653 118.5 685.5 c 128,-1,33
 149 718 149 718 201 718 c 0,34,35
 249 718 249 718 280.5 686.5 c 128,-1,36
 312 655 312 655 338 655 c 0,37,38
 389 655 389 655 389 709 c 1,39,-1
 448 709 l 1,40,41
 448 655 448 655 418.5 622.5 c 128,-1,42
 389 590 389 590 340 590 c 0,43,44
 308 590 308 590 284 606 c 128,-1,45
 260 622 260 622 240.5 638 c 128,-1,46
 221 654 221 654 198.5 654 c 128,-1,47
 176 654 176 654 161.5 639 c 128,-1,48
 147 624 147 624 147 599 c 1,49,-1
 88 599 l 1,31,32
EndSplineSet
EndChar

StartChar: adieresis
Encoding: 228 228 165
Width: 544
GlyphClass: 2
Flags: W
LayerCount: 2
Fore
SplineSet
90 29 m 128,-1,1
 44 70 44 70 44 145.5 c 128,-1,2
 44 221 44 221 110 266 c 128,-1,3
 176 311 176 311 297 311 c 2,4,-1
 373 311 l 1,5,-1
 373 331 l 2,6,7
 373 395 373 395 346.5 422 c 128,-1,8
 320 449 320 449 253 449 c 128,-1,9
 186 449 186 449 101 412 c 1,10,-1
 73 477 l 1,11,12
 167 523 167 523 267 523 c 128,-1,13
 367 523 367 523 417 476.5 c 128,-1,14
 467 430 467 430 467 329 c 2,15,-1
 467 0 l 1,16,-1
 394 0 l 1,17,18
 390 24 390 24 381 60 c 1,19,20
 309 -12 309 -12 213 -12 c 0,21,0
 136 -12 136 -12 90 29 c 128,-1,1
138 141 m 0,22,23
 138 62 138 62 231 62 c 0,24,25
 271 62 271 62 309 80.5 c 128,-1,26
 347 99 347 99 373 131 c 1,27,-1
 373 241 l 1,28,-1
 303 241 l 2,29,30
 138 241 138 241 138 141 c 0,22,23
134 716 m 1,31,-1
 227 716 l 1,32,-1
 227 623 l 1,33,-1
 134 623 l 1,34,-1
 134 716 l 1,31,-1
316 716 m 1,35,-1
 408 716 l 1,36,-1
 408 623 l 1,37,-1
 316 623 l 1,38,-1
 316 716 l 1,35,-1
EndSplineSet
EndChar

StartChar: aring
Encoding: 229 229 166
Width: 544
GlyphClass: 2
Flags: W
LayerCount: 2
Fore
SplineSet
90 29 m 128,-1,1
 44 70 44 70 44 145.5 c 128,-1,2
 44 221 44 221 110 266 c 128,-1,3
 176 311 176 311 297 311 c 2,4,-1
 373 311 l 1,5,-1
 373 331 l 2,6,7
 373 395 373 395 346.5 422 c 128,-1,8
 320 449 320 449 253 449 c 128,-1,9
 186 449 186 449 101 412 c 1,10,-1
 73 477 l 1,11,12
 167 523 167 523 267 523 c 128,-1,13
 367 523 367 523 417 476.5 c 128,-1,14
 467 430 467 430 467 329 c 2,15,-1
 467 0 l 1,16,-1
 394 0 l 1,17,18
 390 24 390 24 381 60 c 1,19,20
 309 -12 309 -12 213 -12 c 0,21,0
 136 -12 136 -12 90 29 c 128,-1,1
138 141 m 0,22,23
 138 62 138 62 231 62 c 0,24,25
 271 62 271 62 309 80.5 c 128,-1,26
 347 99 347 99 373 131 c 1,27,-1
 373 241 l 1,28,-1
 303 241 l 2,29,30
 138 241 138 241 138 141 c 0,22,23
173 656 m 128,-1,32
 173 697 173 697 202 726 c 128,-1,33
 231 755 231 755 272 755 c 128,-1,34
 313 755 313 755 342 726 c 128,-1,35
 371 697 371 697 371 656 c 128,-1,36
 371 615 371 615 342 586 c 128,-1,37
 313 557 313 557 272 557 c 128,-1,38
 231 557 231 557 202 586 c 128,-1,31
 173 615 173 615 173 656 c 128,-1,32
322 656 m 128,-1,40
 322 679 322 679 308 695 c 128,-1,41
 294 711 294 711 272 711 c 128,-1,42
 250 711 250 711 236.5 695.5 c 128,-1,43
 223 680 223 680 223 656.5 c 128,-1,44
 223 633 223 633 236.5 617.5 c 128,-1,45
 250 602 250 602 272 602 c 128,-1,46
 294 602 294 602 308 617.5 c 128,-1,39
 322 633 322 633 322 656 c 128,-1,40
EndSplineSet
EndChar

StartChar: ae
Encoding: 230 230 167
Width: 864
GlyphClass: 2
Flags: W
LayerCount: 2
Fore
SplineSet
90 29 m 128,-1,1
 44 70 44 70 44 145.5 c 128,-1,2
 44 221 44 221 110 266 c 128,-1,3
 176 311 176 311 297 311 c 2,4,-1
 373 311 l 1,5,-1
 373 331 l 2,6,7
 373 395 373 395 346.5 422 c 128,-1,8
 320 449 320 449 253 449 c 128,-1,9
 186 449 186 449 101 412 c 1,10,-1
 73 477 l 1,11,12
 167 523 167 523 258 523 c 0,13,14
 393 523 393 523 438 450 c 1,15,16
 500 523 500 523 612 523 c 0,17,18
 826 523 826 523 826 261 c 2,19,-1
 826 245 l 1,20,-1
 467 245 l 1,21,22
 469 158 469 158 508 112 c 128,-1,23
 547 66 547 66 619.5 66 c 128,-1,24
 692 66 692 66 779 105 c 1,25,-1
 806 41 l 1,26,27
 711 -8 711 -8 615 -8 c 0,28,29
 486 -8 486 -8 426 84 c 1,30,31
 329 -12 329 -12 213 -12 c 0,32,0
 136 -12 136 -12 90 29 c 128,-1,1
138 141 m 0,33,34
 138 62 138 62 231 62 c 0,35,36
 271 62 271 62 309 80.5 c 128,-1,37
 347 99 347 99 373 131 c 1,38,-1
 373 241 l 1,39,-1
 303 241 l 2,40,41
 138 241 138 241 138 141 c 0,33,34
612 449 m 0,42,43
 493 449 493 449 471 315 c 1,44,-1
 727 315 l 1,45,46
 720 384 720 384 692 416.5 c 128,-1,47
 664 449 664 449 612 449 c 0,42,43
EndSplineSet
EndChar

StartChar: ccedilla
Encoding: 231 231 168
Width: 494
GlyphClass: 2
Flags: W
LayerCount: 2
Fore
SplineSet
255 -91 m 2,0,-1
 233 -91 l 1,1,-1
 221 -71 l 1,2,-1
 252 -4 l 1,3,4
 149 7 149 7 97.5 76 c 128,-1,5
 46 145 46 145 46 263.5 c 128,-1,6
 46 382 46 382 108 452.5 c 128,-1,7
 170 523 170 523 289.5 523 c 128,-1,8
 409 523 409 523 470 438 c 1,9,-1
 407 391 l 1,10,11
 360 449 360 449 290.5 449 c 128,-1,12
 221 449 221 449 181.5 400.5 c 128,-1,13
 142 352 142 352 142 257.5 c 128,-1,14
 142 163 142 163 182.5 114.5 c 128,-1,15
 223 66 223 66 293.5 66 c 128,-1,16
 364 66 364 66 434 101 c 1,17,-1
 460 37 l 1,18,19
 388 -5 388 -5 294 -6 c 1,20,-1
 280 -52 l 1,21,22
 322 -57 322 -57 346 -79.5 c 128,-1,23
 370 -102 370 -102 370 -137.5 c 128,-1,24
 370 -173 370 -173 342.5 -196 c 128,-1,25
 315 -219 315 -219 269 -219 c 0,26,27
 233 -219 233 -219 207 -199 c 0,28,29
 198 -192 198 -192 185 -178 c 1,30,-1
 211 -147 l 1,31,32
 236 -175 236 -175 261 -175 c 0,33,34
 310 -175 310 -175 310 -135 c 0,35,36
 310 -114 310 -114 295.5 -102.5 c 128,-1,37
 281 -91 281 -91 255 -91 c 2,0,-1
EndSplineSet
EndChar

StartChar: egrave
Encoding: 232 232 169
Width: 539
GlyphClass: 2
Flags: W
LayerCount: 2
Fore
SplineSet
46 258 m 128,-1,1
 46 384 46 384 109 453.5 c 128,-1,2
 172 523 172 523 287 523 c 0,3,4
 501 523 501 523 501 261 c 2,5,-1
 501 245 l 1,6,-1
 142 245 l 1,7,8
 144 158 144 158 183 112 c 128,-1,9
 222 66 222 66 294.5 66 c 128,-1,10
 367 66 367 66 454 105 c 1,11,-1
 481 41 l 1,12,13
 386 -8 386 -8 290 -8 c 0,14,15
 174 -8 174 -8 110 62 c 128,-1,0
 46 132 46 132 46 258 c 128,-1,1
287 449 m 0,16,17
 168 449 168 449 146 315 c 1,18,-1
 402 315 l 1,19,20
 395 384 395 384 367 416.5 c 128,-1,21
 339 449 339 449 287 449 c 0,16,17
163 703 m 1,22,-1
 223 765 l 1,23,-1
 356 601 l 1,24,-1
 319 567 l 1,25,-1
 163 703 l 1,22,-1
EndSplineSet
EndChar

StartChar: eacute
Encoding: 233 233 170
Width: 539
GlyphClass: 2
Flags: W
LayerCount: 2
Fore
SplineSet
46 258 m 128,-1,1
 46 384 46 384 109 453.5 c 128,-1,2
 172 523 172 523 287 523 c 0,3,4
 501 523 501 523 501 261 c 2,5,-1
 501 245 l 1,6,-1
 142 245 l 1,7,8
 144 158 144 158 183 112 c 128,-1,9
 222 66 222 66 294.5 66 c 128,-1,10
 367 66 367 66 454 105 c 1,11,-1
 481 41 l 1,12,13
 386 -8 386 -8 290 -8 c 0,14,15
 174 -8 174 -8 110 62 c 128,-1,0
 46 132 46 132 46 258 c 128,-1,1
287 449 m 0,16,17
 168 449 168 449 146 315 c 1,18,-1
 402 315 l 1,19,20
 395 384 395 384 367 416.5 c 128,-1,21
 339 449 339 449 287 449 c 0,16,17
189 601 m 1,22,-1
 322 765 l 1,23,-1
 382 703 l 1,24,-1
 226 567 l 1,25,-1
 189 601 l 1,22,-1
EndSplineSet
EndChar

StartChar: ecircumflex
Encoding: 234 234 171
Width: 539
GlyphClass: 2
Flags: W
LayerCount: 2
Fore
SplineSet
46 258 m 128,-1,1
 46 384 46 384 109 453.5 c 128,-1,2
 172 523 172 523 287 523 c 0,3,4
 501 523 501 523 501 261 c 2,5,-1
 501 245 l 1,6,-1
 142 245 l 1,7,8
 144 158 144 158 183 112 c 128,-1,9
 222 66 222 66 294.5 66 c 128,-1,10
 367 66 367 66 454 105 c 1,11,-1
 481 41 l 1,12,13
 386 -8 386 -8 290 -8 c 0,14,15
 174 -8 174 -8 110 62 c 128,-1,0
 46 132 46 132 46 258 c 128,-1,1
287 449 m 0,16,17
 168 449 168 449 146 315 c 1,18,-1
 402 315 l 1,19,20
 395 384 395 384 367 416.5 c 128,-1,21
 339 449 339 449 287 449 c 0,16,17
273 742 m 1,22,-1
 295 742 l 1,23,-1
 448 615 l 1,24,-1
 418 574 l 1,25,-1
 284 666 l 1,26,-1
 147 574 l 1,27,-1
 120 615 l 1,28,-1
 273 742 l 1,22,-1
EndSplineSet
EndChar

StartChar: edieresis
Encoding: 235 235 172
Width: 539
GlyphClass: 2
Flags: W
LayerCount: 2
Fore
SplineSet
46 258 m 128,-1,1
 46 384 46 384 109 453.5 c 128,-1,2
 172 523 172 523 287 523 c 0,3,4
 501 523 501 523 501 261 c 2,5,-1
 501 245 l 1,6,-1
 142 245 l 1,7,8
 144 158 144 158 183 112 c 128,-1,9
 222 66 222 66 294.5 66 c 128,-1,10
 367 66 367 66 454 105 c 1,11,-1
 481 41 l 1,12,13
 386 -8 386 -8 290 -8 c 0,14,15
 174 -8 174 -8 110 62 c 128,-1,0
 46 132 46 132 46 258 c 128,-1,1
287 449 m 0,16,17
 168 449 168 449 146 315 c 1,18,-1
 402 315 l 1,19,20
 395 384 395 384 367 416.5 c 128,-1,21
 339 449 339 449 287 449 c 0,16,17
147 716 m 1,22,-1
 240 716 l 1,23,-1
 240 623 l 1,24,-1
 147 623 l 1,25,-1
 147 716 l 1,22,-1
329 716 m 1,26,-1
 421 716 l 1,27,-1
 421 623 l 1,28,-1
 329 623 l 1,29,-1
 329 716 l 1,26,-1
EndSplineSet
EndChar

StartChar: igrave
Encoding: 236 236 173
Width: 264
GlyphClass: 2
Flags: W
LayerCount: 2
Fore
SplineSet
86 0 m 1,0,-1
 86 514 l 1,1,-1
 178 514 l 1,2,-1
 178 0 l 1,3,-1
 86 0 l 1,0,-1
13 703 m 1,4,-1
 73 765 l 1,5,-1
 206 601 l 1,6,-1
 169 567 l 1,7,-1
 13 703 l 1,4,-1
EndSplineSet
EndChar

StartChar: iacute
Encoding: 237 237 174
Width: 264
GlyphClass: 2
Flags: W
LayerCount: 2
Fore
SplineSet
86 0 m 1,0,-1
 86 514 l 1,1,-1
 178 514 l 1,2,-1
 178 0 l 1,3,-1
 86 0 l 1,0,-1
39 601 m 1,4,-1
 172 765 l 1,5,-1
 232 703 l 1,6,-1
 76 567 l 1,7,-1
 39 601 l 1,4,-1
EndSplineSet
EndChar

StartChar: icircumflex
Encoding: 238 238 175
Width: 264
GlyphClass: 2
Flags: W
LayerCount: 2
Fore
SplineSet
86 0 m 1,0,-1
 86 514 l 1,1,-1
 178 514 l 1,2,-1
 178 0 l 1,3,-1
 86 0 l 1,0,-1
123 742 m 1,4,-1
 145 742 l 1,5,-1
 298 615 l 1,6,-1
 268 574 l 1,7,-1
 134 666 l 1,8,-1
 -3 574 l 1,9,-1
 -30 615 l 1,10,-1
 123 742 l 1,4,-1
EndSplineSet
EndChar

StartChar: idieresis
Encoding: 239 239 176
Width: 264
GlyphClass: 2
Flags: W
LayerCount: 2
Fore
SplineSet
86 0 m 1,0,-1
 86 514 l 1,1,-1
 178 514 l 1,2,-1
 178 0 l 1,3,-1
 86 0 l 1,0,-1
-3 716 m 1,4,-1
 90 716 l 1,5,-1
 90 623 l 1,6,-1
 -3 623 l 1,7,-1
 -3 716 l 1,4,-1
179 716 m 1,8,-1
 271 716 l 1,9,-1
 271 623 l 1,10,-1
 179 623 l 1,11,-1
 179 716 l 1,8,-1
EndSplineSet
EndChar

StartChar: eth
Encoding: 240 240 177
Width: 568
GlyphClass: 2
Flags: W
LayerCount: 2
Fore
SplineSet
268 500 m 1,0,-1
 214 534 l 1,1,-1
 270 614 l 1,2,3
 223 634 223 634 162 636 c 1,4,-1
 173 716 l 1,5,6
 255 713 255 713 320 685 c 1,7,-1
 355 735 l 1,8,-1
 409 701 l 1,9,-1
 376 654 l 1,10,11
 519 553 519 553 519 333 c 0,12,13
 519 -8 519 -8 266 -8 c 0,14,15
 161 -8 161 -8 94.5 56.5 c 128,-1,16
 28 121 28 121 28 220.5 c 128,-1,17
 28 320 28 320 92 381 c 128,-1,18
 156 442 156 442 255.5 442 c 128,-1,19
 355 442 355 442 416 383 c 1,20,21
 405 513 405 513 325 581 c 1,22,-1
 268 500 l 1,0,-1
265 74 m 0,23,24
 340 74 340 74 377 127.5 c 128,-1,25
 414 181 414 181 418 298 c 1,26,27
 388 330 388 330 356 346 c 128,-1,28
 324 362 324 362 265.5 362 c 128,-1,29
 207 362 207 362 167.5 324.5 c 128,-1,30
 128 287 128 287 128 223 c 128,-1,31
 128 159 128 159 167.5 116.5 c 128,-1,32
 207 74 207 74 265 74 c 0,23,24
EndSplineSet
EndChar

StartChar: ntilde
Encoding: 241 241 178
Width: 596
GlyphClass: 2
Flags: W
LayerCount: 2
Fore
SplineSet
82 0 m 1,0,-1
 82 514 l 1,1,-1
 159 514 l 1,2,-1
 169 442 l 1,3,4
 240 523 240 523 350 523 c 0,5,6
 432 523 432 523 475.5 476 c 128,-1,7
 519 429 519 429 519 340 c 2,8,-1
 519 0 l 1,9,-1
 425 0 l 1,10,-1
 425 333 l 2,11,12
 425 394 425 394 401.5 421.5 c 128,-1,13
 378 449 378 449 326 449 c 0,14,15
 228 449 228 449 176 368 c 1,16,-1
 176 0 l 1,17,-1
 82 0 l 1,0,-1
128 599 m 1,18,19
 128 653 128 653 158.5 685.5 c 128,-1,20
 189 718 189 718 241 718 c 0,21,22
 289 718 289 718 320.5 686.5 c 128,-1,23
 352 655 352 655 378 655 c 0,24,25
 429 655 429 655 429 709 c 1,26,-1
 488 709 l 1,27,28
 488 655 488 655 458.5 622.5 c 128,-1,29
 429 590 429 590 380 590 c 0,30,31
 348 590 348 590 324 606 c 128,-1,32
 300 622 300 622 280.5 638 c 128,-1,33
 261 654 261 654 238.5 654 c 128,-1,34
 216 654 216 654 201.5 639 c 128,-1,35
 187 624 187 624 187 599 c 1,36,-1
 128 599 l 1,18,19
EndSplineSet
EndChar

StartChar: ograve
Encoding: 242 242 179
Width: 580
GlyphClass: 2
Flags: W
LayerCount: 2
Fore
SplineSet
46 258 m 128,-1,1
 46 383 46 383 109.5 453 c 128,-1,2
 173 523 173 523 290 523 c 128,-1,3
 407 523 407 523 470.5 453 c 128,-1,4
 534 383 534 383 534 258 c 128,-1,5
 534 133 534 133 470.5 62.5 c 128,-1,6
 407 -8 407 -8 290 -8 c 128,-1,7
 173 -8 173 -8 109.5 62.5 c 128,-1,0
 46 133 46 133 46 258 c 128,-1,1
142 258 m 128,-1,9
 142 164 142 164 180.5 115 c 128,-1,10
 219 66 219 66 290 66 c 128,-1,11
 361 66 361 66 399.5 115 c 128,-1,12
 438 164 438 164 438 258 c 128,-1,13
 438 352 438 352 399.5 400.5 c 128,-1,14
 361 449 361 449 290 449 c 128,-1,15
 219 449 219 449 180.5 400.5 c 128,-1,8
 142 352 142 352 142 258 c 128,-1,9
168 703 m 1,16,-1
 228 765 l 1,17,-1
 361 601 l 1,18,-1
 324 567 l 1,19,-1
 168 703 l 1,16,-1
EndSplineSet
EndChar

StartChar: oacute
Encoding: 243 243 180
Width: 580
GlyphClass: 2
Flags: W
LayerCount: 2
Fore
SplineSet
46 258 m 128,-1,1
 46 383 46 383 109.5 453 c 128,-1,2
 173 523 173 523 290 523 c 128,-1,3
 407 523 407 523 470.5 453 c 128,-1,4
 534 383 534 383 534 258 c 128,-1,5
 534 133 534 133 470.5 62.5 c 128,-1,6
 407 -8 407 -8 290 -8 c 128,-1,7
 173 -8 173 -8 109.5 62.5 c 128,-1,0
 46 133 46 133 46 258 c 128,-1,1
142 258 m 128,-1,9
 142 164 142 164 180.5 115 c 128,-1,10
 219 66 219 66 290 66 c 128,-1,11
 361 66 361 66 399.5 115 c 128,-1,12
 438 164 438 164 438 258 c 128,-1,13
 438 352 438 352 399.5 400.5 c 128,-1,14
 361 449 361 449 290 449 c 128,-1,15
 219 449 219 449 180.5 400.5 c 128,-1,8
 142 352 142 352 142 258 c 128,-1,9
194 601 m 1,16,-1
 327 765 l 1,17,-1
 387 703 l 1,18,-1
 231 567 l 1,19,-1
 194 601 l 1,16,-1
EndSplineSet
EndChar

StartChar: ocircumflex
Encoding: 244 244 181
Width: 580
GlyphClass: 2
Flags: W
LayerCount: 2
Fore
SplineSet
46 258 m 128,-1,1
 46 383 46 383 109.5 453 c 128,-1,2
 173 523 173 523 290 523 c 128,-1,3
 407 523 407 523 470.5 453 c 128,-1,4
 534 383 534 383 534 258 c 128,-1,5
 534 133 534 133 470.5 62.5 c 128,-1,6
 407 -8 407 -8 290 -8 c 128,-1,7
 173 -8 173 -8 109.5 62.5 c 128,-1,0
 46 133 46 133 46 258 c 128,-1,1
142 258 m 128,-1,9
 142 164 142 164 180.5 115 c 128,-1,10
 219 66 219 66 290 66 c 128,-1,11
 361 66 361 66 399.5 115 c 128,-1,12
 438 164 438 164 438 258 c 128,-1,13
 438 352 438 352 399.5 400.5 c 128,-1,14
 361 449 361 449 290 449 c 128,-1,15
 219 449 219 449 180.5 400.5 c 128,-1,8
 142 352 142 352 142 258 c 128,-1,9
278 742 m 1,16,-1
 300 742 l 1,17,-1
 453 615 l 1,18,-1
 423 574 l 1,19,-1
 289 666 l 1,20,-1
 152 574 l 1,21,-1
 125 615 l 1,22,-1
 278 742 l 1,16,-1
EndSplineSet
EndChar

StartChar: otilde
Encoding: 245 245 182
Width: 580
GlyphClass: 2
Flags: W
LayerCount: 2
Fore
SplineSet
46 258 m 128,-1,1
 46 383 46 383 109.5 453 c 128,-1,2
 173 523 173 523 290 523 c 128,-1,3
 407 523 407 523 470.5 453 c 128,-1,4
 534 383 534 383 534 258 c 128,-1,5
 534 133 534 133 470.5 62.5 c 128,-1,6
 407 -8 407 -8 290 -8 c 128,-1,7
 173 -8 173 -8 109.5 62.5 c 128,-1,0
 46 133 46 133 46 258 c 128,-1,1
142 258 m 128,-1,9
 142 164 142 164 180.5 115 c 128,-1,10
 219 66 219 66 290 66 c 128,-1,11
 361 66 361 66 399.5 115 c 128,-1,12
 438 164 438 164 438 258 c 128,-1,13
 438 352 438 352 399.5 400.5 c 128,-1,14
 361 449 361 449 290 449 c 128,-1,15
 219 449 219 449 180.5 400.5 c 128,-1,8
 142 352 142 352 142 258 c 128,-1,9
106 599 m 1,16,17
 106 653 106 653 136.5 685.5 c 128,-1,18
 167 718 167 718 219 718 c 0,19,20
 267 718 267 718 298.5 686.5 c 128,-1,21
 330 655 330 655 356 655 c 0,22,23
 407 655 407 655 407 709 c 1,24,-1
 466 709 l 1,25,26
 466 655 466 655 436.5 622.5 c 128,-1,27
 407 590 407 590 358 590 c 0,28,29
 326 590 326 590 302 606 c 128,-1,30
 278 622 278 622 258.5 638 c 128,-1,31
 239 654 239 654 216.5 654 c 128,-1,32
 194 654 194 654 179.5 639 c 128,-1,33
 165 624 165 624 165 599 c 1,34,-1
 106 599 l 1,16,17
EndSplineSet
EndChar

StartChar: odieresis
Encoding: 246 246 183
Width: 580
GlyphClass: 2
Flags: W
LayerCount: 2
Fore
SplineSet
46 258 m 128,-1,1
 46 383 46 383 109.5 453 c 128,-1,2
 173 523 173 523 290 523 c 128,-1,3
 407 523 407 523 470.5 453 c 128,-1,4
 534 383 534 383 534 258 c 128,-1,5
 534 133 534 133 470.5 62.5 c 128,-1,6
 407 -8 407 -8 290 -8 c 128,-1,7
 173 -8 173 -8 109.5 62.5 c 128,-1,0
 46 133 46 133 46 258 c 128,-1,1
142 258 m 128,-1,9
 142 164 142 164 180.5 115 c 128,-1,10
 219 66 219 66 290 66 c 128,-1,11
 361 66 361 66 399.5 115 c 128,-1,12
 438 164 438 164 438 258 c 128,-1,13
 438 352 438 352 399.5 400.5 c 128,-1,14
 361 449 361 449 290 449 c 128,-1,15
 219 449 219 449 180.5 400.5 c 128,-1,8
 142 352 142 352 142 258 c 128,-1,9
152 716 m 1,16,-1
 245 716 l 1,17,-1
 245 623 l 1,18,-1
 152 623 l 1,19,-1
 152 716 l 1,16,-1
334 716 m 1,20,-1
 426 716 l 1,21,-1
 426 623 l 1,22,-1
 334 623 l 1,23,-1
 334 716 l 1,20,-1
EndSplineSet
EndChar

StartChar: divide
Encoding: 247 247 184
Width: 640
GlyphClass: 2
Flags: W
LayerCount: 2
Fore
SplineSet
86 271 m 1,0,-1
 86 343 l 1,1,-1
 553 343 l 1,2,-1
 553 271 l 1,3,-1
 86 271 l 1,0,-1
274 86 m 1,4,-1
 274 170 l 1,5,-1
 362 170 l 1,6,-1
 362 86 l 1,7,-1
 274 86 l 1,4,-1
274 448 m 1,8,-1
 274 532 l 1,9,-1
 362 532 l 1,10,-1
 362 448 l 1,11,-1
 274 448 l 1,8,-1
EndSplineSet
EndChar

StartChar: oslash
Encoding: 248 248 185
Width: 580
GlyphClass: 2
Flags: W
LayerCount: 2
Fore
SplineSet
46 258 m 0,0,1
 46 383 46 383 109.5 453 c 128,-1,2
 173 523 173 523 290 523 c 0,3,4
 314 523 314 523 336 520 c 1,5,-1
 351 567 l 1,6,-1
 419 567 l 1,7,-1
 398 503 l 1,8,9
 464 476 464 476 499 413 c 128,-1,10
 534 350 534 350 534 258 c 0,11,12
 534 133 534 133 470.5 62.5 c 128,-1,13
 407 -8 407 -8 290 -8 c 0,14,15
 259 -8 259 -8 236 -4 c 1,16,-1
 218 -61 l 1,17,-1
 150 -61 l 1,18,-1
 174 15 l 1,19,20
 46 74 46 74 46 258 c 0,0,1
438 258 m 0,21,22
 438 380 438 380 373 425 c 1,23,-1
 259 68 l 1,24,25
 279 66 279 66 290 66 c 0,26,27
 361 66 361 66 399.5 115 c 128,-1,28
 438 164 438 164 438 258 c 0,21,22
142 258 m 0,29,30
 142 141 142 141 200 95 c 1,31,-1
 313 447 l 1,32,33
 297 449 297 449 290 449 c 0,34,35
 219 449 219 449 180.5 400.5 c 128,-1,36
 142 352 142 352 142 258 c 0,29,30
EndSplineSet
EndChar

StartChar: ugrave
Encoding: 249 249 186
Width: 596
GlyphClass: 2
Flags: W
LayerCount: 2
Fore
SplineSet
77 174 m 2,0,-1
 77 514 l 1,1,-1
 171 514 l 1,2,-1
 171 181 l 2,3,4
 171 120 171 120 194.5 92.5 c 128,-1,5
 218 65 218 65 270 65 c 0,6,7
 366 65 366 65 420 145 c 1,8,-1
 420 514 l 1,9,-1
 514 514 l 1,10,-1
 514 0 l 1,11,-1
 437 0 l 1,12,-1
 426 71 l 1,13,14
 359 -9 359 -9 252 -9 c 0,15,16
 165 -9 165 -9 121 37.5 c 128,-1,17
 77 84 77 84 77 174 c 2,0,-1
176 703 m 1,18,-1
 236 765 l 1,19,-1
 369 601 l 1,20,-1
 332 567 l 1,21,-1
 176 703 l 1,18,-1
EndSplineSet
EndChar

StartChar: uacute
Encoding: 250 250 187
Width: 596
GlyphClass: 2
Flags: W
LayerCount: 2
Fore
SplineSet
77 174 m 2,0,-1
 77 514 l 1,1,-1
 171 514 l 1,2,-1
 171 181 l 2,3,4
 171 120 171 120 194.5 92.5 c 128,-1,5
 218 65 218 65 270 65 c 0,6,7
 366 65 366 65 420 145 c 1,8,-1
 420 514 l 1,9,-1
 514 514 l 1,10,-1
 514 0 l 1,11,-1
 437 0 l 1,12,-1
 426 71 l 1,13,14
 359 -9 359 -9 252 -9 c 0,15,16
 165 -9 165 -9 121 37.5 c 128,-1,17
 77 84 77 84 77 174 c 2,0,-1
202 601 m 1,18,-1
 335 765 l 1,19,-1
 395 703 l 1,20,-1
 239 567 l 1,21,-1
 202 601 l 1,18,-1
EndSplineSet
EndChar

StartChar: ucircumflex
Encoding: 251 251 188
Width: 596
GlyphClass: 2
Flags: W
LayerCount: 2
Fore
SplineSet
77 174 m 2,0,-1
 77 514 l 1,1,-1
 171 514 l 1,2,-1
 171 181 l 2,3,4
 171 120 171 120 194.5 92.5 c 128,-1,5
 218 65 218 65 270 65 c 0,6,7
 366 65 366 65 420 145 c 1,8,-1
 420 514 l 1,9,-1
 514 514 l 1,10,-1
 514 0 l 1,11,-1
 437 0 l 1,12,-1
 426 71 l 1,13,14
 359 -9 359 -9 252 -9 c 0,15,16
 165 -9 165 -9 121 37.5 c 128,-1,17
 77 84 77 84 77 174 c 2,0,-1
286 742 m 1,18,-1
 308 742 l 1,19,-1
 461 615 l 1,20,-1
 431 574 l 1,21,-1
 297 666 l 1,22,-1
 160 574 l 1,23,-1
 133 615 l 1,24,-1
 286 742 l 1,18,-1
EndSplineSet
EndChar

StartChar: udieresis
Encoding: 252 252 189
Width: 596
GlyphClass: 2
Flags: W
LayerCount: 2
Fore
SplineSet
77 174 m 2,0,-1
 77 514 l 1,1,-1
 171 514 l 1,2,-1
 171 181 l 2,3,4
 171 120 171 120 194.5 92.5 c 128,-1,5
 218 65 218 65 270 65 c 0,6,7
 366 65 366 65 420 145 c 1,8,-1
 420 514 l 1,9,-1
 514 514 l 1,10,-1
 514 0 l 1,11,-1
 437 0 l 1,12,-1
 426 71 l 1,13,14
 359 -9 359 -9 252 -9 c 0,15,16
 165 -9 165 -9 121 37.5 c 128,-1,17
 77 84 77 84 77 174 c 2,0,-1
160 716 m 1,18,-1
 253 716 l 1,19,-1
 253 623 l 1,20,-1
 160 623 l 1,21,-1
 160 716 l 1,18,-1
342 716 m 1,22,-1
 434 716 l 1,23,-1
 434 623 l 1,24,-1
 342 623 l 1,25,-1
 342 716 l 1,22,-1
EndSplineSet
EndChar

StartChar: yacute
Encoding: 253 253 190
Width: 508
GlyphClass: 2
Flags: W
LayerCount: 2
Fore
SplineSet
193 0 m 1,0,-1
 11 514 l 1,1,-1
 108 514 l 1,2,-1
 258 78 l 1,3,-1
 407 514 l 1,4,-1
 498 514 l 1,5,-1
 233 -246 l 1,6,-1
 148 -246 l 1,7,-1
 232 0 l 1,8,-1
 193 0 l 1,0,-1
169 601 m 1,9,-1
 302 765 l 1,10,-1
 362 703 l 1,11,-1
 206 567 l 1,12,-1
 169 601 l 1,9,-1
EndSplineSet
EndChar

StartChar: thorn
Encoding: 254 254 191
Width: 592
GlyphClass: 2
Flags: W
LayerCount: 2
Fore
SplineSet
487.5 456.5 m 128,-1,1
 547 390 547 390 547 263.5 c 128,-1,2
 547 137 547 137 476.5 64.5 c 128,-1,3
 406 -8 406 -8 283 -8 c 0,4,5
 227 -8 227 -8 176 5 c 1,6,-1
 176 -245 l 1,7,-1
 82 -245 l 1,8,-1
 82 758 l 1,9,-1
 176 758 l 1,10,-1
 176 459 l 1,11,12
 231 523 231 523 329.5 523 c 128,-1,0
 428 523 428 523 487.5 456.5 c 128,-1,1
415.5 401.5 m 128,-1,14
 380 449 380 449 322 449 c 128,-1,15
 264 449 264 449 227.5 422 c 128,-1,16
 191 395 191 395 176 347 c 1,17,-1
 176 80 l 1,18,19
 227 66 227 66 282 66 c 0,20,21
 361 66 361 66 406 118.5 c 128,-1,22
 451 171 451 171 451 262.5 c 128,-1,13
 451 354 451 354 415.5 401.5 c 128,-1,14
EndSplineSet
EndChar

StartChar: ydieresis
Encoding: 255 255 192
Width: 508
GlyphClass: 2
Flags: W
LayerCount: 2
Fore
SplineSet
193 0 m 1,0,-1
 11 514 l 1,1,-1
 108 514 l 1,2,-1
 258 78 l 1,3,-1
 407 514 l 1,4,-1
 498 514 l 1,5,-1
 233 -246 l 1,6,-1
 148 -246 l 1,7,-1
 232 0 l 1,8,-1
 193 0 l 1,0,-1
127 716 m 1,9,-1
 220 716 l 1,10,-1
 220 623 l 1,11,-1
 127 623 l 1,12,-1
 127 716 l 1,9,-1
309 716 m 1,13,-1
 401 716 l 1,14,-1
 401 623 l 1,15,-1
 309 623 l 1,16,-1
 309 716 l 1,13,-1
EndSplineSet
EndChar

StartChar: hbar
Encoding: 295 295 193
Width: 599
GlyphClass: 2
Flags: W
LayerCount: 2
Fore
SplineSet
19 605 m 1,0,-1
 19 675 l 1,1,-1
 85 675 l 1,2,-1
 85 759 l 1,3,-1
 179 759 l 1,4,-1
 179 675 l 1,5,-1
 323 675 l 1,6,-1
 323 605 l 1,7,-1
 179 605 l 1,8,-1
 179 449 l 1,9,10
 247 523 247 523 353 523 c 0,11,12
 435 523 435 523 478.5 476 c 128,-1,13
 522 429 522 429 522 340 c 2,14,-1
 522 0 l 1,15,-1
 428 0 l 1,16,-1
 428 333 l 2,17,18
 428 394 428 394 404.5 421.5 c 128,-1,19
 381 449 381 449 329 449 c 0,20,21
 231 449 231 449 179 368 c 1,22,-1
 179 0 l 1,23,-1
 85 0 l 1,24,-1
 85 605 l 1,25,-1
 19 605 l 1,0,-1
EndSplineSet
EndChar

StartChar: Itilde
Encoding: 296 296 194
Width: 271
GlyphClass: 2
Flags: W
LayerCount: 2
Fore
SplineSet
88 0 m 1,0,-1
 88 711 l 1,1,-1
 183 711 l 1,2,-1
 183 0 l 1,3,-1
 88 0 l 1,0,-1
-47 779 m 1,4,5
 -47 833 -47 833 -16.5 865.5 c 128,-1,6
 14 898 14 898 66 898 c 0,7,8
 114 898 114 898 145.5 866.5 c 128,-1,9
 177 835 177 835 203 835 c 0,10,11
 254 835 254 835 254 889 c 1,12,-1
 313 889 l 1,13,14
 313 835 313 835 283.5 802.5 c 128,-1,15
 254 770 254 770 205 770 c 0,16,17
 173 770 173 770 149 786 c 128,-1,18
 125 802 125 802 105.5 818 c 128,-1,19
 86 834 86 834 63.5 834 c 128,-1,20
 41 834 41 834 26.5 819 c 128,-1,21
 12 804 12 804 12 779 c 1,22,-1
 -47 779 l 1,4,5
EndSplineSet
EndChar

StartChar: itilde
Encoding: 297 297 195
Width: 264
GlyphClass: 2
Flags: W
LayerCount: 2
Fore
SplineSet
86 0 m 1,0,-1
 86 514 l 1,1,-1
 178 514 l 1,2,-1
 178 0 l 1,3,-1
 86 0 l 1,0,-1
-49 599 m 1,4,5
 -49 653 -49 653 -18.5 685.5 c 128,-1,6
 12 718 12 718 64 718 c 0,7,8
 112 718 112 718 143.5 686.5 c 128,-1,9
 175 655 175 655 201 655 c 0,10,11
 252 655 252 655 252 709 c 1,12,-1
 311 709 l 1,13,14
 311 655 311 655 281.5 622.5 c 128,-1,15
 252 590 252 590 203 590 c 0,16,17
 171 590 171 590 147 606 c 128,-1,18
 123 622 123 622 103.5 638 c 128,-1,19
 84 654 84 654 61.5 654 c 128,-1,20
 39 654 39 654 24.5 639 c 128,-1,21
 10 624 10 624 10 599 c 1,22,-1
 -49 599 l 1,4,5
EndSplineSet
EndChar

StartChar: dotlessi
Encoding: 305 305 196
Width: 264
GlyphClass: 2
Flags: W
LayerCount: 2
Fore
SplineSet
86 0 m 1,0,-1
 86 514 l 1,1,-1
 178 514 l 1,2,-1
 178 0 l 1,3,-1
 86 0 l 1,0,-1
EndSplineSet
EndChar

StartChar: IJ
Encoding: 306 306 197
Width: 631
GlyphClass: 2
Flags: W
LayerCount: 2
Fore
SplineSet
88 0 m 1,0,-1
 88 711 l 1,1,-1
 183 711 l 1,2,-1
 183 0 l 1,3,-1
 88 0 l 1,0,-1
293 -64 m 1,4,5
 299 -61 299 -61 310 -56 c 128,-1,6
 321 -51 321 -51 348 -33.5 c 128,-1,7
 375 -16 375 -16 396 3.5 c 128,-1,8
 417 23 417 23 434 55 c 128,-1,9
 451 87 451 87 451 121 c 2,10,-1
 451 627 l 1,11,-1
 312 627 l 1,12,-1
 312 708 l 1,13,-1
 545 708 l 1,14,-1
 545 121 l 2,15,16
 545 70 545 70 523.5 24.5 c 128,-1,17
 502 -21 502 -21 470 -50 c 0,18,19
 407 -108 407 -108 356 -130 c 1,20,-1
 334 -139 l 1,21,-1
 293 -64 l 1,4,5
EndSplineSet
EndChar

StartChar: ij
Encoding: 307 307 198
Width: 530
GlyphClass: 2
Flags: W
LayerCount: 2
Fore
SplineSet
86 621 m 1,0,-1
 86 708 l 1,1,-1
 178 708 l 1,2,-1
 178 621 l 1,3,-1
 86 621 l 1,0,-1
86 0 m 1,4,-1
 86 514 l 1,5,-1
 178 514 l 1,6,-1
 178 0 l 1,7,-1
 86 0 l 1,4,-1
353 621 m 1,8,-1
 353 708 l 1,9,-1
 445 708 l 1,10,-1
 445 621 l 1,11,-1
 353 621 l 1,8,-1
353 85 m 2,12,-1
 353 514 l 1,13,-1
 445 514 l 1,14,-1
 445 85 l 2,15,16
 445 14 445 14 411.5 -50 c 128,-1,17
 378 -114 378 -114 302 -187 c 1,18,-1
 252 -145 l 1,19,20
 353 -16 353 -16 353 85 c 2,12,-1
EndSplineSet
EndChar

StartChar: Jcircumflex
Encoding: 308 308 199
Width: 360
GlyphClass: 2
Flags: W
LayerCount: 2
Fore
SplineSet
22 -64 m 1,0,1
 28 -61 28 -61 39 -56 c 128,-1,2
 50 -51 50 -51 77 -33.5 c 128,-1,3
 104 -16 104 -16 125 3.5 c 128,-1,4
 146 23 146 23 163 55 c 128,-1,5
 180 87 180 87 180 121 c 2,6,-1
 180 627 l 1,7,-1
 41 627 l 1,8,-1
 41 708 l 1,9,-1
 274 708 l 1,10,-1
 274 121 l 2,11,12
 274 70 274 70 252.5 24.5 c 128,-1,13
 231 -21 231 -21 200 -50 c 0,14,15
 136 -108 136 -108 84 -130 c 2,16,-1
 63 -139 l 1,17,-1
 22 -64 l 1,0,1
163 922 m 1,18,-1
 185 922 l 1,19,-1
 338 795 l 1,20,-1
 308 754 l 1,21,-1
 174 846 l 1,22,-1
 37 754 l 1,23,-1
 10 795 l 1,24,-1
 163 922 l 1,18,-1
EndSplineSet
EndChar

StartChar: jcircumflex
Encoding: 309 309 200
Width: 266
GlyphClass: 2
Flags: W
LayerCount: 2
Fore
SplineSet
89 85 m 2,0,-1
 89 514 l 1,1,-1
 181 514 l 1,2,-1
 181 85 l 2,3,4
 181 14 181 14 147.5 -50 c 128,-1,5
 114 -114 114 -114 38 -187 c 1,6,-1
 -12 -145 l 1,7,8
 89 -16 89 -16 89 85 c 2,0,-1
122 742 m 1,9,-1
 144 742 l 1,10,-1
 297 615 l 1,11,-1
 267 574 l 1,12,-1
 133 666 l 1,13,-1
 -4 574 l 1,14,-1
 -31 615 l 1,15,-1
 122 742 l 1,9,-1
EndSplineSet
EndChar

StartChar: kcommaaccent
Encoding: 311 311 201
Width: 525
GlyphClass: 2
Flags: W
LayerCount: 2
Fore
SplineSet
85 0 m 1,0,-1
 85 759 l 1,1,-1
 179 759 l 1,2,-1
 179 0 l 1,3,-1
 85 0 l 1,0,-1
195 292 m 1,4,-1
 380 514 l 1,5,-1
 486 514 l 1,6,-1
 303 297 l 1,7,-1
 523 0 l 1,8,-1
 412 0 l 1,9,-1
 195 292 l 1,4,-1
232 -42 m 1,10,-1
 332 -42 l 1,11,-1
 332 -122 l 1,12,-1
 313 -260 l 1,13,-1
 277 -260 l 1,14,-1
 277 -142 l 1,15,-1
 232 -142 l 1,16,-1
 232 -42 l 1,10,-1
EndSplineSet
EndChar

StartChar: kgreenlandic
Encoding: 312 312 202
Width: 525
GlyphClass: 2
Flags: W
LayerCount: 2
Fore
SplineSet
85 0 m 1,0,-1
 85 759 l 1,1,-1
 179 759 l 1,2,-1
 179 0 l 1,3,-1
 85 0 l 1,0,-1
195 292 m 1,4,-1
 380 514 l 1,5,-1
 486 514 l 1,6,-1
 303 297 l 1,7,-1
 523 0 l 1,8,-1
 412 0 l 1,9,-1
 195 292 l 1,4,-1
EndSplineSet
EndChar

StartChar: ldot
Encoding: 320 320 203
Width: 401
GlyphClass: 2
Flags: W
LayerCount: 2
Fore
SplineSet
86 0 m 1,0,-1
 86 759 l 1,1,-1
 178 759 l 1,2,-1
 178 0 l 1,3,-1
 86 0 l 1,0,-1
252 489 m 1,4,-1
 252 589 l 1,5,-1
 352 589 l 1,6,-1
 352 489 l 1,7,-1
 252 489 l 1,4,-1
EndSplineSet
EndChar

StartChar: Lslash
Encoding: 321 321 204
Width: 532
GlyphClass: 2
Flags: W
LayerCount: 2
Fore
SplineSet
34 251 m 1,0,-1
 -6 321 l 1,1,-1
 85 373 l 1,2,-1
 85 708 l 1,3,-1
 180 708 l 1,4,-1
 180 428 l 1,5,-1
 288 491 l 1,6,-1
 328 421 l 1,7,-1
 180 335 l 1,8,-1
 180 83 l 1,9,-1
 504 83 l 1,10,-1
 504 0 l 1,11,-1
 85 0 l 1,12,-1
 85 280 l 1,13,-1
 34 251 l 1,0,-1
EndSplineSet
EndChar

StartChar: lslash
Encoding: 322 322 205
Width: 264
GlyphClass: 2
Flags: W
LayerCount: 2
Fore
SplineSet
20 289 m 1,0,-1
 -20 359 l 1,1,-1
 86 420 l 1,2,-1
 86 759 l 1,3,-1
 178 759 l 1,4,-1
 178 473 l 1,5,-1
 250 515 l 1,6,-1
 290 445 l 1,7,-1
 178 380 l 1,8,-1
 178 0 l 1,9,-1
 86 0 l 1,10,-1
 86 327 l 1,11,-1
 20 289 l 1,0,-1
EndSplineSet
EndChar

StartChar: Nacute
Encoding: 323 323 206
Width: 703
GlyphClass: 2
Flags: W
LayerCount: 2
Fore
SplineSet
83 0 m 1,0,-1
 83 708 l 1,1,-1
 195 708 l 1,2,-1
 427 333 l 1,3,4
 444 308 444 308 472 256.5 c 128,-1,5
 500 205 500 205 513 182 c 128,-1,6
 526 159 526 159 526 158 c 2,7,-1
 526 708 l 1,8,-1
 620 708 l 1,9,-1
 620 0 l 1,10,-1
 523 0 l 1,11,-1
 274 410 l 1,12,-1
 175 585 l 1,13,-1
 175 0 l 1,14,-1
 83 0 l 1,0,-1
261 781 m 1,15,-1
 394 945 l 1,16,-1
 454 883 l 1,17,-1
 298 747 l 1,18,-1
 261 781 l 1,15,-1
EndSplineSet
EndChar

StartChar: nacute
Encoding: 324 324 207
Width: 596
GlyphClass: 2
Flags: W
LayerCount: 2
Fore
SplineSet
82 0 m 1,0,-1
 82 514 l 1,1,-1
 159 514 l 1,2,-1
 169 442 l 1,3,4
 240 523 240 523 350 523 c 0,5,6
 432 523 432 523 475.5 476 c 128,-1,7
 519 429 519 429 519 340 c 2,8,-1
 519 0 l 1,9,-1
 425 0 l 1,10,-1
 425 333 l 2,11,12
 425 394 425 394 401.5 421.5 c 128,-1,13
 378 449 378 449 326 449 c 0,14,15
 228 449 228 449 176 368 c 1,16,-1
 176 0 l 1,17,-1
 82 0 l 1,0,-1
216 601 m 1,18,-1
 349 765 l 1,19,-1
 409 703 l 1,20,-1
 253 567 l 1,21,-1
 216 601 l 1,18,-1
EndSplineSet
EndChar

StartChar: OE
Encoding: 338 338 208
Width: 1084
GlyphClass: 2
Flags: W
LayerCount: 2
Fore
SplineSet
601 0 m 1,0,-1
 601 86 l 1,1,2
 521 -11 521 -11 370 -11 c 128,-1,3
 219 -11 219 -11 134.5 86 c 128,-1,4
 50 183 50 183 50 354.5 c 128,-1,5
 50 526 50 526 134 621 c 128,-1,6
 218 716 218 716 369 716 c 128,-1,7
 520 716 520 716 601 621 c 1,8,-1
 601 708 l 1,9,-1
 1022 708 l 1,10,-1
 1022 627 l 1,11,-1
 696 627 l 1,12,-1
 696 412 l 1,13,-1
 989 412 l 1,14,-1
 989 330 l 1,15,-1
 696 330 l 1,16,-1
 696 83 l 1,17,-1
 1033 83 l 1,18,-1
 1033 0 l 1,19,-1
 601 0 l 1,0,-1
375 69 m 128,-1,21
 483 69 483 69 541.5 141.5 c 128,-1,22
 600 214 600 214 600 354.5 c 128,-1,23
 600 495 600 495 541.5 565.5 c 128,-1,24
 483 636 483 636 375 636 c 128,-1,25
 267 636 267 636 208.5 566 c 128,-1,26
 150 496 150 496 150 354.5 c 128,-1,27
 150 213 150 213 208.5 141 c 128,-1,20
 267 69 267 69 375 69 c 128,-1,21
EndSplineSet
EndChar

StartChar: oe
Encoding: 339 339 209
Width: 892
GlyphClass: 2
Flags: W
LayerCount: 2
Fore
SplineSet
46 258 m 128,-1,1
 46 383 46 383 106.5 453 c 128,-1,2
 167 523 167 523 280 523 c 0,3,4
 408 523 408 523 464 420 c 1,5,6
 519 523 519 523 650 523 c 0,7,8
 854 523 854 523 854 261 c 2,9,-1
 854 245 l 1,10,-1
 515 245 l 1,11,12
 517 158 517 158 553.5 112 c 128,-1,13
 590 66 590 66 658 66 c 128,-1,14
 726 66 726 66 807 105 c 1,15,-1
 834 41 l 1,16,17
 744 -8 744 -8 653 -8 c 0,18,19
 521 -8 521 -8 464 96 c 1,20,21
 410 -8 410 -8 280 -8 c 0,22,23
 168 -8 168 -8 107 62.5 c 128,-1,0
 46 133 46 133 46 258 c 128,-1,1
142 258 m 128,-1,25
 142 164 142 164 178 115 c 128,-1,26
 214 66 214 66 280 66 c 128,-1,27
 346 66 346 66 382 115 c 128,-1,28
 418 164 418 164 418 258 c 128,-1,29
 418 352 418 352 382 400.5 c 128,-1,30
 346 449 346 449 280 449 c 128,-1,31
 214 449 214 449 178 400.5 c 128,-1,24
 142 352 142 352 142 258 c 128,-1,25
650 449 m 0,32,33
 539 449 539 449 519 315 c 1,34,-1
 755 315 l 1,35,36
 748 385 748 385 722.5 417 c 128,-1,37
 697 449 697 449 650 449 c 0,32,33
EndSplineSet
EndChar

StartChar: Racute
Encoding: 340 340 210
Width: 596
GlyphClass: 2
Flags: W
LayerCount: 2
Fore
SplineSet
572 0 m 1,0,-1
 467 0 l 1,1,-1
 295 291 l 1,2,-1
 181 291 l 1,3,-1
 181 0 l 1,4,-1
 85 0 l 1,5,-1
 85 708 l 1,6,-1
 294 708 l 2,7,8
 415 708 415 708 476 653.5 c 128,-1,9
 537 599 537 599 537 500 c 0,10,11
 537 425 537 425 500.5 374.5 c 128,-1,12
 464 324 464 324 393 304 c 1,13,-1
 572 0 l 1,0,-1
181 628 m 1,14,-1
 181 371 l 1,15,-1
 294 371 l 2,16,17
 363 371 363 371 400 404 c 128,-1,18
 437 437 437 437 437 500 c 128,-1,19
 437 563 437 563 400.5 595.5 c 128,-1,20
 364 628 364 628 294 628 c 2,21,-1
 181 628 l 1,14,-1
188 781 m 1,22,-1
 321 945 l 1,23,-1
 381 883 l 1,24,-1
 225 747 l 1,25,-1
 188 781 l 1,22,-1
EndSplineSet
EndChar

StartChar: Rcommaaccent
Encoding: 342 342 211
Width: 596
GlyphClass: 2
Flags: W
LayerCount: 2
Fore
SplineSet
572 0 m 1,0,-1
 467 0 l 1,1,-1
 295 291 l 1,2,-1
 181 291 l 1,3,-1
 181 0 l 1,4,-1
 85 0 l 1,5,-1
 85 708 l 1,6,-1
 294 708 l 2,7,8
 415 708 415 708 476 653.5 c 128,-1,9
 537 599 537 599 537 500 c 0,10,11
 537 425 537 425 500.5 374.5 c 128,-1,12
 464 324 464 324 393 304 c 1,13,-1
 572 0 l 1,0,-1
181 628 m 1,14,-1
 181 371 l 1,15,-1
 294 371 l 2,16,17
 363 371 363 371 400 404 c 128,-1,18
 437 437 437 437 437 500 c 128,-1,19
 437 563 437 563 400.5 595.5 c 128,-1,20
 364 628 364 628 294 628 c 2,21,-1
 181 628 l 1,14,-1
259 -42 m 1,22,-1
 359 -42 l 1,23,-1
 359 -122 l 1,24,-1
 340 -260 l 1,25,-1
 304 -260 l 1,26,-1
 304 -142 l 1,27,-1
 259 -142 l 1,28,-1
 259 -42 l 1,22,-1
EndSplineSet
EndChar

StartChar: rcommaaccent
Encoding: 343 343 212
Width: 395
GlyphClass: 2
Flags: W
LayerCount: 2
Fore
SplineSet
85 0 m 1,0,-1
 85 514 l 1,1,-1
 161 514 l 1,2,-1
 172 443 l 1,3,4
 226 523 226 523 314 523 c 0,5,6
 342 523 342 523 380 513 c 1,7,-1
 365 429 l 1,8,9
 322 439 322 439 289 439 c 0,10,11
 220 439 220 439 179 367 c 1,12,-1
 179 0 l 1,13,-1
 85 0 l 1,0,-1
81 -42 m 1,14,-1
 181 -42 l 1,15,-1
 181 -122 l 1,16,-1
 162 -260 l 1,17,-1
 126 -260 l 1,18,-1
 126 -142 l 1,19,-1
 81 -142 l 1,20,-1
 81 -42 l 1,14,-1
EndSplineSet
EndChar

StartChar: Rcaron
Encoding: 344 344 213
Width: 596
GlyphClass: 2
Flags: W
LayerCount: 2
Fore
SplineSet
572 0 m 1,0,-1
 467 0 l 1,1,-1
 295 291 l 1,2,-1
 181 291 l 1,3,-1
 181 0 l 1,4,-1
 85 0 l 1,5,-1
 85 708 l 1,6,-1
 294 708 l 2,7,8
 415 708 415 708 476 653.5 c 128,-1,9
 537 599 537 599 537 500 c 0,10,11
 537 425 537 425 500.5 374.5 c 128,-1,12
 464 324 464 324 393 304 c 1,13,-1
 572 0 l 1,0,-1
181 628 m 1,14,-1
 181 371 l 1,15,-1
 294 371 l 2,16,17
 363 371 363 371 400 404 c 128,-1,18
 437 437 437 437 437 500 c 128,-1,19
 437 563 437 563 400.5 595.5 c 128,-1,20
 364 628 364 628 294 628 c 2,21,-1
 181 628 l 1,14,-1
286 830 m 1,22,-1
 420 922 l 1,23,-1
 450 881 l 1,24,-1
 297 754 l 1,25,-1
 275 754 l 1,26,-1
 122 881 l 1,27,-1
 149 922 l 1,28,-1
 286 830 l 1,22,-1
EndSplineSet
EndChar

StartChar: rcaron
Encoding: 345 345 214
Width: 395
GlyphClass: 2
Flags: W
LayerCount: 2
Fore
SplineSet
85 0 m 1,0,-1
 85 514 l 1,1,-1
 161 514 l 1,2,-1
 172 443 l 1,3,4
 226 523 226 523 314 523 c 0,5,6
 342 523 342 523 380 513 c 1,7,-1
 365 429 l 1,8,9
 322 439 322 439 289 439 c 0,10,11
 220 439 220 439 179 367 c 1,12,-1
 179 0 l 1,13,-1
 85 0 l 1,0,-1
235 650 m 1,14,-1
 369 742 l 1,15,-1
 399 701 l 1,16,-1
 246 574 l 1,17,-1
 224 574 l 1,18,-1
 71 701 l 1,19,-1
 98 742 l 1,20,-1
 235 650 l 1,14,-1
EndSplineSet
EndChar

StartChar: dotlessj
Encoding: 567 567 215
Width: 266
GlyphClass: 2
Flags: W
LayerCount: 2
Fore
SplineSet
89 85 m 2,0,-1
 89 514 l 1,1,-1
 181 514 l 1,2,-1
 181 85 l 2,3,4
 181 14 181 14 147.5 -50 c 128,-1,5
 114 -114 114 -114 38 -187 c 1,6,-1
 -12 -145 l 1,7,8
 89 -16 89 -16 89 85 c 2,0,-1
EndSplineSet
EndChar

StartChar: circumflex
Encoding: 710 710 216
Width: 368
GlyphClass: 2
Flags: W
LayerCount: 2
Fore
SplineSet
173 742 m 1,0,-1
 195 742 l 1,1,-1
 348 615 l 1,2,-1
 318 574 l 1,3,-1
 184 666 l 1,4,-1
 47 574 l 1,5,-1
 20 615 l 1,6,-1
 173 742 l 1,0,-1
EndSplineSet
EndChar

StartChar: caron
Encoding: 711 711 217
Width: 368
GlyphClass: 2
Flags: W
LayerCount: 2
Fore
SplineSet
184 650 m 1,0,-1
 318 742 l 1,1,-1
 348 701 l 1,2,-1
 195 574 l 1,3,-1
 173 574 l 1,4,-1
 20 701 l 1,5,-1
 47 742 l 1,6,-1
 184 650 l 1,0,-1
EndSplineSet
EndChar

StartChar: ring
Encoding: 730 730 218
Width: 238
GlyphClass: 2
Flags: W
LayerCount: 2
Fore
SplineSet
20 656 m 128,-1,1
 20 697 20 697 49 726 c 128,-1,2
 78 755 78 755 119 755 c 128,-1,3
 160 755 160 755 189 726 c 128,-1,4
 218 697 218 697 218 656 c 128,-1,5
 218 615 218 615 189 586 c 128,-1,6
 160 557 160 557 119 557 c 128,-1,7
 78 557 78 557 49 586 c 128,-1,0
 20 615 20 615 20 656 c 128,-1,1
169 656 m 128,-1,9
 169 679 169 679 155 695 c 128,-1,10
 141 711 141 711 119 711 c 128,-1,11
 97 711 97 711 83.5 695.5 c 128,-1,12
 70 680 70 680 70 656.5 c 128,-1,13
 70 633 70 633 83.5 617.5 c 128,-1,14
 97 602 97 602 119 602 c 128,-1,15
 141 602 141 602 155 617.5 c 128,-1,8
 169 633 169 633 169 656 c 128,-1,9
EndSplineSet
EndChar

StartChar: tilde
Encoding: 732 732 219
Width: 522
GlyphClass: 2
Flags: W
LayerCount: 2
Fore
SplineSet
89 599 m 1,0,1
 89 653 89 653 119.5 685.5 c 128,-1,2
 150 718 150 718 202 718 c 0,3,4
 250 718 250 718 281.5 686.5 c 128,-1,5
 313 655 313 655 339 655 c 0,6,7
 390 655 390 655 390 709 c 1,8,-1
 449 709 l 1,9,10
 449 655 449 655 419.5 622.5 c 128,-1,11
 390 590 390 590 341 590 c 0,12,13
 309 590 309 590 285 606 c 128,-1,14
 261 622 261 622 241.5 638 c 128,-1,15
 222 654 222 654 199.5 654 c 128,-1,16
 177 654 177 654 162.5 639 c 128,-1,17
 148 624 148 624 148 599 c 1,18,-1
 89 599 l 1,0,1
EndSplineSet
EndChar

StartChar: dotaccentcmb
Encoding: 775 775 220
Width: 132
GlyphClass: 2
Flags: W
LayerCount: 2
Fore
SplineSet
20 708 m 1,0,-1
 112 708 l 1,1,-1
 112 622 l 1,2,-1
 20 622 l 1,3,-1
 20 708 l 1,0,-1
EndSplineSet
EndChar

StartChar: commaaccent
Encoding: 806 806 221
Width: 271
GlyphClass: 2
Flags: W
LayerCount: 2
Fore
SplineSet
87 -42 m 1,0,-1
 187 -42 l 1,1,-1
 187 -122 l 1,2,-1
 168 -260 l 1,3,-1
 132 -260 l 1,4,-1
 132 -142 l 1,5,-1
 87 -142 l 1,6,-1
 87 -42 l 1,0,-1
EndSplineSet
EndChar

StartChar: mu
Encoding: 956 956 222
Width: 596
GlyphClass: 2
Flags: W
LayerCount: 2
Fore
SplineSet
77 514 m 1,0,-1
 171 514 l 1,1,-1
 171 181 l 2,2,3
 171 120 171 120 194.5 92.5 c 128,-1,4
 218 65 218 65 270 65 c 0,5,6
 366 65 366 65 420 145 c 1,7,-1
 420 514 l 1,8,-1
 514 514 l 1,9,-1
 514 0 l 1,10,-1
 437 0 l 1,11,-1
 426 71 l 1,12,13
 359 -9 359 -9 252 -9 c 0,14,15
 199 -9 199 -9 158 10 c 1,16,-1
 171 -208 l 1,17,-1
 77 -208 l 1,18,-1
 77 514 l 1,0,-1
EndSplineSet
EndChar

StartChar: endash
Encoding: 8211 8211 223
Width: 500
GlyphClass: 2
Flags: W
LayerCount: 2
Fore
SplineSet
0 279 m 1,0,-1
 0 359 l 1,1,-1
 500 359 l 1,2,-1
 500 279 l 1,3,-1
 0 279 l 1,0,-1
EndSplineSet
EndChar

StartChar: emdash
Encoding: 8212 8212 224
Width: 750
GlyphClass: 2
Flags: W
LayerCount: 2
Fore
SplineSet
0 279 m 1,0,-1
 0 359 l 1,1,-1
 750 359 l 1,2,-1
 750 279 l 1,3,-1
 0 279 l 1,0,-1
EndSplineSet
EndChar

StartChar: quoteleft
Encoding: 8216 8216 225
Width: 198
GlyphClass: 2
Flags: W
LayerCount: 2
Fore
SplineSet
143 642 m 1,0,-1
 143 542 l 1,1,-1
 43 542 l 1,2,-1
 43 622 l 1,3,-1
 102 759 l 1,4,-1
 147 759 l 1,5,-1
 98 642 l 1,6,-1
 143 642 l 1,0,-1
EndSplineSet
EndChar

StartChar: quoteright
Encoding: 8217 8217 226
Width: 198
GlyphClass: 2
Flags: W
LayerCount: 2
Fore
SplineSet
47 659 m 1,0,-1
 47 759 l 1,1,-1
 147 759 l 1,2,-1
 147 679 l 1,3,-1
 88 542 l 1,4,-1
 43 542 l 1,5,-1
 92 659 l 1,6,-1
 47 659 l 1,0,-1
EndSplineSet
EndChar

StartChar: quotesinglbase
Encoding: 8218 8218 227
Width: 280
GlyphClass: 2
Flags: W
LayerCount: 2
Fore
SplineSet
88 -102 m 1,0,-1
 105 107 l 1,1,-1
 192 107 l 1,2,-1
 131 -113 l 1,3,-1
 88 -102 l 1,0,-1
EndSplineSet
EndChar

StartChar: quotedblleft
Encoding: 8220 8220 228
Width: 364
GlyphClass: 2
Flags: W
LayerCount: 2
Fore
SplineSet
143 642 m 1,0,-1
 143 542 l 1,1,-1
 43 542 l 1,2,-1
 43 622 l 1,3,-1
 102 759 l 1,4,-1
 147 759 l 1,5,-1
 98 642 l 1,6,-1
 143 642 l 1,0,-1
309 642 m 1,7,-1
 309 542 l 1,8,-1
 209 542 l 1,9,-1
 209 622 l 1,10,-1
 268 759 l 1,11,-1
 313 759 l 1,12,-1
 264 642 l 1,13,-1
 309 642 l 1,7,-1
EndSplineSet
EndChar

StartChar: quotedblright
Encoding: 8221 8221 229
Width: 364
GlyphClass: 2
Flags: W
LayerCount: 2
Fore
SplineSet
213 659 m 1,0,-1
 213 759 l 1,1,-1
 313 759 l 1,2,-1
 313 679 l 1,3,-1
 254 542 l 1,4,-1
 209 542 l 1,5,-1
 258 659 l 1,6,-1
 213 659 l 1,0,-1
47 659 m 1,7,-1
 47 759 l 1,8,-1
 147 759 l 1,9,-1
 147 679 l 1,10,-1
 88 542 l 1,11,-1
 43 542 l 1,12,-1
 92 659 l 1,13,-1
 47 659 l 1,7,-1
EndSplineSet
EndChar

StartChar: quotedblbase
Encoding: 8222 8222 230
Width: 459
GlyphClass: 2
Flags: W
LayerCount: 2
Fore
SplineSet
251 -102 m 1,0,-1
 268 107 l 1,1,-1
 355 107 l 1,2,-1
 294 -113 l 1,3,-1
 251 -102 l 1,0,-1
88 -102 m 1,4,-1
 105 107 l 1,5,-1
 192 107 l 1,6,-1
 131 -113 l 1,7,-1
 88 -102 l 1,4,-1
EndSplineSet
EndChar

StartChar: bullet
Encoding: 8226 8226 231
Width: 450
GlyphClass: 2
Flags: W
LayerCount: 2
Fore
SplineSet
225 193 m 128,-1,1
 168 193 168 193 128 233 c 128,-1,2
 88 273 88 273 88 330 c 128,-1,3
 88 387 88 387 128 427 c 128,-1,4
 168 467 168 467 225 467 c 128,-1,5
 282 467 282 467 322 427 c 128,-1,6
 362 387 362 387 362 330 c 128,-1,7
 362 273 362 273 322 233 c 128,-1,0
 282 193 282 193 225 193 c 128,-1,1
EndSplineSet
EndChar

StartChar: guilsinglleft
Encoding: 8249 8249 232
Width: 376
GlyphClass: 2
Flags: W
LayerCount: 2
Fore
SplineSet
221 24 m 1,0,-1
 69 261 l 1,1,-1
 222 499 l 1,2,-1
 292 448 l 1,3,-1
 168 261 l 1,4,-1
 290 77 l 1,5,-1
 221 24 l 1,0,-1
EndSplineSet
EndChar

StartChar: guilsinglright
Encoding: 8250 8250 233
Width: 376
GlyphClass: 2
Flags: W
LayerCount: 2
Fore
SplineSet
86 77 m 1,0,-1
 208 261 l 1,1,-1
 84 448 l 1,2,-1
 154 499 l 1,3,-1
 307 261 l 1,4,-1
 155 24 l 1,5,-1
 86 77 l 1,0,-1
EndSplineSet
EndChar

StartChar: Euro
Encoding: 8364 8364 234
Width: 680
GlyphClass: 2
Flags: W
LayerCount: 2
Fore
SplineSet
41 394 m 1,0,-1
 61 466 l 1,1,-1
 145 466 l 1,2,3
 172 582 172 582 255 649 c 128,-1,4
 338 716 338 716 462.5 716 c 128,-1,5
 587 716 587 716 655 678 c 1,6,-1
 624 600 l 1,7,8
 601 615 601 615 557 625.5 c 128,-1,9
 513 636 513 636 473 636 c 0,10,11
 384 636 384 636 327 591 c 128,-1,12
 270 546 270 546 247 466 c 1,13,-1
 580 466 l 1,14,-1
 554 394 l 1,15,-1
 234 394 l 1,16,17
 233 381 233 381 233 359.5 c 128,-1,18
 233 338 233 338 235 310 c 1,19,-1
 526 310 l 1,20,-1
 501 238 l 1,21,-1
 249 238 l 1,22,23
 273 160 273 160 332.5 116 c 128,-1,24
 392 72 392 72 486 72 c 0,25,26
 552 72 552 72 618 101 c 1,27,-1
 655 29 l 1,28,29
 579 -8 579 -8 472 -8 c 0,30,31
 342 -8 342 -8 258 57 c 128,-1,32
 174 122 174 122 146 238 c 1,33,-1
 38 238 l 1,34,-1
 58 310 l 1,35,-1
 135 310 l 1,36,37
 133 338 133 338 133 359.5 c 128,-1,38
 133 381 133 381 134 394 c 1,39,-1
 41 394 l 1,0,-1
EndSplineSet
EndChar

StartChar: foundryicon
Encoding: 65539 -1 235
Width: 709
GlyphClass: 2
Flags: W
LayerCount: 2
Fore
SplineSet
279 474 m 1,0,-1
 220 440 l 2,1,2
 214 436 214 436 208 436 c 128,-1,3
 202 436 202 436 202 446 c 2,4,-1
 202 588 l 1,5,-1
 112 588 l 1,6,-1
 112 169 l 1,7,-1
 202 169 l 1,8,-1
 202 388 l 2,9,10
 202 403 202 403 231 403 c 0,11,12
 283 403 283 403 283 335 c 2,13,-1
 283 169 l 1,14,-1
 373 169 l 1,15,-1
 373 386 l 2,16,17
 373 424 373 424 346.5 449 c 128,-1,18
 320 474 320 474 279 474 c 1,0,-1
409 445 m 1,19,-1
 409 423 l 1,20,-1
 440 423 l 2,21,22
 453 423 453 423 453 411 c 2,23,-1
 453 251 l 2,24,25
 453 213 453 213 480 187.5 c 128,-1,26
 507 162 507 162 547 162 c 1,27,-1
 624 207 l 1,28,-1
 624 237 l 1,29,30
 606 232 606 232 592 232 c 0,31,32
 543 232 543 232 543 302 c 2,33,-1
 543 411 l 2,34,35
 543 423 543 423 555 423 c 2,36,-1
 625 423 l 1,37,-1
 625 467 l 1,38,-1
 555 467 l 2,39,40
 543 467 543 467 543 479 c 2,41,-1
 543 513 l 1,42,-1
 517 513 l 1,43,-1
 409 445 l 1,19,-1
97 0 m 2,44,45
 0 0 0 0 0 97 c 2,46,-1
 0 612 l 2,47,48
 0 709 0 709 97 709 c 2,49,-1
 612 709 l 2,50,51
 709 709 709 709 709 612 c 2,52,-1
 709 97 l 2,53,54
 709 0 709 0 612 0 c 2,55,-1
 97 0 l 2,44,45
EndSplineSet
EndChar

StartChar: Ldotaccent
Encoding: 65540 -1 236
Width: 532
GlyphClass: 2
Flags: W
LayerCount: 2
Fore
SplineSet
85 0 m 1,0,-1
 85 708 l 1,1,-1
 180 708 l 1,2,-1
 180 83 l 1,3,-1
 504 83 l 1,4,-1
 504 0 l 1,5,-1
 85 0 l 1,0,-1
335 582 m 1,6,-1
 427 582 l 1,7,-1
 427 496 l 1,8,-1
 335 496 l 1,9,-1
 335 582 l 1,6,-1
EndSplineSet
EndChar

StartChar: dotaccentcmb.cap
Encoding: 65541 -1 237
Width: 264
GlyphClass: 2
Flags: W
LayerCount: 2
Fore
SplineSet
86 621 m 1,0,-1
 86 708 l 1,1,-1
 178 708 l 1,2,-1
 178 621 l 1,3,-1
 86 621 l 1,0,-1
EndSplineSet
EndChar
